<svg
    width="100%"
    height="100%"
    viewBox="0 0 283 86"
    fill="none"
    xmlns="http://www.w3.org/2000/svg"
  >
    <path
      d="M43.8582 54.2664C43.8582 56.2994 43.4699 58.2068 42.6932 59.9885C41.9166 61.7702 40.8544 63.335 39.5067 64.6827C38.1818 66.0076 36.6285 67.0584 34.8467 67.835C33.065 68.6117 31.1576 69 29.1246 69H4.55714V19.8651H29.1246C31.1576 19.8651 33.065 20.2534 34.8467 21.0301C36.6285 21.8067 38.1818 22.8689 39.5067 24.2167C40.8544 25.5415 41.9166 27.0949 42.6932 28.8766C43.4699 30.6583 43.8582 32.5657 43.8582 34.5987C43.8582 35.5124 43.7326 36.449 43.4813 37.4084C43.23 38.3678 42.876 39.2929 42.4191 40.1838C41.9623 41.0747 41.414 41.8856 40.7744 42.6165C40.1348 43.3475 39.4267 43.9529 38.65 44.4326C39.4495 44.8666 40.1691 45.4605 40.8087 46.2143C41.4483 46.9453 41.9965 47.7562 42.4534 48.6471C42.9102 49.5379 43.2529 50.4745 43.4813 51.4567C43.7326 52.4161 43.8582 53.3527 43.8582 54.2664ZM14.391 59.1662H29.1246C29.8099 59.1662 30.4495 59.0405 31.0434 58.7893C31.6373 58.538 32.1513 58.1953 32.5853 57.7613C33.0421 57.3045 33.3962 56.7791 33.6475 56.1852C33.8987 55.5913 34.0244 54.9517 34.0244 54.2664C34.0244 53.5811 33.8987 52.9415 33.6475 52.3476C33.3962 51.7537 33.0421 51.2397 32.5853 50.8057C32.1513 50.3488 31.6373 49.9948 31.0434 49.7435C30.4495 49.4922 29.8099 49.3666 29.1246 49.3666H14.391V59.1662ZM14.391 39.5328H29.1246C29.8099 39.5328 30.4495 39.4071 31.0434 39.1559C31.6373 38.9046 32.1513 38.5619 32.5853 38.1279C33.0421 37.6711 33.3962 37.1457 33.6475 36.5518C33.8987 35.935 34.0244 35.284 34.0244 34.5987C34.0244 33.9134 33.8987 33.2738 33.6475 32.6799C33.3962 32.086 33.0421 31.572 32.5853 31.138C32.1513 30.6812 31.6373 30.3271 31.0434 30.0758C30.4495 29.8246 29.8099 29.6989 29.1246 29.6989H14.391V39.5328ZM77.2658 64.717C76.512 65.4023 75.7011 66.0533 74.8331 66.67C73.9879 67.2639 73.097 67.7893 72.1605 68.2462C71.2239 68.6802 70.2531 69.0228 69.248 69.2741C68.2658 69.5482 67.2607 69.6853 66.2327 69.6853C63.9713 69.6853 61.8469 69.2855 59.8596 68.486C57.8723 67.6865 56.1248 66.5558 54.6172 65.0939C53.1324 63.6091 51.956 61.8159 51.088 59.7144C50.2428 57.59 49.8202 55.2144 49.8202 52.5874V32.303H59.1401V52.5874C59.1401 53.8209 59.3228 54.9288 59.6883 55.9111C60.0766 56.8705 60.5906 57.6814 61.2302 58.3438C61.8698 59.0063 62.6122 59.5088 63.4573 59.8515C64.3254 60.1941 65.2505 60.3654 66.2327 60.3654C67.1921 60.3654 68.0944 60.1484 68.9396 59.7144C69.8076 59.2575 70.5615 58.6636 71.2011 57.9327C71.8407 57.2017 72.3432 56.3793 72.7087 55.4656C73.0742 54.5291 73.2569 53.5697 73.2569 52.5874V32.303H82.611V69H80.3496L77.2658 64.717ZM100.805 22.3321C100.805 23.2002 100.634 24.0111 100.291 24.7649C99.9716 25.5187 99.5262 26.1811 98.9551 26.7522C98.384 27.3004 97.7102 27.7459 96.9335 28.0885C96.1797 28.4083 95.3688 28.5682 94.5007 28.5682C93.6327 28.5682 92.8104 28.4083 92.0337 28.0885C91.2799 27.7459 90.6175 27.3004 90.0464 26.7522C89.4982 26.1811 89.0527 25.5187 88.7101 24.7649C88.3903 24.0111 88.2304 23.2002 88.2304 22.3321C88.2304 21.4869 88.3903 20.6874 88.7101 19.9336C89.0527 19.157 89.4982 18.4945 90.0464 17.9463C90.6175 17.3752 91.2799 16.9298 92.0337 16.61C92.8104 16.2674 93.6327 16.096 94.5007 16.096C95.3688 16.096 96.1797 16.2674 96.9335 16.61C97.7102 16.9298 98.384 17.3752 98.9551 17.9463C99.5262 18.4945 99.9716 19.157 100.291 19.9336C100.634 20.6874 100.805 21.4869 100.805 22.3321ZM99.1949 69H89.7723V32.303H99.1949V69ZM115.779 69H106.356V17.7065H115.779V69ZM163.303 44.4326C163.303 46.694 163.006 48.8755 162.412 50.977C161.841 53.0557 161.019 55.0088 159.945 56.8362C158.872 58.6408 157.593 60.2969 156.108 61.8045C154.623 63.2893 152.967 64.5685 151.14 65.6421C149.312 66.7157 147.348 67.5495 145.246 68.1434C143.167 68.7145 140.997 69 138.736 69H123.934V19.8651H138.736C140.997 19.8651 143.167 20.1621 145.246 20.756C147.348 21.327 149.312 22.1494 151.14 23.223C152.967 24.2966 154.623 25.5872 156.108 27.0949C157.593 28.5796 158.872 30.2357 159.945 32.0632C161.019 33.8677 161.841 35.8208 162.412 37.9223C163.006 40.001 163.303 42.1711 163.303 44.4326ZM153.469 44.4326C153.469 42.3995 153.081 40.4922 152.304 38.7104C151.551 36.9287 150.5 35.3754 149.152 34.0505C147.827 32.7028 146.263 31.6406 144.458 30.8639C142.676 30.0873 140.769 29.6989 138.736 29.6989H133.836V59.1662H138.736C140.769 59.1662 142.676 58.7893 144.458 58.0354C146.263 57.2588 147.827 56.208 149.152 54.8831C150.5 53.5354 151.551 51.9707 152.304 50.1889C153.081 48.3844 153.469 46.4656 153.469 44.4326ZM204.318 50.326C204.318 53.0671 203.826 55.6255 202.844 58.0012C201.862 60.354 200.526 62.3984 198.835 64.1345C197.145 65.8477 195.158 67.2068 192.873 68.2119C190.612 69.1942 188.179 69.6853 185.575 69.6853C182.994 69.6853 180.561 69.1942 178.277 68.2119C176.015 67.2068 174.028 65.8477 172.315 64.1345C170.624 62.3984 169.288 60.354 168.306 58.0012C167.324 55.6255 166.833 53.0671 166.833 50.326C166.833 47.5392 167.324 44.9579 168.306 42.5823C169.288 40.2066 170.624 38.1622 172.315 36.449C174.028 34.7129 176.015 33.3538 178.277 32.3715C180.561 31.3893 182.994 30.8982 185.575 30.8982C188.179 30.8982 190.612 31.3665 192.873 32.303C195.158 33.2167 197.145 34.5302 198.835 36.2434C200.526 37.9338 201.862 39.9782 202.844 42.3767C203.826 44.7523 204.318 47.4021 204.318 50.326ZM194.895 50.326C194.895 48.8184 194.644 47.4592 194.141 46.2486C193.661 45.015 192.999 43.9643 192.154 43.0962C191.309 42.2054 190.315 41.5315 189.173 41.0747C188.053 40.595 186.854 40.3551 185.575 40.3551C184.296 40.3551 183.085 40.595 181.943 41.0747C180.824 41.5315 179.841 42.2054 178.996 43.0962C178.174 43.9643 177.523 45.015 177.043 46.2486C176.564 47.4592 176.324 48.8184 176.324 50.326C176.324 51.7423 176.564 53.0557 177.043 54.2664C177.523 55.4771 178.174 56.5278 178.996 57.4187C179.841 58.3096 180.824 59.0177 181.943 59.5431C183.085 60.0456 184.296 60.2969 185.575 60.2969C186.854 60.2969 188.053 60.057 189.173 59.5773C190.315 59.0976 191.309 58.4238 192.154 57.5557C192.999 56.6877 193.661 55.637 194.141 54.4034C194.644 53.1699 194.895 51.8108 194.895 50.326ZM218.846 69H209.491V32.303H211.753L214.837 35.8665C216.344 34.4959 218.046 33.4452 219.942 32.7142C221.861 31.9604 223.86 31.5835 225.938 31.5835C228.177 31.5835 230.29 32.0175 232.277 32.8855C234.265 33.7307 236.001 34.9071 237.485 36.4147C238.97 37.8995 240.135 39.647 240.98 41.6571C241.848 43.6445 242.282 45.7689 242.282 48.0303V69H232.928V48.0303C232.928 47.0709 232.745 46.1686 232.38 45.3234C232.014 44.4554 231.512 43.7016 230.872 43.062C230.233 42.4224 229.49 41.9198 228.645 41.5544C227.8 41.1889 226.898 41.0061 225.938 41.0061C224.956 41.0061 224.031 41.1889 223.163 41.5544C222.295 41.9198 221.541 42.4224 220.901 43.062C220.262 43.7016 219.759 44.4554 219.394 45.3234C219.028 46.1686 218.846 47.0709 218.846 48.0303V69ZM263.56 60.0228C263.926 60.137 264.291 60.2169 264.657 60.2626C265.022 60.2855 265.388 60.2969 265.753 60.2969C266.667 60.2969 267.547 60.1713 268.392 59.92C269.237 59.6687 270.025 59.3146 270.756 58.8578C271.51 58.3781 272.172 57.807 272.743 57.1446C273.337 56.4593 273.817 55.7055 274.182 54.8831L281.035 61.7702C280.167 63.0038 279.162 64.1116 278.02 65.0939C276.901 66.0761 275.679 66.9099 274.354 67.5952C273.052 68.2805 271.67 68.7944 270.208 69.1371C268.769 69.5025 267.284 69.6853 265.753 69.6853C263.172 69.6853 260.739 69.2056 258.455 68.2462C256.194 67.2868 254.206 65.9505 252.493 64.2373C250.803 62.5241 249.466 60.4911 248.484 58.1382C247.502 55.7626 247.011 53.1585 247.011 50.326C247.011 47.425 247.502 44.7752 248.484 42.3767C249.466 39.9782 250.803 37.9338 252.493 36.2434C254.206 34.553 256.194 33.2396 258.455 32.303C260.739 31.3665 263.172 30.8982 265.753 30.8982C267.284 30.8982 268.78 31.0809 270.242 31.4464C271.704 31.8119 273.086 32.3373 274.388 33.0226C275.713 33.7078 276.946 34.553 278.088 35.5581C279.231 36.5404 280.236 37.6482 281.104 38.8817L263.56 60.0228ZM268.357 40.732C267.923 40.5721 267.489 40.4693 267.055 40.4236C266.644 40.378 266.21 40.3551 265.753 40.3551C264.474 40.3551 263.263 40.595 262.121 41.0747C261.002 41.5315 260.02 42.194 259.175 43.062C258.352 43.93 257.701 44.9808 257.222 46.2143C256.742 47.425 256.502 48.7955 256.502 50.326C256.502 50.6686 256.513 51.057 256.536 51.491C256.582 51.925 256.639 52.3704 256.708 52.8273C256.799 53.2613 256.902 53.6839 257.016 54.0951C257.13 54.5062 257.279 54.8717 257.461 55.1915L268.357 40.732Z"
      fill="#6F63FF"
    />
  </svg>