<svg width="100%" height="100%" viewBox="0 0 440 220" fill="none" xmlns="http://www.w3.org/2000/svg">
<g filter="url(#filter0_d_912_16880)">
<rect x="41" y="37" width="340" height="120" rx="20" fill="white"/>
<path d="M122.219 72.8789H117.877V74.4082H124.064V76.2188H109.475V74.4082H115.627V72.8789H111.285V67.2539H122.219V72.8789ZM113.482 71.1211H120.021V68.9941H113.482V71.1211ZM122.289 82.6172H120.057V79.1543H111.092V77.3965H122.289V82.6172ZM139.674 80.8418H125.031V79.0488H128.67V76.0078H126.244V74.1973H128.389V69.6973H126.174V67.9043H138.443V69.6973H136.193V74.1973H138.373V76.0078H135.965V79.0488H139.674V80.8418ZM133.979 74.1973V69.6973H130.639V74.1973H133.979ZM133.715 79.0488V76.0078H130.92V79.0488H133.715ZM152.488 69.2227H147.531V72.457C148.955 72.4512 150.136 72.4102 151.073 72.334C152.017 72.2578 152.951 72.123 153.877 71.9297L154.105 73.6699C153.203 73.8809 152.266 74.0215 151.293 74.0918C150.32 74.1621 149.055 74.1973 147.496 74.1973H146.635H145.299V67.4473H152.488V69.2227ZM157.428 69.6445H159.59V71.4727H157.428V74.584H155.178V66.6211H157.428V69.6445ZM157.428 79.6465H149.043V80.6484H157.885V82.4414H146.846V77.959H155.195V77.0098H146.811V75.2344H157.428V79.6465ZM166.34 68.8008C166.334 69.5391 166.46 70.2305 166.718 70.875C166.981 71.5195 167.386 72.0879 167.931 72.5801C168.481 73.0723 169.17 73.4473 169.996 73.7051L168.818 75.4629C167.975 75.1699 167.254 74.7568 166.656 74.2236C166.064 73.6904 165.599 73.0547 165.259 72.3164C164.89 73.1777 164.377 73.9219 163.721 74.5488C163.064 75.1699 162.268 75.6387 161.33 75.9551L160.152 74.1621C161.031 73.8809 161.764 73.4736 162.35 72.9404C162.936 72.4014 163.366 71.7891 163.642 71.1035C163.923 70.4121 164.066 69.6797 164.072 68.9062V67.4473H166.34V68.8008ZM173.775 75.9902H171.543V71.3848H168.537V69.5566H171.543V66.6211H173.775V75.9902ZM168.309 76.4121C169.439 76.4121 170.418 76.5352 171.244 76.7812C172.07 77.0273 172.706 77.3848 173.151 77.8535C173.597 78.3164 173.822 78.873 173.828 79.5234C173.822 80.1738 173.597 80.7305 173.151 81.1934C172.706 81.6562 172.07 82.0078 171.244 82.248C170.424 82.4941 169.445 82.6172 168.309 82.6172C167.172 82.6172 166.19 82.4941 165.364 82.248C164.544 82.0078 163.911 81.6562 163.466 81.1934C163.026 80.7305 162.807 80.1738 162.807 79.5234C162.807 78.873 163.026 78.3164 163.466 77.8535C163.911 77.3848 164.547 77.0273 165.373 76.7812C166.199 76.5352 167.178 76.4121 168.309 76.4121ZM168.309 78.1523C167.236 78.1523 166.422 78.2666 165.865 78.4951C165.314 78.7236 165.039 79.0664 165.039 79.5234C165.039 79.9629 165.317 80.2998 165.874 80.5342C166.437 80.7627 167.248 80.877 168.309 80.877C169.375 80.877 170.189 80.7627 170.752 80.5342C171.314 80.2998 171.596 79.9629 171.596 79.5234C171.596 79.0723 171.314 78.7324 170.752 78.5039C170.195 78.2695 169.381 78.1523 168.309 78.1523ZM183.145 66.8496C184.369 66.8496 185.415 66.9551 186.282 67.166C187.149 67.377 187.812 67.6875 188.269 68.0977C188.726 68.502 188.957 68.9941 188.963 69.5742C188.957 70.1602 188.726 70.6582 188.269 71.0684C187.812 71.4785 187.149 71.7891 186.282 72C185.415 72.2109 184.369 72.3164 183.145 72.3164C181.914 72.3164 180.862 72.2109 179.989 72C179.116 71.7891 178.451 71.4785 177.994 71.0684C177.537 70.6582 177.309 70.1602 177.309 69.5742C177.309 68.9941 177.537 68.502 177.994 68.0977C178.451 67.6875 179.116 67.377 179.989 67.166C180.862 66.9551 181.914 66.8496 183.145 66.8496ZM183.145 68.4844C181.979 68.4844 181.103 68.5781 180.517 68.7656C179.937 68.9473 179.652 69.2168 179.664 69.5742C179.658 69.9609 179.937 70.2393 180.499 70.4092C181.062 70.5791 181.943 70.6641 183.145 70.6641C184.352 70.6641 185.236 70.5791 185.799 70.4092C186.361 70.2393 186.643 69.9609 186.643 69.5742C186.643 69.2168 186.353 68.9473 185.772 68.7656C185.192 68.5781 184.316 68.4844 183.145 68.4844ZM190.439 74.8477H175.85V73.0723H190.439V74.8477ZM188.664 79.8574H179.752V80.8242H189.086V82.5117H177.555V78.293H186.449V77.4141H177.537V75.7793H188.664V79.8574ZM200.775 67.2891C201.584 67.2832 202.308 67.4238 202.946 67.7109C203.585 67.9922 204.086 68.3936 204.449 68.915C204.812 69.4307 204.994 70.0195 204.994 70.6816C204.994 71.3379 204.812 71.9268 204.449 72.4482C204.086 72.9639 203.582 73.3652 202.938 73.6523C202.299 73.9395 201.578 74.0801 200.775 74.0742C199.967 74.0801 199.243 73.9395 198.604 73.6523C197.966 73.3652 197.465 72.9639 197.102 72.4482C196.744 71.9268 196.568 71.3379 196.574 70.6816C196.568 70.0195 196.744 69.4307 197.102 68.915C197.465 68.3936 197.966 67.9922 198.604 67.7109C199.243 67.4238 199.967 67.2832 200.775 67.2891ZM200.775 69.082C200.166 69.082 199.674 69.2256 199.299 69.5127C198.924 69.7939 198.736 70.1836 198.736 70.6816C198.736 71.1738 198.924 71.5605 199.299 71.8418C199.674 72.123 200.166 72.2578 200.775 72.2461C201.402 72.2578 201.906 72.123 202.287 71.8418C202.674 71.5605 202.867 71.1738 202.867 70.6816C202.867 70.1836 202.674 69.7939 202.287 69.5127C201.906 69.2256 201.402 69.082 200.775 69.082ZM209.037 82.6172H206.822V66.6387H209.037V82.6172ZM195.59 75.0586C199.844 75.0586 203.266 74.8652 205.855 74.4785L205.996 76.1309C204.783 76.3711 203.447 76.5498 201.988 76.667V82.1426H199.756V76.7988C198.725 76.8457 197.641 76.8691 196.504 76.8691C196.363 76.8809 196.152 76.8867 195.871 76.8867L195.59 75.0586ZM218.828 70.8398H211.094V69.0645H213.871V67.0605H216.086V69.0645H218.828V70.8398ZM214.996 71.5605C215.67 71.5605 216.271 71.7246 216.798 72.0527C217.331 72.375 217.747 72.8232 218.046 73.3975C218.351 73.9717 218.506 74.625 218.512 75.3574C218.506 76.0898 218.351 76.7461 218.046 77.3262C217.747 77.9062 217.331 78.3604 216.798 78.6885C216.271 79.0107 215.67 79.1719 214.996 79.1719C214.322 79.1719 213.716 79.0107 213.177 78.6885C212.644 78.3604 212.225 77.9062 211.92 77.3262C211.615 76.7461 211.463 76.0898 211.463 75.3574C211.463 74.6309 211.615 73.9805 211.92 73.4062C212.225 72.8262 212.644 72.375 213.177 72.0527C213.716 71.7246 214.322 71.5605 214.996 71.5605ZM214.996 73.4238C214.521 73.4238 214.141 73.5967 213.854 73.9424C213.572 74.2881 213.432 74.7598 213.432 75.3574C213.432 75.9551 213.572 76.4238 213.854 76.7637C214.141 77.1035 214.521 77.2734 214.996 77.2734C215.453 77.2734 215.822 77.1035 216.104 76.7637C216.391 76.4238 216.537 75.9551 216.543 75.3574C216.537 74.7598 216.391 74.2881 216.104 73.9424C215.822 73.5967 215.453 73.4238 214.996 73.4238ZM224.945 82.6172H222.818V74.918H221.518V81.9316H219.426V66.9375H221.518V73.125H222.818V66.6211H224.945V82.6172ZM243.859 75.3223H239.254V78.9961H245.459V80.7891H230.816V78.9961H236.986V75.3223H232.451V67.8516H234.754V73.5117H243.859V75.3223ZM254.055 72.5449H249.221V74.25C250.451 74.25 251.462 74.2236 252.253 74.1709C253.05 74.1123 253.844 74.0098 254.635 73.8633L254.846 75.6562C253.961 75.8145 253.047 75.9199 252.104 75.9727C251.166 76.0195 249.865 76.043 248.201 76.043H247.006V70.875H251.805V69.3105H246.971V67.5527H254.055V72.5449ZM259.855 76.4824H257.623V74.0215H254.969V72.2461H257.623V70.6289H254.969V68.8535H257.623V66.6387H259.855V76.4824ZM259.855 82.6172H257.623V78.9961H248.834V77.2031H259.855V82.6172ZM274.621 71.543H276.783V73.3711H274.621V78.5742H272.371V66.6387H274.621V71.543ZM271.422 70.084H261.93V68.3086H265.568V66.6035H267.801V68.3086H271.422V70.084ZM266.676 70.6465C267.443 70.6465 268.123 70.7754 268.715 71.0332C269.312 71.291 269.778 71.6543 270.112 72.123C270.446 72.5918 270.613 73.1309 270.613 73.7402C270.613 74.3496 270.446 74.8857 270.112 75.3486C269.784 75.8057 269.321 76.1631 268.724 76.4209C268.126 76.6729 267.443 76.7988 266.676 76.7988C265.902 76.7988 265.214 76.6729 264.61 76.4209C264.013 76.1631 263.544 75.8057 263.204 75.3486C262.87 74.8857 262.703 74.3496 262.703 73.7402C262.703 73.1309 262.87 72.5918 263.204 72.123C263.544 71.6543 264.013 71.291 264.61 71.0332C265.214 70.7754 265.902 70.6465 266.676 70.6465ZM266.676 72.3516C266.131 72.3633 265.697 72.4893 265.375 72.7295C265.053 72.9697 264.895 73.3066 264.9 73.7402C264.895 74.1738 265.05 74.5078 265.366 74.7422C265.688 74.9766 266.125 75.0938 266.676 75.0938C267.227 75.0938 267.666 74.9766 267.994 74.7422C268.322 74.502 268.486 74.168 268.486 73.7402C268.486 73.3066 268.322 72.9697 267.994 72.7295C267.666 72.4893 267.227 72.3633 266.676 72.3516ZM275.201 82.3359H264.25V77.6602H266.482V80.543H275.201V82.3359ZM287.857 70.2422C287.857 71.2441 288.01 72.2139 288.314 73.1514C288.619 74.083 289.073 74.9121 289.677 75.6387C290.286 76.3594 291.027 76.9043 291.9 77.2734L290.582 79.0664C289.691 78.6621 288.924 78.085 288.279 77.335C287.641 76.5791 287.134 75.6914 286.759 74.6719C286.384 75.7852 285.862 76.752 285.194 77.5723C284.532 78.3926 283.727 79.0195 282.777 79.4531L281.424 77.5898C282.326 77.209 283.088 76.6436 283.709 75.8936C284.33 75.1377 284.796 74.2734 285.106 73.3008C285.423 72.3281 285.584 71.3086 285.59 70.2422V67.8516H287.857V70.2422ZM295.029 82.6523H292.762V66.6211H295.029V82.6523ZM309.883 71.1035H312.045V72.9492H309.883V78.082H307.615V66.6211H309.883V71.1035ZM305.523 67.8164C305.523 69.2461 305.23 70.5352 304.645 71.6836C304.064 72.8262 303.215 73.8047 302.096 74.6191C300.977 75.4336 299.617 76.0664 298.018 76.5176L297.086 74.7422C298.85 74.25 300.238 73.5615 301.252 72.6768C302.271 71.792 302.872 70.7812 303.054 69.6445H297.789V67.8164H305.523ZM310.428 82.3359H299.477V76.9043H301.744V80.543H310.428V82.3359Z" fill="#111111"/>
<path d="M187.156 124.312C185.521 124.312 184.052 124.031 182.75 123.469C181.458 122.896 180.438 122.104 179.688 121.094C178.948 120.073 178.562 118.917 178.531 117.625H183.281C183.312 118.177 183.5 118.667 183.844 119.094C184.188 119.521 184.651 119.854 185.234 120.094C185.818 120.323 186.469 120.438 187.188 120.438C187.927 120.438 188.589 120.307 189.172 120.047C189.766 119.776 190.224 119.406 190.547 118.938C190.88 118.469 191.042 117.938 191.031 117.344C191.042 116.729 190.87 116.182 190.516 115.703C190.172 115.224 189.677 114.854 189.031 114.594C188.385 114.323 187.625 114.188 186.75 114.188H184.656V110.719H186.75C187.479 110.719 188.13 110.594 188.703 110.344C189.276 110.094 189.724 109.74 190.047 109.281C190.37 108.823 190.531 108.302 190.531 107.719C190.531 107.146 190.391 106.641 190.109 106.203C189.839 105.766 189.453 105.427 188.953 105.188C188.453 104.938 187.875 104.812 187.219 104.812C186.552 104.812 185.938 104.932 185.375 105.172C184.823 105.401 184.375 105.734 184.031 106.172C183.698 106.599 183.521 107.094 183.5 107.656H179C179.021 106.375 179.391 105.234 180.109 104.234C180.828 103.234 181.807 102.458 183.047 101.906C184.297 101.344 185.688 101.062 187.219 101.062C188.76 101.062 190.125 101.344 191.312 101.906C192.51 102.458 193.438 103.224 194.094 104.203C194.75 105.172 195.073 106.25 195.062 107.438C195.073 108.26 194.896 109.01 194.531 109.688C194.177 110.354 193.672 110.906 193.016 111.344C192.37 111.781 191.625 112.073 190.781 112.219V112.406C191.875 112.542 192.807 112.844 193.578 113.312C194.349 113.781 194.932 114.391 195.328 115.141C195.724 115.88 195.917 116.719 195.906 117.656C195.917 118.927 195.547 120.073 194.797 121.094C194.047 122.104 193.005 122.896 191.672 123.469C190.339 124.031 188.833 124.312 187.156 124.312ZM207.319 124.312C205.621 124.312 204.095 124.036 202.741 123.484C201.397 122.932 200.345 122.172 199.584 121.203C198.824 120.224 198.444 119.125 198.444 117.906C198.444 116.979 198.663 116.115 199.1 115.312C199.538 114.51 200.136 113.849 200.897 113.328C201.668 112.797 202.517 112.458 203.444 112.312V112.156C202.642 112 201.928 111.688 201.303 111.219C200.678 110.74 200.189 110.146 199.834 109.438C199.491 108.729 199.319 107.969 199.319 107.156C199.319 105.99 199.663 104.948 200.35 104.031C201.038 103.104 201.991 102.38 203.209 101.859C204.428 101.328 205.798 101.062 207.319 101.062C208.84 101.062 210.209 101.328 211.428 101.859C212.647 102.38 213.6 103.104 214.288 104.031C214.985 104.948 215.34 105.99 215.35 107.156C215.34 107.979 215.157 108.745 214.803 109.453C214.449 110.151 213.959 110.74 213.334 111.219C212.709 111.688 212.006 112 211.225 112.156V112.312C212.142 112.458 212.975 112.797 213.725 113.328C214.485 113.849 215.084 114.51 215.522 115.312C215.97 116.115 216.194 116.979 216.194 117.906C216.194 119.125 215.814 120.224 215.053 121.203C214.293 122.172 213.235 122.932 211.881 123.484C210.538 124.036 209.017 124.312 207.319 124.312ZM207.319 120.719C208.1 120.719 208.788 120.583 209.381 120.312C209.985 120.031 210.454 119.641 210.788 119.141C211.121 118.641 211.288 118.073 211.288 117.438C211.288 116.792 211.116 116.208 210.772 115.688C210.439 115.167 209.97 114.76 209.366 114.469C208.761 114.177 208.079 114.031 207.319 114.031C206.558 114.031 205.871 114.177 205.256 114.469C204.652 114.76 204.178 115.167 203.834 115.688C203.501 116.208 203.34 116.792 203.35 117.438C203.34 118.073 203.496 118.641 203.819 119.141C204.152 119.641 204.621 120.031 205.225 120.312C205.829 120.583 206.527 120.719 207.319 120.719ZM207.319 110.719C207.975 110.719 208.564 110.589 209.084 110.328C209.616 110.057 210.027 109.688 210.319 109.219C210.61 108.75 210.756 108.219 210.756 107.625C210.756 107.052 210.61 106.536 210.319 106.078C210.027 105.62 209.621 105.266 209.1 105.016C208.579 104.755 207.985 104.625 207.319 104.625C206.652 104.625 206.058 104.75 205.538 105C205.027 105.25 204.626 105.604 204.334 106.062C204.053 106.521 203.913 107.042 203.913 107.625C203.913 108.219 204.058 108.75 204.35 109.219C204.642 109.688 205.043 110.057 205.553 110.328C206.074 110.589 206.663 110.719 207.319 110.719ZM226.169 99.2812C227.596 99.2812 228.888 99.5573 230.044 100.109C231.2 100.661 232.106 101.432 232.763 102.422C233.429 103.411 233.763 104.531 233.763 105.781C233.763 107.01 233.429 108.12 232.763 109.109C232.106 110.089 231.2 110.859 230.044 111.422C228.888 111.974 227.596 112.25 226.169 112.25C224.721 112.25 223.414 111.974 222.247 111.422C221.08 110.859 220.164 110.089 219.497 109.109C218.841 108.12 218.513 107.01 218.513 105.781C218.513 104.531 218.841 103.411 219.497 102.422C220.164 101.432 221.075 100.661 222.231 100.109C223.398 99.5573 224.71 99.2812 226.169 99.2812ZM226.169 102.531C225.44 102.531 224.783 102.661 224.2 102.922C223.627 103.172 223.179 103.547 222.856 104.047C222.533 104.536 222.377 105.115 222.388 105.781C222.377 106.448 222.533 107.026 222.856 107.516C223.179 108.005 223.627 108.38 224.2 108.641C224.783 108.901 225.44 109.031 226.169 109.031C226.888 109.031 227.528 108.901 228.091 108.641C228.664 108.38 229.111 108.005 229.434 107.516C229.757 107.026 229.919 106.448 229.919 105.781C229.919 105.104 229.757 104.521 229.434 104.031C229.111 103.542 228.664 103.172 228.091 102.922C227.528 102.661 226.888 102.531 226.169 102.531ZM241.888 112.688H237.888V98.4375H241.888V112.688ZM241.888 121.594H226.763V123.438H242.669V126.562H222.856V118.688H237.919V116.938H222.794V113.875H241.888V121.594Z" fill="#3B82F6"/>
</g>
<defs>
<filter id="filter0_d_912_16880" x="0" y="0" width="440" height="220" filterUnits="userSpaceOnUse" color-interpolation-filters="sRGB">
<feFlood flood-opacity="0" result="BackgroundImageFix"/>
<feColorMatrix in="SourceAlpha" type="matrix" values="0 0 0 0 0 0 0 0 0 0 0 0 0 0 0 0 0 0 127 0" result="hardAlpha"/>
<feOffset dx="9" dy="13"/>
<feGaussianBlur stdDeviation="25"/>
<feComposite in2="hardAlpha" operator="out"/>
<feColorMatrix type="matrix" values="0 0 0 0 0.0941176 0 0 0 0 0.164706 0 0 0 0 0.247059 0 0 0 0.2 0"/>
<feBlend mode="normal" in2="BackgroundImageFix" result="effect1_dropShadow_912_16880"/>
<feBlend mode="normal" in="SourceGraphic" in2="effect1_dropShadow_912_16880" result="shape"/>
</filter>
</defs>
</svg>
