<svg width="100%" height="100%" viewBox="0 0 626 344" fill="none" xmlns="http://www.w3.org/2000/svg">
<g filter="url(#filter0_d_912_16700)">
<g clip-path="url(#clip0_912_16700)">
<rect x="19" y="73" width="588" height="250" rx="12" fill="white"/>
<path d="M108.168 116.564H106.287V108.531H104.529V115.756H102.701V100.973H104.529V106.932H106.287V100.674H108.168V116.564ZM97.1816 110.887C98.7871 110.857 100.299 110.699 101.717 110.412L101.91 112.117C100.902 112.299 99.9414 112.428 99.0273 112.504C98.1133 112.574 97.1934 112.609 96.2676 112.609H95.2129V102.502H97.1816V110.887ZM120.385 103.908C120.385 104.576 120.534 105.221 120.833 105.842C121.132 106.457 121.574 107.008 122.16 107.494C122.746 107.975 123.449 108.344 124.27 108.602L123.268 110.131C122.383 109.844 121.615 109.419 120.965 108.856C120.314 108.288 119.805 107.62 119.436 106.853C119.066 107.69 118.545 108.42 117.871 109.041C117.203 109.662 116.406 110.131 115.48 110.447L114.479 108.9C115.305 108.625 116.011 108.232 116.597 107.723C117.188 107.207 117.637 106.621 117.941 105.965C118.252 105.303 118.41 104.617 118.416 103.908V103.451H114.988V101.887H123.725V103.451H120.385V103.908ZM127.592 112.223H125.623V100.691H127.592V112.223ZM128.031 116.248H117.08V111.168H119.049V114.666H128.031V116.248ZM143.5 110.658H141.637V106.334H140.09V110.131H138.262V100.99H140.09V104.752H141.637V100.674H143.5V110.658ZM137.734 103.926H129.824V102.396H132.83V100.814H134.764V102.396H137.734V103.926ZM133.797 104.576C134.465 104.576 135.06 104.69 135.581 104.919C136.103 105.147 136.51 105.47 136.803 105.886C137.102 106.296 137.254 106.773 137.26 107.318C137.254 107.863 137.102 108.344 136.803 108.76C136.51 109.17 136.103 109.489 135.581 109.718C135.06 109.946 134.465 110.061 133.797 110.061C133.141 110.061 132.552 109.946 132.03 109.718C131.509 109.489 131.102 109.167 130.809 108.751C130.521 108.335 130.381 107.857 130.387 107.318C130.381 106.779 130.521 106.302 130.809 105.886C131.102 105.47 131.509 105.147 132.03 104.919C132.552 104.69 133.141 104.576 133.797 104.576ZM133.797 105.982C133.299 105.982 132.895 106.103 132.584 106.343C132.279 106.583 132.127 106.908 132.127 107.318C132.127 107.729 132.279 108.054 132.584 108.294C132.889 108.534 133.293 108.654 133.797 108.654C134.301 108.654 134.708 108.534 135.019 108.294C135.329 108.054 135.484 107.729 135.484 107.318C135.484 106.908 135.329 106.583 135.019 106.343C134.708 106.103 134.301 105.982 133.797 105.982ZM138.139 110.852C139.27 110.852 140.242 110.963 141.057 111.186C141.871 111.408 142.495 111.736 142.929 112.17C143.362 112.598 143.582 113.113 143.588 113.717C143.582 114.309 143.359 114.815 142.92 115.237C142.486 115.665 141.862 115.99 141.048 116.213C140.233 116.436 139.264 116.547 138.139 116.547C137.014 116.547 136.041 116.436 135.221 116.213C134.406 115.99 133.779 115.665 133.34 115.237C132.906 114.815 132.689 114.309 132.689 113.717C132.689 113.113 132.906 112.598 133.34 112.17C133.779 111.736 134.406 111.408 135.221 111.186C136.035 110.963 137.008 110.852 138.139 110.852ZM138.139 112.346C136.996 112.334 136.126 112.445 135.528 112.68C134.937 112.908 134.641 113.254 134.641 113.717C134.641 114.156 134.939 114.49 135.537 114.719C136.135 114.941 137.002 115.053 138.139 115.053C139.27 115.053 140.131 114.941 140.723 114.719C141.32 114.49 141.619 114.156 141.619 113.717C141.619 113.254 141.32 112.908 140.723 112.68C140.131 112.445 139.27 112.334 138.139 112.346ZM151.094 103.205C151.094 103.879 151.237 104.523 151.524 105.139C151.812 105.754 152.236 106.299 152.799 106.773C153.361 107.248 154.041 107.611 154.838 107.863L153.783 109.393C152.945 109.105 152.219 108.687 151.604 108.136C150.988 107.585 150.505 106.935 150.153 106.185C149.796 107.046 149.295 107.79 148.65 108.417C148.012 109.044 147.244 109.516 146.348 109.832L145.293 108.303C146.125 108.01 146.828 107.597 147.402 107.063C147.977 106.53 148.407 105.918 148.694 105.227C148.987 104.535 149.137 103.803 149.143 103.029V101.518H151.094V103.205ZM158.002 104.541H160.217V106.158H158.002V110.184H156.051V100.674H158.002V104.541ZM152.834 110.535C153.924 110.529 154.867 110.646 155.664 110.887C156.461 111.121 157.073 111.464 157.501 111.915C157.935 112.366 158.154 112.902 158.16 113.523C158.154 114.156 157.938 114.698 157.51 115.149C157.082 115.606 156.467 115.952 155.664 116.187C154.867 116.427 153.924 116.547 152.834 116.547C151.727 116.547 150.769 116.427 149.96 116.187C149.157 115.952 148.539 115.606 148.105 115.149C147.672 114.698 147.455 114.156 147.455 113.523C147.455 112.902 147.672 112.366 148.105 111.915C148.539 111.464 149.16 111.121 149.969 110.887C150.777 110.646 151.732 110.529 152.834 110.535ZM152.834 112.064C151.744 112.064 150.9 112.193 150.303 112.451C149.705 112.703 149.406 113.061 149.406 113.523C149.406 114.01 149.702 114.379 150.294 114.631C150.886 114.877 151.732 115 152.834 115C153.936 115 154.776 114.877 155.356 114.631C155.937 114.379 156.227 114.01 156.227 113.523C156.227 113.055 155.934 112.694 155.348 112.442C154.762 112.19 153.924 112.064 152.834 112.064ZM173.611 105.297H175.756V106.896H173.611V111.432H171.66V100.691H173.611V105.297ZM168.355 111.572C169.48 111.572 170.441 111.669 171.238 111.862C172.035 112.056 172.642 112.343 173.058 112.724C173.479 113.099 173.693 113.553 173.699 114.086C173.693 114.889 173.225 115.501 172.293 115.923C171.367 116.351 170.055 116.564 168.355 116.564C166.633 116.564 165.309 116.351 164.383 115.923C163.457 115.501 162.994 114.889 162.994 114.086C162.994 113.547 163.202 113.09 163.618 112.715C164.034 112.34 164.644 112.056 165.446 111.862C166.249 111.669 167.219 111.572 168.355 111.572ZM168.355 113.014C166.082 112.996 164.945 113.354 164.945 114.086C164.945 114.426 165.229 114.684 165.798 114.859C166.372 115.035 167.225 115.123 168.355 115.123C169.469 115.123 170.307 115.035 170.869 114.859C171.432 114.684 171.719 114.426 171.73 114.086C171.713 113.354 170.588 112.996 168.355 113.014ZM160.885 109.393C162.602 109.393 163.938 109.378 164.893 109.349V108.303C163.996 108.203 163.29 107.96 162.774 107.573C162.265 107.181 162.01 106.686 162.01 106.088C162.01 105.625 162.165 105.224 162.476 104.884C162.792 104.538 163.237 104.274 163.812 104.093C164.392 103.911 165.068 103.82 165.842 103.82C166.615 103.82 167.289 103.911 167.863 104.093C168.443 104.274 168.889 104.538 169.199 104.884C169.516 105.224 169.674 105.625 169.674 106.088C169.674 106.68 169.422 107.169 168.918 107.556C168.42 107.942 167.729 108.188 166.844 108.294V109.278C168.314 109.202 169.645 109.082 170.834 108.918L170.992 110.271C169.48 110.529 167.913 110.699 166.29 110.781C164.673 110.863 162.941 110.904 161.096 110.904L160.885 109.393ZM170.412 103.346H161.289V101.904H164.893V100.551H166.844V101.904H170.412V103.346ZM165.842 105.121C165.227 105.121 164.743 105.209 164.392 105.385C164.046 105.555 163.879 105.789 163.891 106.088C163.885 106.404 164.052 106.647 164.392 106.817C164.737 106.987 165.221 107.072 165.842 107.072C166.463 107.072 166.946 106.987 167.292 106.817C167.638 106.647 167.811 106.404 167.811 106.088C167.811 105.789 167.635 105.555 167.283 105.385C166.938 105.209 166.457 105.121 165.842 105.121Z" fill="#1E293B"/>
<rect x="43" y="89" width="40" height="40" rx="15" fill="#0F172A"/>
<path d="M63 100C65.0809 100 67.0894 100.763 68.6451 102.145C70.2008 103.527 71.1955 105.432 71.4408 107.498C71.686 109.565 71.1648 111.649 69.9758 113.357C68.7868 115.065 67.0127 116.277 64.9897 116.764C62.9666 117.251 60.8352 116.979 58.9992 116C57.1633 115.02 55.7504 113.401 55.0283 111.45C54.3061 109.498 54.3249 107.35 55.0811 105.411C55.8373 103.472 57.2784 101.879 59.1312 100.931L63 108.5L63 100Z" fill="white"/>
</g>
<rect x="43" y="143" width="18" height="18" rx="4" fill="#EBE9FF"/>
<rect x="67" y="143" width="18" height="18" rx="4" fill="#EBE9FF"/>
<rect x="91" y="143" width="18" height="18" rx="4" fill="#7E73FF"/>
<rect x="115" y="143" width="18" height="18" rx="4" fill="#EBE9FF"/>
<rect x="139" y="143" width="18" height="18" rx="4" fill="#3C30C0"/>
<rect x="163" y="143" width="18" height="18" rx="4" fill="#2E24A1"/>
<rect x="187" y="143" width="18" height="18" rx="4" fill="#7E73FF"/>
<rect x="211" y="143" width="18" height="18" rx="4" fill="#EBE9FF"/>
<rect x="235" y="143" width="18" height="18" rx="4" fill="#EBE9FF"/>
<rect x="259" y="143" width="18" height="18" rx="4" fill="#EBE9FF"/>
<rect x="283" y="143" width="18" height="18" rx="4" fill="#7E73FF"/>
<rect x="307" y="143" width="18" height="18" rx="4" fill="#5A4CFF"/>
<rect x="331" y="143" width="18" height="18" rx="4" fill="#EBE9FF"/>
<rect x="355" y="143" width="18" height="18" rx="4" fill="#EBE9FF"/>
<rect x="379" y="143" width="18" height="18" rx="4" fill="#7E73FF"/>
<rect x="403" y="143" width="18" height="18" rx="4" fill="#5A4CFF"/>
<rect x="427" y="143" width="18" height="18" rx="4" fill="#5A4CFF"/>
<rect x="451" y="143" width="18" height="18" rx="4" fill="#EBE9FF"/>
<rect x="475" y="143" width="18" height="18" rx="4" fill="#5A4CFF"/>
<rect x="499" y="143" width="18" height="18" rx="4" fill="#EBE9FF"/>
<rect x="523" y="143" width="18" height="18" rx="4" fill="#5A4CFF"/>
<rect x="547" y="143" width="18" height="18" rx="4" fill="#EBE9FF"/>
<rect x="571" y="143" width="18" height="18" rx="4" fill="#7E73FF"/>
<rect x="43" y="166" width="18" height="18" rx="4" fill="#5A4CFF"/>
<rect x="67" y="166" width="18" height="18" rx="4" fill="#5A4CFF"/>
<rect x="91" y="166" width="18" height="18" rx="4" fill="#7E73FF"/>
<rect x="115" y="166" width="18" height="18" rx="4" fill="#7E73FF"/>
<rect x="139" y="166" width="18" height="18" rx="4" fill="#7E73FF"/>
<rect x="163" y="166" width="18" height="18" rx="4" fill="#7E73FF"/>
<rect x="187" y="166" width="18" height="18" rx="4" fill="#EBE9FF"/>
<rect x="211" y="166" width="18" height="18" rx="4" fill="#5A4CFF"/>
<rect x="235" y="166" width="18" height="18" rx="4" fill="#EBE9FF"/>
<rect x="259" y="166" width="18" height="18" rx="4" fill="#EBE9FF"/>
<rect x="283" y="166" width="18" height="18" rx="4" fill="#7E73FF"/>
<rect x="307" y="166" width="18" height="18" rx="4" fill="#7E73FF"/>
<rect x="331" y="166" width="18" height="18" rx="4" fill="#7E73FF"/>
<rect x="355" y="166" width="18" height="18" rx="4" fill="#EBE9FF"/>
<rect x="379" y="166" width="18" height="18" rx="4" fill="#7E73FF"/>
<rect x="403" y="166" width="18" height="18" rx="4" fill="#5A4CFF"/>
<rect x="427" y="166" width="18" height="18" rx="4" fill="#EBE9FF"/>
<rect x="451" y="166" width="18" height="18" rx="4" fill="#EBE9FF"/>
<rect x="475" y="166" width="18" height="18" rx="4" fill="#7E73FF"/>
<rect x="499" y="166" width="18" height="18" rx="4" fill="#7E73FF"/>
<rect x="523" y="166" width="18" height="18" rx="4" fill="#EBE9FF"/>
<rect x="547" y="166" width="18" height="18" rx="4" fill="#7E73FF"/>
<rect x="571" y="166" width="18" height="18" rx="4" fill="#7E73FF"/>
<rect x="43" y="189" width="18" height="18" rx="4" fill="#EBE9FF"/>
<rect x="67" y="189" width="18" height="18" rx="4" fill="#5A4CFF"/>
<rect x="91" y="189" width="18" height="18" rx="4" fill="#7E73FF"/>
<rect x="115" y="189" width="18" height="18" rx="4" fill="#EBE9FF"/>
<rect x="139" y="189" width="18" height="18" rx="4" fill="#7E73FF"/>
<rect x="163" y="189" width="18" height="18" rx="4" fill="#7E73FF"/>
<rect x="187" y="189" width="18" height="18" rx="4" fill="#EBE9FF"/>
<rect x="211" y="189" width="18" height="18" rx="4" fill="#EBE9FF"/>
<rect x="235" y="189" width="18" height="18" rx="4" fill="#5A4CFF"/>
<rect x="259" y="189" width="18" height="18" rx="4" fill="#EBE9FF"/>
<rect x="283" y="189" width="18" height="18" rx="4" fill="#EBE9FF"/>
<rect x="307" y="189" width="18" height="18" rx="4" fill="#EBE9FF"/>
<rect x="331" y="189" width="18" height="18" rx="4" fill="#7E73FF"/>
<rect x="355" y="189" width="18" height="18" rx="4" fill="#7E73FF"/>
<rect x="379" y="189" width="18" height="18" rx="4" fill="#5A4CFF"/>
<rect x="403" y="189" width="18" height="18" rx="4" fill="#7E73FF"/>
<rect x="427" y="189" width="18" height="18" rx="4" fill="#7E73FF"/>
<rect x="451" y="189" width="18" height="18" rx="4" fill="#EBE9FF"/>
<rect x="475" y="189" width="18" height="18" rx="4" fill="#7E73FF"/>
<rect x="499" y="189" width="18" height="18" rx="4" fill="#7E73FF"/>
<rect x="523" y="189" width="18" height="18" rx="4" fill="#EBE9FF"/>
<rect x="547" y="189" width="18" height="18" rx="4" fill="#7E73FF"/>
<rect x="571" y="189" width="18" height="18" rx="4" fill="#EBE9FF"/>
<rect x="43" y="212" width="18" height="18" rx="4" fill="#5A4CFF"/>
<rect x="67" y="212" width="18" height="18" rx="4" fill="#5A4CFF"/>
<rect x="91" y="212" width="18" height="18" rx="4" fill="#EBE9FF"/>
<rect x="115" y="212" width="18" height="18" rx="4" fill="#7E73FF"/>
<rect x="139" y="212" width="18" height="18" rx="4" fill="#EBE9FF"/>
<rect x="163" y="212" width="18" height="18" rx="4" fill="#EBE9FF"/>
<rect x="187" y="212" width="18" height="18" rx="4" fill="#5A4CFF"/>
<rect x="211" y="212" width="18" height="18" rx="4" fill="#5A4CFF"/>
<rect x="235" y="212" width="18" height="18" rx="4" fill="#EBE9FF"/>
<rect x="259" y="212" width="18" height="18" rx="4" fill="#5A4CFF"/>
<rect x="283" y="212" width="18" height="18" rx="4" fill="#EBE9FF"/>
<rect x="307" y="212" width="18" height="18" rx="4" fill="#7E73FF"/>
<rect x="331" y="212" width="18" height="18" rx="4" fill="#EBE9FF"/>
<rect x="355" y="212" width="18" height="18" rx="4" fill="#EBE9FF"/>
<rect x="379" y="212" width="18" height="18" rx="4" fill="#EBE9FF"/>
<rect x="403" y="212" width="18" height="18" rx="4" fill="#EBE9FF"/>
<rect x="427" y="212" width="18" height="18" rx="4" fill="#EBE9FF"/>
<rect x="451" y="212" width="18" height="18" rx="4" fill="#EBE9FF"/>
<rect x="475" y="212" width="18" height="18" rx="4" fill="#EBE9FF"/>
<rect x="499" y="212" width="18" height="18" rx="4" fill="#EBE9FF"/>
<rect x="523" y="212" width="18" height="18" rx="4" fill="#7E73FF"/>
<rect x="547" y="212" width="18" height="18" rx="4" fill="#7E73FF"/>
<rect x="571" y="212" width="18" height="18" rx="4" fill="#7E73FF"/>
<rect x="43" y="235" width="18" height="18" rx="4" fill="#5A4CFF"/>
<rect x="67" y="235" width="18" height="18" rx="4" fill="#EBE9FF"/>
<rect x="91" y="235" width="18" height="18" rx="4" fill="#EBE9FF"/>
<rect x="115" y="235" width="18" height="18" rx="4" fill="#5A4CFF"/>
<rect x="139" y="235" width="18" height="18" rx="4" fill="#EBE9FF"/>
<rect x="163" y="235" width="18" height="18" rx="4" fill="#EBE9FF"/>
<rect x="187" y="235" width="18" height="18" rx="4" fill="#EBE9FF"/>
<rect x="211" y="235" width="18" height="18" rx="4" fill="#EBE9FF"/>
<rect x="235" y="235" width="18" height="18" rx="4" fill="#EBE9FF"/>
<rect x="259" y="235" width="18" height="18" rx="4" fill="#5A4CFF"/>
<rect x="283" y="235" width="18" height="18" rx="4" fill="#7E73FF"/>
<rect x="307" y="235" width="18" height="18" rx="4" fill="#7E73FF"/>
<rect x="331" y="235" width="18" height="18" rx="4" fill="#EBE9FF"/>
<rect x="355" y="235" width="18" height="18" rx="4" fill="#5A4CFF"/>
<rect x="379" y="235" width="18" height="18" rx="4" fill="#5A4CFF"/>
<rect x="403" y="235" width="18" height="18" rx="4" fill="#7E73FF"/>
<rect x="427" y="235" width="18" height="18" rx="4" fill="#7E73FF"/>
<rect x="451" y="235" width="18" height="18" rx="4" fill="#7E73FF"/>
<rect x="475" y="235" width="18" height="18" rx="4" fill="#EBE9FF"/>
<rect x="499" y="235" width="18" height="18" rx="4" fill="#7E73FF"/>
<rect x="523" y="235" width="18" height="18" rx="4" fill="#7E73FF"/>
<rect x="547" y="235" width="18" height="18" rx="4" fill="#7E73FF"/>
<rect x="571" y="235" width="18" height="18" rx="4" fill="#7E73FF"/>
<rect x="43" y="258" width="18" height="18" rx="4" fill="#7E73FF"/>
<rect x="67" y="258" width="18" height="18" rx="4" fill="#EBE9FF"/>
<rect x="91" y="258" width="18" height="18" rx="4" fill="#7E73FF"/>
<rect x="115" y="258" width="18" height="18" rx="4" fill="#7E73FF"/>
<rect x="139" y="258" width="18" height="18" rx="4" fill="#5A4CFF"/>
<rect x="163" y="258" width="18" height="18" rx="4" fill="#5A4CFF"/>
<rect x="187" y="258" width="18" height="18" rx="4" fill="#3C30C0"/>
<rect x="211" y="258" width="18" height="18" rx="4" fill="#EBE9FF"/>
<rect x="235" y="258" width="18" height="18" rx="4" fill="#5A4CFF"/>
<rect x="259" y="258" width="18" height="18" rx="4" fill="#5A4CFF"/>
<rect x="283" y="258" width="18" height="18" rx="4" fill="#7E73FF"/>
<rect x="307" y="258" width="18" height="18" rx="4" fill="#5A4CFF"/>
<rect x="331" y="258" width="18" height="18" rx="4" fill="#EBE9FF"/>
<rect x="355" y="258" width="18" height="18" rx="4" fill="#7E73FF"/>
<rect x="379" y="258" width="18" height="18" rx="4" fill="#EBE9FF"/>
<rect x="403" y="258" width="18" height="18" rx="4" fill="#5A4CFF"/>
<rect x="427" y="258" width="18" height="18" rx="4" fill="#EBE9FF"/>
<rect x="451" y="258" width="18" height="18" rx="4" fill="#7E73FF"/>
<rect x="475" y="258" width="18" height="18" rx="4" fill="#5A4CFF"/>
<rect x="499" y="258" width="18" height="18" rx="4" fill="#7E73FF"/>
<rect x="523" y="258" width="18" height="18" rx="4" fill="#7E73FF"/>
<rect x="547" y="258" width="18" height="18" rx="4" fill="#7E73FF"/>
<rect x="571" y="258" width="18" height="18" rx="4" fill="#EBE9FF"/>
<rect x="43" y="281" width="18" height="18" rx="4" fill="#EBE9FF"/>
<rect x="67" y="281" width="18" height="18" rx="4" fill="#7E73FF"/>
<rect x="91" y="281" width="18" height="18" rx="4" fill="#EBE9FF"/>
<rect x="115" y="281" width="18" height="18" rx="4" fill="#7E73FF"/>
<rect x="139" y="281" width="18" height="18" rx="4" fill="#EBE9FF"/>
<rect x="163" y="281" width="18" height="18" rx="4" fill="#7E73FF"/>
<rect x="187" y="281" width="18" height="18" rx="4" fill="#3C30C0"/>
<rect x="211" y="281" width="18" height="18" rx="4" fill="#EBE9FF"/>
<rect x="235" y="281" width="18" height="18" rx="4" fill="#7E73FF"/>
<rect x="259" y="281" width="18" height="18" rx="4" fill="#5A4CFF"/>
<rect x="283" y="281" width="18" height="18" rx="4" fill="#7E73FF"/>
<rect x="307" y="281" width="18" height="18" rx="4" fill="#5A4CFF"/>
<rect x="331" y="281" width="18" height="18" rx="4" fill="#EBE9FF"/>
<rect x="355" y="281" width="18" height="18" rx="4" fill="#5A4CFF"/>
<rect x="379" y="281" width="18" height="18" rx="4" fill="#3C30C0"/>
<rect x="403" y="281" width="18" height="18" rx="4" fill="#EBE9FF"/>
<rect x="427" y="281" width="18" height="18" rx="4" fill="#EBE9FF"/>
<rect x="451" y="281" width="18" height="18" rx="4" fill="#5A4CFF"/>
<rect x="475" y="281" width="18" height="18" rx="4" fill="#7E73FF"/>
<rect x="499" y="281" width="18" height="18" rx="4" fill="#7E73FF"/>
<rect x="523" y="281" width="18" height="18" rx="4" fill="#EBE9FF"/>
<rect x="547" y="281" width="18" height="18" rx="4" fill="#EBE9FF"/>
<rect x="571" y="281" width="18" height="18" rx="4" fill="#7E73FF"/>
</g>
<path style="mix-blend-mode:multiply" opacity="0.2" fill-rule="evenodd" clip-rule="evenodd" d="M517.259 6.62252C519.89 5.13268 523.11 5.13268 525.742 6.62252L560.001 26.0197C562.7 27.5478 564.368 30.4095 564.368 33.511V72.0161C564.368 75.1176 562.7 77.9794 560.001 79.5075L525.742 98.9046C523.11 100.394 519.89 100.394 517.259 98.9046L482.999 79.5075C480.3 77.9794 478.632 75.1176 478.632 72.0161V33.511C478.632 30.4095 480.3 27.5478 482.999 26.0197L517.259 6.62252Z" fill="#0274F3"/>
<path fill-rule="evenodd" clip-rule="evenodd" d="M517.259 2.40143C519.89 0.911589 523.11 0.911587 525.741 2.40143L560.001 21.7986C562.7 23.3267 564.368 26.1884 564.368 29.2899V67.795C564.368 70.8965 562.7 73.7583 560.001 75.2864L525.741 94.6835C523.11 96.1733 519.89 96.1733 517.259 94.6835L482.999 75.2864C480.3 73.7583 478.632 70.8965 478.632 67.795V29.2899C478.632 26.1884 480.3 23.3267 482.999 21.7986L517.259 2.40143Z" fill="url(#paint0_linear_912_16700)" stroke="#FFF04D" stroke-opacity="0.4" stroke-width="2.15217"/>
<mask id="mask0_912_16700" style="mask-type:luminance" maskUnits="userSpaceOnUse" x="477" y="0" width="89" height="97">
<path fill-rule="evenodd" clip-rule="evenodd" d="M517.259 2.40143C519.89 0.911589 523.11 0.911587 525.741 2.40143L560.001 21.7986C562.7 23.3267 564.368 26.1884 564.368 29.2899V67.795C564.368 70.8965 562.7 73.7583 560.001 75.2864L525.741 94.6835C523.11 96.1733 519.89 96.1733 517.259 94.6835L482.999 75.2864C480.3 73.7583 478.632 70.8965 478.632 67.795V29.2899C478.632 26.1884 480.3 23.3267 482.999 21.7986L517.259 2.40143Z" fill="white" stroke="white" stroke-width="2.15217"/>
</mask>
<g mask="url(#mask0_912_16700)">
<path d="M525.266 3.35074C522.936 2.0312 520.064 2.0312 517.734 3.35074L483.474 22.7479C481.144 24.0674 479.708 26.506 479.708 29.1451V67.9394C479.708 70.5785 481.144 73.0171 483.474 74.3367L517.734 93.7338C520.064 95.0533 522.936 95.0533 525.266 93.7338L559.526 74.3367C561.857 73.0171 563.292 70.5785 563.292 67.9394V29.1451C563.292 26.506 561.857 24.0674 559.526 22.7479L525.266 3.35074Z" stroke="#F9B607" stroke-width="2.15217" stroke-linecap="round"/>
<path d="M563.292 67.9394V29.1451C563.292 26.506 561.857 24.0674 559.526 22.7479L525.266 3.35074C522.936 2.0312 520.064 2.0312 517.734 3.35074L483.474 22.7479C481.144 24.0674 479.708 26.506 479.708 29.1451V67.9394" stroke="#FBC618" stroke-width="2.15217" stroke-linecap="round"/>
<path opacity="0.6" d="M563.292 29.1451C563.292 26.506 561.857 24.0674 559.526 22.7479L525.266 3.35074C522.936 2.0312 520.064 2.0312 517.734 3.35074L483.474 22.7479C481.144 24.0674 479.708 26.506 479.708 29.1451" stroke="#FFF24E" stroke-width="2.15217" stroke-linecap="round"/>
<path opacity="0.4" d="M525.266 3.35074C522.936 2.0312 520.064 2.0312 517.734 3.35074C517.734 3.35074 506.314 9.81646 500.604 13.0493" stroke="white" stroke-width="2.15217" stroke-linecap="round"/>
<path d="M517.734 3.35107C517.734 3.35107 511.69 6.77299 509.169 8.20036" stroke="white" stroke-width="2.15217" stroke-linecap="round"/>
<path opacity="0.4" d="M525.266 93.7338C529.295 91.4525 532.15 89.8361 533.831 88.8845" stroke="white" stroke-width="2.15217" stroke-linecap="round"/>
</g>
<g filter="url(#filter1_d_912_16700)">
<path fill-rule="evenodd" clip-rule="evenodd" d="M519.379 15.9746C520.695 15.2297 522.305 15.2297 523.62 15.9746L549.138 30.4219C550.487 31.186 551.321 32.6168 551.321 34.1676V62.9176C551.321 64.4684 550.487 65.8992 549.138 66.6633L523.62 81.1106C522.305 81.8555 520.695 81.8555 519.379 81.1106L493.862 66.6633C492.512 65.8992 491.678 64.4684 491.678 62.9176V34.1676C491.678 32.6168 492.512 31.186 493.862 30.4219L519.379 15.9746Z" fill="url(#paint1_linear_912_16700)"/>
<path d="M524.151 15.0382C522.506 14.1071 520.493 14.1071 518.849 15.0382L493.332 29.4855C491.645 30.4406 490.602 32.2292 490.602 34.1676V62.9176C490.602 64.856 491.645 66.6446 493.332 67.5997L518.849 82.047C520.493 82.9781 522.506 82.9781 524.151 82.047L549.668 67.5997C551.355 66.6446 552.397 64.856 552.397 62.9176V34.1676C552.397 32.2292 551.355 30.4406 549.668 29.4855L524.151 15.0382Z" stroke="#F5900D" stroke-opacity="0.1" stroke-width="2.15217" style="mix-blend-mode:multiply"/>
</g>
<mask id="mask1_912_16700" style="mask-type:luminance" maskUnits="userSpaceOnUse" x="491" y="15" width="61" height="67">
<path fill-rule="evenodd" clip-rule="evenodd" d="M519.379 15.9746C520.695 15.2297 522.305 15.2297 523.62 15.9746L549.138 30.4219C550.487 31.186 551.321 32.6168 551.321 34.1676V62.9176C551.321 64.4684 550.487 65.8992 549.138 66.6633L523.62 81.1106C522.305 81.8555 520.695 81.8555 519.379 81.1106L493.862 66.6633C492.512 65.8992 491.678 64.4684 491.678 62.9176V34.1676C491.678 32.6168 492.512 31.186 493.862 30.4219L519.379 15.9746Z" fill="white"/>
</mask>
<g mask="url(#mask1_912_16700)">
<g style="mix-blend-mode:multiply" opacity="0.3">
<path fill-rule="evenodd" clip-rule="evenodd" d="M521.5 48.5426L530.108 14.7739H512.891L521.5 48.5426ZM521.5 48.5426L521.5 48.5426L503.238 18.6951L491.063 30.6341L521.5 48.5426L487.065 40.1004V56.9848L521.5 48.5426L521.5 48.5428L491.064 66.4512L503.238 78.3902L521.5 48.543L521.5 48.5432L512.891 82.3113H530.109L521.501 48.544L539.762 78.3902L551.936 66.4512L521.5 48.5429L521.5 48.5428L555.935 56.9848V40.1005L521.5 48.5426ZM521.5 48.5426L539.762 18.695L551.936 30.6341L521.5 48.5426ZM521.5 48.5427L521.5 48.5426L521.5 48.5426L521.5 48.5426L521.5 48.5427ZM521.5 48.5427L521.5 48.5427L521.5 48.5427L521.5 48.5427ZM521.5 48.5427L521.5 48.5428L521.5 48.5429L521.5 48.5427L521.5 48.5427Z" fill="#FFD640"/>
</g>
<path opacity="0.4" d="M548.631 31.3536L523.114 16.9063C522.115 16.3408 520.885 16.3408 519.886 16.9063C516.885 18.6054 514.758 19.8094 513.506 20.5181C510.901 21.9931 508.775 23.1971 507.127 24.13C504.292 25.7352 500.039 28.1431 494.369 31.3536" stroke="white" stroke-width="2.15217" stroke-linecap="round"/>
<path d="M519.886 16.9062C516.885 18.6054 514.758 19.8093 513.506 20.5181" stroke="white" stroke-width="2.15217" stroke-linecap="round"/>
</g>
<g filter="url(#filter2_d_912_16700)">
<path d="M516.012 41.1344L521.5 33.281L526.989 41.1344L536.301 43.8265L530.381 51.3722L530.648 60.8894L521.5 57.6994L512.353 60.8894L512.62 51.3722L506.699 43.8265L516.012 41.1344Z" fill="white"/>
<path d="M523.264 32.0482C522.862 31.472 522.203 31.1288 521.5 31.1288C520.797 31.1288 520.139 31.472 519.736 32.0482L514.683 39.2781L506.102 41.7589C505.414 41.9576 504.871 42.4848 504.651 43.1657C504.431 43.8466 504.564 44.5921 505.006 45.155L510.446 52.089L510.201 60.829C510.181 61.5364 510.511 62.2084 511.082 62.6263C511.653 63.0442 512.393 63.1545 513.061 62.9215L521.5 59.9787L529.939 62.9215C530.607 63.1545 531.347 63.0442 531.918 62.6263C532.49 62.2084 532.819 61.5364 532.799 60.829L532.554 52.089L537.994 45.155C538.436 44.5921 538.569 43.8466 538.349 43.1657C538.13 42.4848 537.586 41.9576 536.899 41.7589L528.317 39.2781L523.264 32.0482Z" stroke="white" stroke-width="4.30435" stroke-linejoin="round"/>
</g>
<g filter="url(#filter3_i_912_16700)">
<path d="M516.012 41.1344L521.5 33.281L526.989 41.1344L536.301 43.8265L530.381 51.3722L530.648 60.8894L521.5 57.6994L512.353 60.8894L512.62 51.3722L506.699 43.8265L516.012 41.1344Z" fill="url(#paint2_linear_912_16700)"/>
</g>
<g filter="url(#filter4_d_912_16700)">
<path fill-rule="evenodd" clip-rule="evenodd" d="M542.83 33.3041L541.712 32.8718C541.029 32.6075 540.693 31.8497 540.963 31.1793C541.098 30.8431 541.369 30.5769 541.712 30.4442L542.83 30.012C544.119 29.5134 545.139 28.5129 545.648 27.2489L546.088 26.1528C546.358 25.4825 547.131 25.1534 547.814 25.4178C548.157 25.5504 548.429 25.8166 548.564 26.1528L549.005 27.2489C549.513 28.5129 550.533 29.5134 551.822 30.012L552.94 30.4442C553.624 30.7086 553.959 31.4664 553.69 32.1368C553.554 32.473 553.283 32.7392 552.94 32.8718L551.822 33.3041C550.533 33.8026 549.513 34.8032 549.005 36.0672L548.564 37.1632C548.294 37.8336 547.522 38.1627 546.838 37.8983C546.495 37.7657 546.224 37.4995 546.088 37.1632L545.648 36.0672C545.139 34.8032 544.119 33.8026 542.83 33.3041Z" fill="white"/>
</g>
<g filter="url(#filter5_d_912_16700)">
<path fill-rule="evenodd" clip-rule="evenodd" d="M499.133 66.524L498.388 66.2358C497.932 66.0596 497.709 65.5544 497.888 65.1075C497.978 64.8833 498.159 64.7059 498.388 64.6175L499.133 64.3293C499.992 63.9969 500.673 63.3299 501.011 62.4872L501.305 61.7565C501.485 61.3096 502 61.0902 502.456 61.2665C502.685 61.3549 502.866 61.5323 502.956 61.7565L503.25 62.4872C503.588 63.3299 504.269 63.9969 505.128 64.3293L505.873 64.6175C506.329 64.7937 506.553 65.2989 506.373 65.7458C506.283 65.97 506.102 66.1474 505.873 66.2358L505.128 66.524C504.269 66.8564 503.588 67.5234 503.25 68.3661L502.956 69.0968C502.776 69.5437 502.261 69.7631 501.805 69.5868C501.576 69.4984 501.396 69.321 501.305 69.0968L501.011 68.3661C500.673 67.5234 499.992 66.8564 499.133 66.524Z" fill="white"/>
</g>
<g filter="url(#filter6_d_912_16700)">
<path fill-rule="evenodd" clip-rule="evenodd" d="M496.327 34.3172L495.955 34.1731C495.727 34.085 495.615 33.8324 495.705 33.6089C495.75 33.4968 495.84 33.4081 495.955 33.3639L496.327 33.2198C496.757 33.0536 497.097 32.7201 497.266 32.2988L497.413 31.9334C497.503 31.71 497.761 31.6003 497.989 31.6884C498.103 31.7326 498.194 31.8213 498.239 31.9334L498.386 32.2988C498.555 32.7201 498.895 33.0536 499.325 33.2198L499.697 33.3639C499.925 33.452 500.037 33.7046 499.947 33.9281C499.902 34.0402 499.812 34.1289 499.697 34.1731L499.325 34.3172C498.895 34.4834 498.555 34.8169 498.386 35.2382L498.239 35.6036C498.149 35.827 497.891 35.9367 497.663 35.8486C497.549 35.8044 497.459 35.7157 497.413 35.6036L497.266 35.2382C497.097 34.8169 496.757 34.4834 496.327 34.3172Z" fill="white"/>
</g>
<g filter="url(#filter7_d_912_16700)">
<path fill-rule="evenodd" clip-rule="evenodd" d="M541.85 69.4156L541.291 69.1995C540.949 69.0673 540.781 68.6884 540.916 68.3532C540.984 68.1851 541.12 68.052 541.291 67.9857L541.85 67.7695C542.494 67.5203 543.004 67.02 543.259 66.388L543.479 65.84C543.614 65.5048 544 65.3402 544.342 65.4724C544.513 65.5387 544.649 65.6718 544.717 65.84L544.937 66.388C545.191 67.02 545.701 67.5203 546.346 67.7695L546.905 67.9857C547.247 68.1179 547.414 68.4967 547.28 68.8319C547.212 69.0001 547.076 69.1332 546.905 69.1995L546.346 69.4156C545.701 69.6649 545.191 70.1651 544.937 70.7971L544.717 71.3452C544.582 71.6804 544.196 71.8449 543.854 71.7127C543.682 71.6464 543.547 71.5133 543.479 71.3452L543.259 70.7971C543.004 70.1651 542.494 69.6649 541.85 69.4156Z" fill="white"/>
</g>
<defs>
<filter id="filter0_d_912_16700" x="0.4" y="56.8" width="625.2" height="287.2" filterUnits="userSpaceOnUse" color-interpolation-filters="sRGB">
<feFlood flood-opacity="0" result="BackgroundImageFix"/>
<feColorMatrix in="SourceAlpha" type="matrix" values="0 0 0 0 0 0 0 0 0 0 0 0 0 0 0 0 0 0 127 0" result="hardAlpha"/>
<feOffset dy="2.4"/>
<feGaussianBlur stdDeviation="9.3"/>
<feComposite in2="hardAlpha" operator="out"/>
<feColorMatrix type="matrix" values="0 0 0 0 0.788032 0 0 0 0 0.820893 0 0 0 0 0.903044 0 0 0 0.5 0"/>
<feBlend mode="normal" in2="BackgroundImageFix" result="effect1_dropShadow_912_16700"/>
<feBlend mode="normal" in="SourceGraphic" in2="effect1_dropShadow_912_16700" result="shape"/>
</filter>
<filter id="filter1_d_912_16700" x="485.222" y="11.1115" width="72.5558" height="79.1666" filterUnits="userSpaceOnUse" color-interpolation-filters="sRGB">
<feFlood flood-opacity="0" result="BackgroundImageFix"/>
<feColorMatrix in="SourceAlpha" type="matrix" values="0 0 0 0 0 0 0 0 0 0 0 0 0 0 0 0 0 0 127 0" result="hardAlpha"/>
<feOffset dy="2.15217"/>
<feGaussianBlur stdDeviation="2.15217"/>
<feColorMatrix type="matrix" values="0 0 0 0 0.927721 0 0 0 0 0.665867 0 0 0 0 0.0535899 0 0 0 0.4 0"/>
<feBlend mode="normal" in2="BackgroundImageFix" result="effect1_dropShadow_912_16700"/>
<feBlend mode="normal" in="SourceGraphic" in2="effect1_dropShadow_912_16700" result="shape"/>
</filter>
<filter id="filter2_d_912_16700" x="498.09" y="26.8244" width="46.8193" height="44.826" filterUnits="userSpaceOnUse" color-interpolation-filters="sRGB">
<feFlood flood-opacity="0" result="BackgroundImageFix"/>
<feColorMatrix in="SourceAlpha" type="matrix" values="0 0 0 0 0 0 0 0 0 0 0 0 0 0 0 0 0 0 127 0" result="hardAlpha"/>
<feOffset dy="2.15217"/>
<feGaussianBlur stdDeviation="2.15217"/>
<feColorMatrix type="matrix" values="0 0 0 0 0.996078 0 0 0 0 0.733333 0 0 0 0 0.105882 0 0 0 1 0"/>
<feBlend mode="normal" in2="BackgroundImageFix" result="effect1_dropShadow_912_16700"/>
<feBlend mode="normal" in="SourceGraphic" in2="effect1_dropShadow_912_16700" result="shape"/>
</filter>
<filter id="filter3_i_912_16700" x="506.699" y="33.281" width="29.6018" height="29.7606" filterUnits="userSpaceOnUse" color-interpolation-filters="sRGB">
<feFlood flood-opacity="0" result="BackgroundImageFix"/>
<feBlend mode="normal" in="SourceGraphic" in2="BackgroundImageFix" result="shape"/>
<feColorMatrix in="SourceAlpha" type="matrix" values="0 0 0 0 0 0 0 0 0 0 0 0 0 0 0 0 0 0 127 0" result="hardAlpha"/>
<feOffset dy="2.15217"/>
<feGaussianBlur stdDeviation="1.07609"/>
<feComposite in2="hardAlpha" operator="arithmetic" k2="-1" k3="1"/>
<feColorMatrix type="matrix" values="0 0 0 0 1 0 0 0 0 0.634454 0 0 0 0 0 0 0 0 0.4 0"/>
<feBlend mode="normal" in2="shape" result="effect1_innerShadow_912_16700"/>
</filter>
<filter id="filter4_d_912_16700" x="536.565" y="21.0221" width="21.5218" height="21.272" filterUnits="userSpaceOnUse" color-interpolation-filters="sRGB">
<feFlood flood-opacity="0" result="BackgroundImageFix"/>
<feColorMatrix in="SourceAlpha" type="matrix" values="0 0 0 0 0 0 0 0 0 0 0 0 0 0 0 0 0 0 127 0" result="hardAlpha"/>
<feOffset/>
<feGaussianBlur stdDeviation="2.15217"/>
<feColorMatrix type="matrix" values="0 0 0 0 1 0 0 0 0 0.94902 0 0 0 0 0.305882 0 0 0 1 0"/>
<feBlend mode="normal" in2="BackgroundImageFix" result="effect1_dropShadow_912_16700"/>
<feBlend mode="normal" in="SourceGraphic" in2="effect1_dropShadow_912_16700" result="shape"/>
</filter>
<filter id="filter5_d_912_16700" x="493.522" y="56.9012" width="17.2173" height="17.0508" filterUnits="userSpaceOnUse" color-interpolation-filters="sRGB">
<feFlood flood-opacity="0" result="BackgroundImageFix"/>
<feColorMatrix in="SourceAlpha" type="matrix" values="0 0 0 0 0 0 0 0 0 0 0 0 0 0 0 0 0 0 127 0" result="hardAlpha"/>
<feOffset/>
<feGaussianBlur stdDeviation="2.15217"/>
<feColorMatrix type="matrix" values="0 0 0 0 1 0 0 0 0 0.94902 0 0 0 0 0.305882 0 0 0 1 0"/>
<feBlend mode="normal" in2="BackgroundImageFix" result="effect1_dropShadow_912_16700"/>
<feBlend mode="normal" in="SourceGraphic" in2="effect1_dropShadow_912_16700" result="shape"/>
</filter>
<filter id="filter6_d_912_16700" x="491.369" y="27.3536" width="12.913" height="12.8299" filterUnits="userSpaceOnUse" color-interpolation-filters="sRGB">
<feFlood flood-opacity="0" result="BackgroundImageFix"/>
<feColorMatrix in="SourceAlpha" type="matrix" values="0 0 0 0 0 0 0 0 0 0 0 0 0 0 0 0 0 0 127 0" result="hardAlpha"/>
<feOffset/>
<feGaussianBlur stdDeviation="2.15217"/>
<feColorMatrix type="matrix" values="0 0 0 0 1 0 0 0 0 0.94902 0 0 0 0 0.305882 0 0 0 1 0"/>
<feBlend mode="normal" in2="BackgroundImageFix" result="effect1_dropShadow_912_16700"/>
<feBlend mode="normal" in="SourceGraphic" in2="effect1_dropShadow_912_16700" result="shape"/>
</filter>
<filter id="filter7_d_912_16700" x="536.565" y="61.1224" width="15.0652" height="14.9402" filterUnits="userSpaceOnUse" color-interpolation-filters="sRGB">
<feFlood flood-opacity="0" result="BackgroundImageFix"/>
<feColorMatrix in="SourceAlpha" type="matrix" values="0 0 0 0 0 0 0 0 0 0 0 0 0 0 0 0 0 0 127 0" result="hardAlpha"/>
<feOffset/>
<feGaussianBlur stdDeviation="2.15217"/>
<feColorMatrix type="matrix" values="0 0 0 0 1 0 0 0 0 0.94902 0 0 0 0 0.305882 0 0 0 1 0"/>
<feBlend mode="normal" in2="BackgroundImageFix" result="effect1_dropShadow_912_16700"/>
<feBlend mode="normal" in="SourceGraphic" in2="effect1_dropShadow_912_16700" result="shape"/>
</filter>
<linearGradient id="paint0_linear_912_16700" x1="472" y1="0" x2="472" y2="97.0849" gradientUnits="userSpaceOnUse">
<stop stop-color="#FDE046"/>
<stop offset="1" stop-color="#F9B800"/>
</linearGradient>
<linearGradient id="paint1_linear_912_16700" x1="487.065" y1="14.7739" x2="487.065" y2="82.3113" gradientUnits="userSpaceOnUse">
<stop stop-color="#FFF550"/>
<stop offset="1" stop-color="#FFD541"/>
</linearGradient>
<linearGradient id="paint2_linear_912_16700" x1="505.937" y1="33.281" x2="505.937" y2="63.8041" gradientUnits="userSpaceOnUse">
<stop stop-color="#FFC823"/>
<stop offset="1" stop-color="#FCA50E"/>
</linearGradient>
<clipPath id="clip0_912_16700">
<rect width="588" height="250" fill="white" transform="translate(19 73)"/>
</clipPath>
</defs>
</svg>
