<svg width="626" height="266" viewBox="0 0 626 266" fill="none" xmlns="http://www.w3.org/2000/svg">
<g filter="url(#filter0_d_912_16889)">
<rect x="19.5" y="17.5" width="587" height="227" rx="11.5" fill="white" stroke="#F1F5F9"/>
<path d="M43.5801 42.4531V40.2734H54.0039V42.4531H50.1016V53H47.4824V42.4531H43.5801ZM58.4863 53.1934C55.6035 53.1934 53.8105 51.207 53.8105 48.2539C53.8105 45.3008 55.6035 43.332 58.4863 43.332C61.3691 43.332 63.1797 45.3008 63.1797 48.2539C63.1797 51.207 61.3691 53.1934 58.4863 53.1934ZM58.5039 51.1719C59.8398 51.1719 60.5254 49.9238 60.5254 48.2539C60.5254 46.5664 59.8398 45.3184 58.5039 45.3184C57.1504 45.3184 56.4473 46.5664 56.4473 48.2539C56.4473 49.9238 57.1504 51.1719 58.5039 51.1719ZM72.4785 53.1582C70.2988 53.1582 68.5938 51.418 68.5938 48.2363C68.5938 44.9668 70.3691 43.332 72.4785 43.332C74.0781 43.332 74.834 44.2812 75.1855 45.0547H75.2734V40.2734H77.875V53H75.3086V51.4707H75.1855C74.8164 52.2617 74.0254 53.1582 72.4785 53.1582ZM73.2871 51.084C74.5879 51.084 75.3262 49.9414 75.3262 48.2188C75.3262 46.4961 74.5879 45.4062 73.2871 45.4062C71.9688 45.4062 71.2656 46.5488 71.2656 48.2188C71.2656 49.9062 71.9688 51.084 73.2871 51.084ZM84.2559 53.1934C81.373 53.1934 79.5801 51.207 79.5801 48.2539C79.5801 45.3008 81.373 43.332 84.2559 43.332C87.1387 43.332 88.9492 45.3008 88.9492 48.2539C88.9492 51.207 87.1387 53.1934 84.2559 53.1934ZM84.2734 51.1719C85.6094 51.1719 86.2949 49.9238 86.2949 48.2539C86.2949 46.5664 85.6094 45.3184 84.2734 45.3184C82.9199 45.3184 82.2168 46.5664 82.2168 48.2539C82.2168 49.9238 82.9199 51.1719 84.2734 51.1719Z" fill="#1E293B"/>
<path d="M514.333 47H523.333" stroke="#6F63FF" stroke-width="1.8" stroke-linecap="round"/>
<path d="M518.833 51.5V42.5" stroke="#6F63FF" stroke-width="1.8" stroke-linecap="round"/>
<path d="M541.158 40.8301V43.6191H542.895V44.8496H541.158V47.5703H539.641V40.8301H541.158ZM541.158 48.1172V51.0977H534.596V51.9727H541.541V53.1074H533.092V50.0449H539.641V49.2246H533.078V48.1172H541.158ZM538.752 41.8555V43.0176H531.424V41.8555H534.336V40.7617H535.854V41.8555H538.752ZM535.088 43.4004C536.92 43.4141 538.096 44.1934 538.109 45.4238C538.096 46.6953 536.92 47.4473 535.088 47.4473C533.256 47.4473 532.053 46.6953 532.053 45.4238C532.053 44.1934 533.256 43.4141 535.088 43.4004ZM535.088 44.4941C534.131 44.4941 533.529 44.8359 533.529 45.4238C533.529 46.0254 534.131 46.3535 535.088 46.3535C536.045 46.3535 536.66 46.0254 536.66 45.4238C536.66 44.8359 536.045 44.4941 535.088 44.4941ZM547.01 41.2539C548.883 41.2539 550.277 42.416 550.291 44.043C550.277 45.6836 548.883 46.832 547.01 46.832C545.123 46.832 543.729 45.6836 543.729 44.043C543.729 42.416 545.123 41.2539 547.01 41.2539ZM547.01 42.5117C545.971 42.5117 545.205 43.0996 545.205 44.043C545.205 45 545.971 45.6016 547.01 45.6016C548.049 45.6016 548.814 45 548.814 44.043C548.814 43.0996 548.049 42.5117 547.01 42.5117ZM553.805 40.8574V47.1055H552.273V40.8574H553.805ZM553.805 47.6387V50.8652H547.119V51.8633H554.174V53.0664H545.629V49.7441H552.287V48.8281H545.602V47.6387H553.805ZM570.197 48.2812V49.5254H565.303V53.2305H563.799V49.5254H558.932V48.2812H570.197ZM569.145 42.3203V43.5234H565.33C565.474 44.7471 567.08 46.0254 569.555 46.3262L568.994 47.5293C566.95 47.2695 565.364 46.3672 564.564 45.1777C563.751 46.3809 562.151 47.2695 560.094 47.5293L559.547 46.3262C562.015 46.0254 563.635 44.7676 563.785 43.5234H559.971V42.3203H563.799V40.8711H565.303V42.3203H569.145ZM580.711 40.8574V45.6836H582.543V46.9551H580.711V53.1895H579.193V40.8574H580.711ZM577.443 42.1426C577.443 45.7793 575.939 48.9648 571.824 50.9883L570.963 49.8125C573.971 48.3154 575.598 46.21 575.912 43.4004H571.633V42.1426H577.443Z" fill="#6F63FF"/>
<rect x="46.5" y="80.5" width="17" height="17" rx="5.5" fill="white" stroke="#E2E8F0"/>
<path d="M79.6074 86.6855C79.6029 87.3236 79.7396 87.973 80.0176 88.6338C80.3001 89.29 80.6829 89.8848 81.166 90.418C81.6491 90.9466 82.1823 91.3477 82.7656 91.6211L82.1504 92.4688C81.4714 92.1406 80.8584 91.6393 80.3115 90.9648C79.7692 90.2904 79.359 89.5384 79.0811 88.709C78.8988 89.3014 78.6481 89.8643 78.3291 90.3975C78.0101 90.9307 77.6455 91.4023 77.2354 91.8125C76.8252 92.2181 76.3945 92.5371 75.9434 92.7695L75.2871 91.9219C75.8659 91.6439 76.4036 91.2223 76.9004 90.6572C77.4017 90.0921 77.8005 89.4587 78.0967 88.7568C78.3975 88.055 78.5501 87.3646 78.5547 86.6855V85.0996H75.7246V84.2109H82.3418V85.0996H79.6074V86.6855ZM84.8984 87.875H86.9355V88.791H84.8984V95.1074H83.832V82.9531H84.8984V87.875ZM96.998 87.7383H99.0352V88.668H96.998V95.1074H95.9316V82.9531H96.998V87.7383ZM89.1641 87.2051H92.7188V83.9922H93.7852V92.1953H88.0977V83.9922H89.1641V87.2051ZM92.7188 91.293V88.0664H89.1641V91.293H92.7188ZM105.748 84.7441C105.748 85.4049 105.969 86.0452 106.411 86.665C106.858 87.2803 107.43 87.8044 108.127 88.2373C108.824 88.6657 109.531 88.946 110.246 89.0781L109.754 89.9805C109.134 89.8346 108.523 89.5977 107.922 89.2695C107.32 88.9414 106.78 88.5358 106.302 88.0527C105.823 87.5697 105.456 87.0387 105.201 86.46C104.946 87.0342 104.579 87.5628 104.101 88.0459C103.622 88.529 103.082 88.9368 102.48 89.2695C101.883 89.5977 101.273 89.8346 100.648 89.9805L100.156 89.0781C100.872 88.9368 101.576 88.6543 102.269 88.2305C102.961 87.8021 103.526 87.2803 103.964 86.665C104.406 86.0498 104.627 85.4095 104.627 84.7441V83.8145H105.748V84.7441ZM110.82 93.4531H99.6914V92.5645H110.82V93.4531ZM121.484 85.7012C121.484 86.485 121.475 87.1436 121.457 87.6768C121.443 88.21 121.4 88.807 121.327 89.4678C121.254 90.124 121.138 90.8372 120.979 91.6074L119.898 91.5117C120.14 90.459 120.297 89.4176 120.37 88.3877L112.953 88.791L112.803 87.9023L120.411 87.5879C120.42 87.3828 120.427 87.1299 120.432 86.8291C120.436 86.5238 120.441 86.2708 120.445 86.0703V85.7012V85.0996H113.131V84.1973H121.484V85.7012ZM122.865 93.3984H111.791V92.4961H122.865V93.3984ZM133.926 89.6387H132.859V82.9668H133.926V89.6387ZM130.057 86.8359H125.572V88.4902C126.83 88.4811 127.878 88.4538 128.717 88.4082C129.56 88.3581 130.435 88.2578 131.342 88.1074L131.465 88.9961C130.517 89.1465 129.603 89.249 128.724 89.3037C127.844 89.3538 126.775 89.3835 125.518 89.3926H124.533V85.9883H128.99V84.4434H124.506V83.5547H130.057V86.8359ZM127.104 91.7031H132.859V90.2539H133.926V94.9434H126.023V90.2539H127.104V91.7031ZM132.859 94.0684V92.5645H127.104V94.0684H132.859ZM145.834 90.4043H137.426V84.0059H145.697V84.9082H138.52V86.7129H145.438V87.5742H138.52V89.5293H145.834V90.4043ZM147.119 93.5215H135.99V92.6328H147.119V93.5215ZM161.652 95.1074H160.572V82.9531H161.652V95.1074ZM158.057 84.2793C158.048 86.1159 157.583 87.7656 156.662 89.2285C155.742 90.6868 154.301 91.8854 152.342 92.8242L151.754 91.9492C153.376 91.179 154.618 90.222 155.479 89.0781C156.345 87.9342 156.84 86.6263 156.963 85.1543H152.314V84.2793H158.057ZM174.832 93.5762H163.703V92.6738H168.721V89.8848H169.773V92.6738H174.832V93.5762ZM173.766 85.7832H169.801C169.801 86.3984 169.999 86.9635 170.396 87.4785C170.792 87.9935 171.321 88.4242 171.981 88.7705C172.647 89.1123 173.374 89.347 174.162 89.4746L173.752 90.3223C172.736 90.14 171.824 89.805 171.018 89.3174C170.211 88.8252 169.621 88.2122 169.247 87.4785C168.878 88.2122 168.29 88.8252 167.483 89.3174C166.677 89.805 165.763 90.14 164.742 90.3223L164.318 89.4746C165.111 89.347 165.84 89.1123 166.506 88.7705C167.176 88.4242 167.709 87.9935 168.105 87.4785C168.507 86.9635 168.707 86.3984 168.707 85.7832H164.742V84.8945H168.721V83.2129H169.773V84.8945H173.766V85.7832ZM185.113 85.3594H182.912C182.917 85.8105 183.024 86.2526 183.233 86.6855C183.443 87.1139 183.737 87.499 184.115 87.8408C184.493 88.1826 184.931 88.4492 185.428 88.6406L184.922 89.4473C184.339 89.2194 183.833 88.8936 183.404 88.4697C182.98 88.0413 182.657 87.5514 182.434 87C182.215 87.6016 181.889 88.137 181.456 88.6064C181.028 89.0758 180.52 89.4336 179.932 89.6797L179.398 88.8594C179.895 88.6543 180.33 88.3717 180.704 88.0117C181.078 87.6471 181.367 87.2347 181.572 86.7744C181.777 86.3141 181.887 85.8424 181.9 85.3594H179.658V84.4707H181.9V83.0625H182.912V84.4707H185.113V85.3594ZM189.639 89.7617H188.613V86.7539H187.027V89.6934H185.988V83.1855H187.027V85.8652H188.613V82.9668H189.639V89.7617ZM182.693 91.6758H188.586V90.2676H189.639V94.9434H181.627V90.2676H182.693V91.6758ZM188.586 94.0684V92.5371H182.693V94.0684H188.586ZM201.492 95.1348H200.426V88.4355H197.855V87.5469H200.426V82.9531H201.492V95.1348ZM197.65 84.9629H193.057V87.4922H197.117V88.3672H193.057V91.3066C194.219 91.3066 195.194 91.2816 195.982 91.2314C196.775 91.1768 197.577 91.0788 198.389 90.9375L198.512 91.8262C197.65 91.9674 196.803 92.0654 195.969 92.1201C195.135 92.1702 194.114 92.1953 192.906 92.1953H191.977V84.0742H197.65V84.9629ZM207.453 94H206.209V85.3867H206.154L203.748 86.9863V85.7422L206.209 84.1016H207.453V94ZM224.256 89.584H213.168V88.668H224.256V89.584ZM222.971 87.3691H214.604V83.3359H222.834V84.2383H215.684V86.4941H222.971V87.3691ZM223.025 94.9434H214.576V90.8965H222.916V91.7715H215.643V94.0547H223.025V94.9434ZM235.316 95.1074H234.236V82.9531H235.316V95.1074ZM231.721 84.2793C231.712 86.1159 231.247 87.7656 230.326 89.2285C229.406 90.6868 227.965 91.8854 226.006 92.8242L225.418 91.9492C227.04 91.179 228.282 90.222 229.144 89.0781C230.009 87.9342 230.504 86.6263 230.627 85.1543H225.979V84.2793H231.721Z" fill="#1E293B"/>
<circle cx="475" cy="89" r="12" fill="#F4F4FF"/>
<path d="M471.267 84.6667C471.267 84.6298 471.296 84.6 471.333 84.6H475H476.864C476.883 84.6 476.902 84.6083 476.914 84.6228L477.88 85.7261L478.717 86.7032C478.728 86.7153 478.733 86.7307 478.733 86.7466V89V93.3333C478.733 93.3702 478.703 93.4 478.667 93.4H471.333C471.296 93.4 471.267 93.3702 471.267 93.3333V84.6667Z" stroke="#64748B" stroke-width="1.2"/>
<circle cx="507" cy="89" r="12" fill="#F4F4FF"/>
<path d="M508.333 87.6667L505.667 90.3334" stroke="#7E73FF" stroke-width="1.33333" stroke-linecap="round" stroke-linejoin="round"/>
<path d="M509.667 89.6667L511 88.3334C511.921 87.4129 511.921 85.9205 511 85V85C510.08 84.0796 508.587 84.0796 507.667 85L506.333 86.3334M504.333 88.3334L503 89.6667C502.08 90.5872 502.08 92.0796 503 93V93C503.921 93.9205 505.413 93.9205 506.333 93L507.667 91.6667" stroke="#7E73FF" stroke-width="1.33333" stroke-linecap="round"/>
<circle cx="539" cy="89" r="12" fill="#F4F4FF"/>
<rect x="534.5" y="83.9" width="9" height="10.3846" rx="1.38462" fill="#7E73FF"/>
<path d="M536.577 87.0154H541.423" stroke="white" stroke-width="0.969231" stroke-linecap="round"/>
<path d="M536.577 89.0924H541.423" stroke="white" stroke-width="0.969231" stroke-linecap="round"/>
<path d="M536.577 91.1694H541.423" stroke="white" stroke-width="0.969231" stroke-linecap="round"/>
<circle cx="571" cy="89" r="12" fill="#F4F4FF"/>
<circle cx="570.942" cy="89" r="0.525" transform="rotate(-90 570.942 89)" fill="#94A3B8" stroke="#94A3B8" stroke-width="1.16667" stroke-linecap="round"/>
<circle cx="570.942" cy="92.9667" r="0.525" transform="rotate(-90 570.942 92.9667)" fill="#94A3B8" stroke="#94A3B8" stroke-width="1.16667" stroke-linecap="round"/>
<circle cx="570.942" cy="85.0333" r="0.525" transform="rotate(-90 570.942 85.0333)" fill="#94A3B8" stroke="#94A3B8" stroke-width="1.16667" stroke-linecap="round"/>
<rect x="46.5" y="112.5" width="17" height="17" rx="5.5" fill="white" stroke="#E2E8F0"/>
<path d="M79.6074 118.686C79.6029 119.324 79.7396 119.973 80.0176 120.634C80.3001 121.29 80.6829 121.885 81.166 122.418C81.6491 122.947 82.1823 123.348 82.7656 123.621L82.1504 124.469C81.4714 124.141 80.8584 123.639 80.3115 122.965C79.7692 122.29 79.359 121.538 79.0811 120.709C78.8988 121.301 78.6481 121.864 78.3291 122.397C78.0101 122.931 77.6455 123.402 77.2354 123.812C76.8252 124.218 76.3945 124.537 75.9434 124.77L75.2871 123.922C75.8659 123.644 76.4036 123.222 76.9004 122.657C77.4017 122.092 77.8005 121.459 78.0967 120.757C78.3975 120.055 78.5501 119.365 78.5547 118.686V117.1H75.7246V116.211H82.3418V117.1H79.6074V118.686ZM84.8984 119.875H86.9355V120.791H84.8984V127.107H83.832V114.953H84.8984V119.875ZM96.998 119.738H99.0352V120.668H96.998V127.107H95.9316V114.953H96.998V119.738ZM89.1641 119.205H92.7188V115.992H93.7852V124.195H88.0977V115.992H89.1641V119.205ZM92.7188 123.293V120.066H89.1641V123.293H92.7188ZM105.748 116.744C105.748 117.405 105.969 118.045 106.411 118.665C106.858 119.28 107.43 119.804 108.127 120.237C108.824 120.666 109.531 120.946 110.246 121.078L109.754 121.98C109.134 121.835 108.523 121.598 107.922 121.27C107.32 120.941 106.78 120.536 106.302 120.053C105.823 119.57 105.456 119.039 105.201 118.46C104.946 119.034 104.579 119.563 104.101 120.046C103.622 120.529 103.082 120.937 102.48 121.27C101.883 121.598 101.273 121.835 100.648 121.98L100.156 121.078C100.872 120.937 101.576 120.654 102.269 120.23C102.961 119.802 103.526 119.28 103.964 118.665C104.406 118.05 104.627 117.41 104.627 116.744V115.814H105.748V116.744ZM110.82 125.453H99.6914V124.564H110.82V125.453ZM121.484 117.701C121.484 118.485 121.475 119.144 121.457 119.677C121.443 120.21 121.4 120.807 121.327 121.468C121.254 122.124 121.138 122.837 120.979 123.607L119.898 123.512C120.14 122.459 120.297 121.418 120.37 120.388L112.953 120.791L112.803 119.902L120.411 119.588C120.42 119.383 120.427 119.13 120.432 118.829C120.436 118.524 120.441 118.271 120.445 118.07V117.701V117.1H113.131V116.197H121.484V117.701ZM122.865 125.398H111.791V124.496H122.865V125.398ZM133.926 121.639H132.859V114.967H133.926V121.639ZM130.057 118.836H125.572V120.49C126.83 120.481 127.878 120.454 128.717 120.408C129.56 120.358 130.435 120.258 131.342 120.107L131.465 120.996C130.517 121.146 129.603 121.249 128.724 121.304C127.844 121.354 126.775 121.383 125.518 121.393H124.533V117.988H128.99V116.443H124.506V115.555H130.057V118.836ZM127.104 123.703H132.859V122.254H133.926V126.943H126.023V122.254H127.104V123.703ZM132.859 126.068V124.564H127.104V126.068H132.859ZM145.834 122.404H137.426V116.006H145.697V116.908H138.52V118.713H145.438V119.574H138.52V121.529H145.834V122.404ZM147.119 125.521H135.99V124.633H147.119V125.521ZM161.652 127.107H160.572V114.953H161.652V127.107ZM158.057 116.279C158.048 118.116 157.583 119.766 156.662 121.229C155.742 122.687 154.301 123.885 152.342 124.824L151.754 123.949C153.376 123.179 154.618 122.222 155.479 121.078C156.345 119.934 156.84 118.626 156.963 117.154H152.314V116.279H158.057ZM174.832 125.576H163.703V124.674H168.721V121.885H169.773V124.674H174.832V125.576ZM173.766 117.783H169.801C169.801 118.398 169.999 118.964 170.396 119.479C170.792 119.993 171.321 120.424 171.981 120.771C172.647 121.112 173.374 121.347 174.162 121.475L173.752 122.322C172.736 122.14 171.824 121.805 171.018 121.317C170.211 120.825 169.621 120.212 169.247 119.479C168.878 120.212 168.29 120.825 167.483 121.317C166.677 121.805 165.763 122.14 164.742 122.322L164.318 121.475C165.111 121.347 165.84 121.112 166.506 120.771C167.176 120.424 167.709 119.993 168.105 119.479C168.507 118.964 168.707 118.398 168.707 117.783H164.742V116.895H168.721V115.213H169.773V116.895H173.766V117.783ZM185.113 117.359H182.912C182.917 117.811 183.024 118.253 183.233 118.686C183.443 119.114 183.737 119.499 184.115 119.841C184.493 120.183 184.931 120.449 185.428 120.641L184.922 121.447C184.339 121.219 183.833 120.894 183.404 120.47C182.98 120.041 182.657 119.551 182.434 119C182.215 119.602 181.889 120.137 181.456 120.606C181.028 121.076 180.52 121.434 179.932 121.68L179.398 120.859C179.895 120.654 180.33 120.372 180.704 120.012C181.078 119.647 181.367 119.235 181.572 118.774C181.777 118.314 181.887 117.842 181.9 117.359H179.658V116.471H181.9V115.062H182.912V116.471H185.113V117.359ZM189.639 121.762H188.613V118.754H187.027V121.693H185.988V115.186H187.027V117.865H188.613V114.967H189.639V121.762ZM182.693 123.676H188.586V122.268H189.639V126.943H181.627V122.268H182.693V123.676ZM188.586 126.068V124.537H182.693V126.068H188.586ZM201.492 127.135H200.426V120.436H197.855V119.547H200.426V114.953H201.492V127.135ZM197.65 116.963H193.057V119.492H197.117V120.367H193.057V123.307C194.219 123.307 195.194 123.282 195.982 123.231C196.775 123.177 197.577 123.079 198.389 122.938L198.512 123.826C197.65 123.967 196.803 124.065 195.969 124.12C195.135 124.17 194.114 124.195 192.906 124.195H191.977V116.074H197.65V116.963ZM203.939 125.098L207.316 121.543C207.763 121.074 208.103 120.695 208.335 120.408C208.572 120.117 208.75 119.836 208.868 119.567C208.991 119.294 209.053 119.009 209.053 118.713C209.053 118.385 208.966 118.093 208.793 117.838C208.62 117.583 208.383 117.384 208.082 117.243C207.786 117.102 207.453 117.031 207.084 117.031C206.697 117.031 206.357 117.109 206.065 117.264C205.774 117.419 205.548 117.637 205.389 117.92C205.234 118.202 205.156 118.526 205.156 118.891H203.994C203.99 118.316 204.122 117.808 204.391 117.366C204.664 116.924 205.04 116.58 205.519 116.334C205.997 116.088 206.533 115.965 207.125 115.965C207.713 115.965 208.239 116.086 208.704 116.327C209.174 116.569 209.54 116.899 209.805 117.318C210.069 117.738 210.201 118.202 210.201 118.713C210.201 119.091 210.133 119.453 209.996 119.8C209.859 120.142 209.629 120.522 209.306 120.941C208.987 121.356 208.529 121.871 207.932 122.486L205.662 124.824V124.906H210.379V126H203.953L203.939 125.098ZM226.334 121.584H215.246V120.668H226.334V121.584ZM225.049 119.369H216.682V115.336H224.912V116.238H217.762V118.494H225.049V119.369ZM225.104 126.943H216.654V122.896H224.994V123.771H217.721V126.055H225.104V126.943ZM237.395 127.107H236.314V114.953H237.395V127.107ZM233.799 116.279C233.79 118.116 233.325 119.766 232.404 121.229C231.484 122.687 230.044 123.885 228.084 124.824L227.496 123.949C229.118 123.179 230.36 122.222 231.222 121.078C232.088 119.934 232.582 118.626 232.705 117.154H228.057V116.279H233.799Z" fill="#1E293B"/>
<circle cx="475" cy="121" r="12" fill="#F4F4FF"/>
<path d="M471.267 116.667C471.267 116.63 471.296 116.6 471.333 116.6H475H476.864C476.883 116.6 476.902 116.608 476.914 116.623L477.88 117.726L478.717 118.703C478.728 118.715 478.733 118.731 478.733 118.747V121V125.333C478.733 125.37 478.703 125.4 478.667 125.4H471.333C471.296 125.4 471.267 125.37 471.267 125.333V116.667Z" stroke="#64748B" stroke-width="1.2"/>
<circle cx="507" cy="121" r="12" fill="#F4F4FF"/>
<path d="M508.333 119.667L505.667 122.333" stroke="#7E73FF" stroke-width="1.33333" stroke-linecap="round" stroke-linejoin="round"/>
<path d="M509.667 121.667L511 120.333C511.921 119.413 511.921 117.921 511 117V117C510.08 116.08 508.587 116.08 507.667 117L506.333 118.333M504.333 120.333L503 121.667C502.08 122.587 502.08 124.08 503 125V125C503.921 125.921 505.413 125.921 506.333 125L507.667 123.667" stroke="#7E73FF" stroke-width="1.33333" stroke-linecap="round"/>
<circle cx="539" cy="121" r="12" fill="#F4F4FF"/>
<rect x="534.5" y="115.9" width="9" height="10.3846" rx="1.38462" fill="#7E73FF"/>
<path d="M536.577 119.015H541.423" stroke="white" stroke-width="0.969231" stroke-linecap="round"/>
<path d="M536.577 121.092H541.423" stroke="white" stroke-width="0.969231" stroke-linecap="round"/>
<path d="M536.577 123.169H541.423" stroke="white" stroke-width="0.969231" stroke-linecap="round"/>
<circle cx="571" cy="121" r="12" fill="#F4F4FF"/>
<circle cx="570.942" cy="121" r="0.525" transform="rotate(-90 570.942 121)" fill="#94A3B8" stroke="#94A3B8" stroke-width="1.16667" stroke-linecap="round"/>
<circle cx="570.942" cy="124.967" r="0.525" transform="rotate(-90 570.942 124.967)" fill="#94A3B8" stroke="#94A3B8" stroke-width="1.16667" stroke-linecap="round"/>
<circle cx="570.942" cy="117.033" r="0.525" transform="rotate(-90 570.942 117.033)" fill="#94A3B8" stroke="#94A3B8" stroke-width="1.16667" stroke-linecap="round"/>
<rect x="46.5" y="144.5" width="17" height="17" rx="5.5" fill="white" stroke="#E2E8F0"/>
<path d="M79.6074 150.686C79.6029 151.324 79.7396 151.973 80.0176 152.634C80.3001 153.29 80.6829 153.885 81.166 154.418C81.6491 154.947 82.1823 155.348 82.7656 155.621L82.1504 156.469C81.4714 156.141 80.8584 155.639 80.3115 154.965C79.7692 154.29 79.359 153.538 79.0811 152.709C78.8988 153.301 78.6481 153.864 78.3291 154.397C78.0101 154.931 77.6455 155.402 77.2354 155.812C76.8252 156.218 76.3945 156.537 75.9434 156.77L75.2871 155.922C75.8659 155.644 76.4036 155.222 76.9004 154.657C77.4017 154.092 77.8005 153.459 78.0967 152.757C78.3975 152.055 78.5501 151.365 78.5547 150.686V149.1H75.7246V148.211H82.3418V149.1H79.6074V150.686ZM84.8984 151.875H86.9355V152.791H84.8984V159.107H83.832V146.953H84.8984V151.875ZM96.998 151.738H99.0352V152.668H96.998V159.107H95.9316V146.953H96.998V151.738ZM89.1641 151.205H92.7188V147.992H93.7852V156.195H88.0977V147.992H89.1641V151.205ZM92.7188 155.293V152.066H89.1641V155.293H92.7188ZM105.748 148.744C105.748 149.405 105.969 150.045 106.411 150.665C106.858 151.28 107.43 151.804 108.127 152.237C108.824 152.666 109.531 152.946 110.246 153.078L109.754 153.98C109.134 153.835 108.523 153.598 107.922 153.27C107.32 152.941 106.78 152.536 106.302 152.053C105.823 151.57 105.456 151.039 105.201 150.46C104.946 151.034 104.579 151.563 104.101 152.046C103.622 152.529 103.082 152.937 102.48 153.27C101.883 153.598 101.273 153.835 100.648 153.98L100.156 153.078C100.872 152.937 101.576 152.654 102.269 152.23C102.961 151.802 103.526 151.28 103.964 150.665C104.406 150.05 104.627 149.41 104.627 148.744V147.814H105.748V148.744ZM110.82 157.453H99.6914V156.564H110.82V157.453ZM121.484 149.701C121.484 150.485 121.475 151.144 121.457 151.677C121.443 152.21 121.4 152.807 121.327 153.468C121.254 154.124 121.138 154.837 120.979 155.607L119.898 155.512C120.14 154.459 120.297 153.418 120.37 152.388L112.953 152.791L112.803 151.902L120.411 151.588C120.42 151.383 120.427 151.13 120.432 150.829C120.436 150.524 120.441 150.271 120.445 150.07V149.701V149.1H113.131V148.197H121.484V149.701ZM122.865 157.398H111.791V156.496H122.865V157.398ZM133.926 153.639H132.859V146.967H133.926V153.639ZM130.057 150.836H125.572V152.49C126.83 152.481 127.878 152.454 128.717 152.408C129.56 152.358 130.435 152.258 131.342 152.107L131.465 152.996C130.517 153.146 129.603 153.249 128.724 153.304C127.844 153.354 126.775 153.383 125.518 153.393H124.533V149.988H128.99V148.443H124.506V147.555H130.057V150.836ZM127.104 155.703H132.859V154.254H133.926V158.943H126.023V154.254H127.104V155.703ZM132.859 158.068V156.564H127.104V158.068H132.859ZM145.834 154.404H137.426V148.006H145.697V148.908H138.52V150.713H145.438V151.574H138.52V153.529H145.834V154.404ZM147.119 157.521H135.99V156.633H147.119V157.521ZM161.652 159.107H160.572V146.953H161.652V159.107ZM158.057 148.279C158.048 150.116 157.583 151.766 156.662 153.229C155.742 154.687 154.301 155.885 152.342 156.824L151.754 155.949C153.376 155.179 154.618 154.222 155.479 153.078C156.345 151.934 156.84 150.626 156.963 149.154H152.314V148.279H158.057ZM174.832 157.576H163.703V156.674H168.721V153.885H169.773V156.674H174.832V157.576ZM173.766 149.783H169.801C169.801 150.398 169.999 150.964 170.396 151.479C170.792 151.993 171.321 152.424 171.981 152.771C172.647 153.112 173.374 153.347 174.162 153.475L173.752 154.322C172.736 154.14 171.824 153.805 171.018 153.317C170.211 152.825 169.621 152.212 169.247 151.479C168.878 152.212 168.29 152.825 167.483 153.317C166.677 153.805 165.763 154.14 164.742 154.322L164.318 153.475C165.111 153.347 165.84 153.112 166.506 152.771C167.176 152.424 167.709 151.993 168.105 151.479C168.507 150.964 168.707 150.398 168.707 149.783H164.742V148.895H168.721V147.213H169.773V148.895H173.766V149.783ZM185.113 149.359H182.912C182.917 149.811 183.024 150.253 183.233 150.686C183.443 151.114 183.737 151.499 184.115 151.841C184.493 152.183 184.931 152.449 185.428 152.641L184.922 153.447C184.339 153.219 183.833 152.894 183.404 152.47C182.98 152.041 182.657 151.551 182.434 151C182.215 151.602 181.889 152.137 181.456 152.606C181.028 153.076 180.52 153.434 179.932 153.68L179.398 152.859C179.895 152.654 180.33 152.372 180.704 152.012C181.078 151.647 181.367 151.235 181.572 150.774C181.777 150.314 181.887 149.842 181.9 149.359H179.658V148.471H181.9V147.062H182.912V148.471H185.113V149.359ZM189.639 153.762H188.613V150.754H187.027V153.693H185.988V147.186H187.027V149.865H188.613V146.967H189.639V153.762ZM182.693 155.676H188.586V154.268H189.639V158.943H181.627V154.268H182.693V155.676ZM188.586 158.068V156.537H182.693V158.068H188.586ZM201.492 159.135H200.426V152.436H197.855V151.547H200.426V146.953H201.492V159.135ZM197.65 148.963H193.057V151.492H197.117V152.367H193.057V155.307C194.219 155.307 195.194 155.282 195.982 155.231C196.775 155.177 197.577 155.079 198.389 154.938L198.512 155.826C197.65 155.967 196.803 156.065 195.969 156.12C195.135 156.17 194.114 156.195 192.906 156.195H191.977V148.074H197.65V148.963ZM207.371 158.137C206.719 158.137 206.136 158.027 205.621 157.809C205.111 157.59 204.705 157.282 204.404 156.886C204.108 156.489 203.949 156.031 203.926 155.512H205.17C205.193 155.817 205.302 156.086 205.498 156.318C205.699 156.551 205.961 156.731 206.284 156.858C206.608 156.981 206.965 157.043 207.357 157.043C207.786 157.043 208.171 156.97 208.513 156.824C208.859 156.674 209.128 156.469 209.319 156.209C209.515 155.945 209.613 155.644 209.613 155.307C209.613 154.942 209.518 154.621 209.326 154.343C209.139 154.065 208.866 153.848 208.506 153.693C208.146 153.538 207.713 153.461 207.207 153.461H206.4V152.381H207.207C207.604 152.381 207.957 152.31 208.267 152.169C208.576 152.028 208.816 151.829 208.984 151.574C209.158 151.319 209.244 151.023 209.244 150.686C209.244 150.362 209.167 150.075 209.012 149.824C208.861 149.574 208.647 149.38 208.369 149.243C208.091 149.102 207.768 149.031 207.398 149.031C207.043 149.031 206.71 149.095 206.4 149.223C206.09 149.35 205.838 149.533 205.642 149.77C205.446 150.002 205.339 150.275 205.32 150.59H204.131C204.154 150.079 204.313 149.626 204.609 149.229C204.906 148.828 205.3 148.519 205.792 148.3C206.284 148.076 206.824 147.965 207.412 147.965C208.023 147.965 208.556 148.086 209.012 148.327C209.472 148.564 209.825 148.885 210.071 149.291C210.317 149.697 210.438 150.139 210.434 150.617C210.438 151.173 210.29 151.649 209.989 152.046C209.688 152.442 209.276 152.714 208.752 152.859V152.928C209.176 152.996 209.543 153.14 209.853 153.358C210.167 153.573 210.406 153.848 210.57 154.186C210.739 154.518 210.821 154.892 210.816 155.307C210.821 155.84 210.673 156.323 210.372 156.756C210.071 157.184 209.657 157.521 209.128 157.768C208.604 158.014 208.018 158.137 207.371 158.137ZM226.758 153.584H215.67V152.668H226.758V153.584ZM225.473 151.369H217.105V147.336H225.336V148.238H218.186V150.494H225.473V151.369ZM225.527 158.943H217.078V154.896H225.418V155.771H218.145V158.055H225.527V158.943ZM237.818 159.107H236.738V146.953H237.818V159.107ZM234.223 148.279C234.214 150.116 233.749 151.766 232.828 153.229C231.908 154.687 230.467 155.885 228.508 156.824L227.92 155.949C229.542 155.179 230.784 154.222 231.646 153.078C232.511 151.934 233.006 150.626 233.129 149.154H228.48V148.279H234.223Z" fill="#1E293B"/>
<circle cx="475" cy="153" r="12" fill="#F4F4FF"/>
<path d="M471.267 148.667C471.267 148.63 471.296 148.6 471.333 148.6H475H476.864C476.883 148.6 476.902 148.608 476.914 148.623L477.88 149.726L478.717 150.703C478.728 150.715 478.733 150.731 478.733 150.747V153V157.333C478.733 157.37 478.703 157.4 478.667 157.4H471.333C471.296 157.4 471.267 157.37 471.267 157.333V148.667Z" stroke="#64748B" stroke-width="1.2"/>
<circle cx="507" cy="153" r="12" fill="#F4F4FF"/>
<path d="M508.333 151.667L505.667 154.333" stroke="#7E73FF" stroke-width="1.33333" stroke-linecap="round" stroke-linejoin="round"/>
<path d="M509.667 153.667L511 152.333C511.921 151.413 511.921 149.92 511 149V149C510.08 148.079 508.587 148.079 507.667 149L506.333 150.333M504.333 152.333L503 153.667C502.08 154.587 502.08 156.079 503 157V157C503.921 157.92 505.413 157.92 506.333 157L507.667 155.667" stroke="#7E73FF" stroke-width="1.33333" stroke-linecap="round"/>
<circle cx="539" cy="153" r="12" fill="#F4F4FF"/>
<rect x="534.5" y="147.9" width="9" height="10.3846" rx="1.38462" fill="#7E73FF"/>
<path d="M536.577 151.015H541.423" stroke="white" stroke-width="0.969231" stroke-linecap="round"/>
<path d="M536.577 153.093H541.423" stroke="white" stroke-width="0.969231" stroke-linecap="round"/>
<path d="M536.577 155.169H541.423" stroke="white" stroke-width="0.969231" stroke-linecap="round"/>
<circle cx="571" cy="153" r="12" fill="#F4F4FF"/>
<circle cx="570.942" cy="153" r="0.525" transform="rotate(-90 570.942 153)" fill="#94A3B8" stroke="#94A3B8" stroke-width="1.16667" stroke-linecap="round"/>
<circle cx="570.942" cy="156.967" r="0.525" transform="rotate(-90 570.942 156.967)" fill="#94A3B8" stroke="#94A3B8" stroke-width="1.16667" stroke-linecap="round"/>
<circle cx="570.942" cy="149.033" r="0.525" transform="rotate(-90 570.942 149.033)" fill="#94A3B8" stroke="#94A3B8" stroke-width="1.16667" stroke-linecap="round"/>
<rect x="46.5" y="176.5" width="17" height="17" rx="5.5" fill="white" stroke="#E2E8F0"/>
<path d="M79.6074 182.686C79.6029 183.324 79.7396 183.973 80.0176 184.634C80.3001 185.29 80.6829 185.885 81.166 186.418C81.6491 186.947 82.1823 187.348 82.7656 187.621L82.1504 188.469C81.4714 188.141 80.8584 187.639 80.3115 186.965C79.7692 186.29 79.359 185.538 79.0811 184.709C78.8988 185.301 78.6481 185.864 78.3291 186.397C78.0101 186.931 77.6455 187.402 77.2354 187.812C76.8252 188.218 76.3945 188.537 75.9434 188.77L75.2871 187.922C75.8659 187.644 76.4036 187.222 76.9004 186.657C77.4017 186.092 77.8005 185.459 78.0967 184.757C78.3975 184.055 78.5501 183.365 78.5547 182.686V181.1H75.7246V180.211H82.3418V181.1H79.6074V182.686ZM84.8984 183.875H86.9355V184.791H84.8984V191.107H83.832V178.953H84.8984V183.875ZM96.998 183.738H99.0352V184.668H96.998V191.107H95.9316V178.953H96.998V183.738ZM89.1641 183.205H92.7188V179.992H93.7852V188.195H88.0977V179.992H89.1641V183.205ZM92.7188 187.293V184.066H89.1641V187.293H92.7188ZM105.748 180.744C105.748 181.405 105.969 182.045 106.411 182.665C106.858 183.28 107.43 183.804 108.127 184.237C108.824 184.666 109.531 184.946 110.246 185.078L109.754 185.98C109.134 185.835 108.523 185.598 107.922 185.27C107.32 184.941 106.78 184.536 106.302 184.053C105.823 183.57 105.456 183.039 105.201 182.46C104.946 183.034 104.579 183.563 104.101 184.046C103.622 184.529 103.082 184.937 102.48 185.27C101.883 185.598 101.273 185.835 100.648 185.98L100.156 185.078C100.872 184.937 101.576 184.654 102.269 184.23C102.961 183.802 103.526 183.28 103.964 182.665C104.406 182.05 104.627 181.41 104.627 180.744V179.814H105.748V180.744ZM110.82 189.453H99.6914V188.564H110.82V189.453ZM121.484 181.701C121.484 182.485 121.475 183.144 121.457 183.677C121.443 184.21 121.4 184.807 121.327 185.468C121.254 186.124 121.138 186.837 120.979 187.607L119.898 187.512C120.14 186.459 120.297 185.418 120.37 184.388L112.953 184.791L112.803 183.902L120.411 183.588C120.42 183.383 120.427 183.13 120.432 182.829C120.436 182.524 120.441 182.271 120.445 182.07V181.701V181.1H113.131V180.197H121.484V181.701ZM122.865 189.398H111.791V188.496H122.865V189.398ZM133.926 185.639H132.859V178.967H133.926V185.639ZM130.057 182.836H125.572V184.49C126.83 184.481 127.878 184.454 128.717 184.408C129.56 184.358 130.435 184.258 131.342 184.107L131.465 184.996C130.517 185.146 129.603 185.249 128.724 185.304C127.844 185.354 126.775 185.383 125.518 185.393H124.533V181.988H128.99V180.443H124.506V179.555H130.057V182.836ZM127.104 187.703H132.859V186.254H133.926V190.943H126.023V186.254H127.104V187.703ZM132.859 190.068V188.564H127.104V190.068H132.859ZM145.834 186.404H137.426V180.006H145.697V180.908H138.52V182.713H145.438V183.574H138.52V185.529H145.834V186.404ZM147.119 189.521H135.99V188.633H147.119V189.521ZM161.652 191.107H160.572V178.953H161.652V191.107ZM158.057 180.279C158.048 182.116 157.583 183.766 156.662 185.229C155.742 186.687 154.301 187.885 152.342 188.824L151.754 187.949C153.376 187.179 154.618 186.222 155.479 185.078C156.345 183.934 156.84 182.626 156.963 181.154H152.314V180.279H158.057ZM174.832 189.576H163.703V188.674H168.721V185.885H169.773V188.674H174.832V189.576ZM173.766 181.783H169.801C169.801 182.398 169.999 182.964 170.396 183.479C170.792 183.993 171.321 184.424 171.981 184.771C172.647 185.112 173.374 185.347 174.162 185.475L173.752 186.322C172.736 186.14 171.824 185.805 171.018 185.317C170.211 184.825 169.621 184.212 169.247 183.479C168.878 184.212 168.29 184.825 167.483 185.317C166.677 185.805 165.763 186.14 164.742 186.322L164.318 185.475C165.111 185.347 165.84 185.112 166.506 184.771C167.176 184.424 167.709 183.993 168.105 183.479C168.507 182.964 168.707 182.398 168.707 181.783H164.742V180.895H168.721V179.213H169.773V180.895H173.766V181.783ZM185.113 181.359H182.912C182.917 181.811 183.024 182.253 183.233 182.686C183.443 183.114 183.737 183.499 184.115 183.841C184.493 184.183 184.931 184.449 185.428 184.641L184.922 185.447C184.339 185.219 183.833 184.894 183.404 184.47C182.98 184.041 182.657 183.551 182.434 183C182.215 183.602 181.889 184.137 181.456 184.606C181.028 185.076 180.52 185.434 179.932 185.68L179.398 184.859C179.895 184.654 180.33 184.372 180.704 184.012C181.078 183.647 181.367 183.235 181.572 182.774C181.777 182.314 181.887 181.842 181.9 181.359H179.658V180.471H181.9V179.062H182.912V180.471H185.113V181.359ZM189.639 185.762H188.613V182.754H187.027V185.693H185.988V179.186H187.027V181.865H188.613V178.967H189.639V185.762ZM182.693 187.676H188.586V186.268H189.639V190.943H181.627V186.268H182.693V187.676ZM188.586 190.068V188.537H182.693V190.068H188.586ZM201.492 191.135H200.426V184.436H197.855V183.547H200.426V178.953H201.492V191.135ZM197.65 180.963H193.057V183.492H197.117V184.367H193.057V187.307C194.219 187.307 195.194 187.282 195.982 187.231C196.775 187.177 197.577 187.079 198.389 186.938L198.512 187.826C197.65 187.967 196.803 188.065 195.969 188.12C195.135 188.17 194.114 188.195 192.906 188.195H191.977V180.074H197.65V180.963ZM203.707 186.965L208.164 180.102H209.682V186.896H211.062V187.977H209.682V190H208.506V187.977H203.707V186.965ZM208.506 186.896V181.66H208.383L205.033 186.814V186.896H208.506ZM226.854 185.584H215.766V184.668H226.854V185.584ZM225.568 183.369H217.201V179.336H225.432V180.238H218.281V182.494H225.568V183.369ZM225.623 190.943H217.174V186.896H225.514V187.771H218.24V190.055H225.623V190.943ZM237.914 191.107H236.834V178.953H237.914V191.107ZM234.318 180.279C234.309 182.116 233.844 183.766 232.924 185.229C232.003 186.687 230.563 187.885 228.604 188.824L228.016 187.949C229.638 187.179 230.88 186.222 231.741 185.078C232.607 183.934 233.102 182.626 233.225 181.154H228.576V180.279H234.318Z" fill="#1E293B"/>
<circle cx="475" cy="185" r="12" fill="#F4F4FF"/>
<path d="M471.267 180.667C471.267 180.63 471.296 180.6 471.333 180.6H475H476.864C476.883 180.6 476.902 180.608 476.914 180.623L477.88 181.726L478.717 182.703C478.728 182.715 478.733 182.731 478.733 182.747V185V189.333C478.733 189.37 478.703 189.4 478.667 189.4H471.333C471.296 189.4 471.267 189.37 471.267 189.333V180.667Z" stroke="#64748B" stroke-width="1.2"/>
<circle cx="507" cy="185" r="12" fill="#F4F4FF"/>
<path d="M508.333 183.667L505.667 186.333" stroke="#7E73FF" stroke-width="1.33333" stroke-linecap="round" stroke-linejoin="round"/>
<path d="M509.667 185.667L511 184.333C511.921 183.413 511.921 181.92 511 181V181C510.08 180.079 508.587 180.079 507.667 181L506.333 182.333M504.333 184.333L503 185.667C502.08 186.587 502.08 188.079 503 189V189C503.921 189.92 505.413 189.92 506.333 189L507.667 187.667" stroke="#7E73FF" stroke-width="1.33333" stroke-linecap="round"/>
<circle cx="539" cy="185" r="12" fill="#F4F4FF"/>
<rect x="534.5" y="179.9" width="9" height="10.3846" rx="1.38462" fill="#7E73FF"/>
<path d="M536.577 183.015H541.423" stroke="white" stroke-width="0.969231" stroke-linecap="round"/>
<path d="M536.577 185.093H541.423" stroke="white" stroke-width="0.969231" stroke-linecap="round"/>
<path d="M536.577 187.169H541.423" stroke="white" stroke-width="0.969231" stroke-linecap="round"/>
<circle cx="571" cy="185" r="12" fill="#F4F4FF"/>
<circle cx="570.942" cy="185" r="0.525" transform="rotate(-90 570.942 185)" fill="#94A3B8" stroke="#94A3B8" stroke-width="1.16667" stroke-linecap="round"/>
<circle cx="570.942" cy="188.967" r="0.525" transform="rotate(-90 570.942 188.967)" fill="#94A3B8" stroke="#94A3B8" stroke-width="1.16667" stroke-linecap="round"/>
<circle cx="570.942" cy="181.033" r="0.525" transform="rotate(-90 570.942 181.033)" fill="#94A3B8" stroke="#94A3B8" stroke-width="1.16667" stroke-linecap="round"/>
<rect x="46.5" y="208.5" width="17" height="17" rx="5.5" fill="white" stroke="#E2E8F0"/>
<path d="M79.6074 214.686C79.6029 215.324 79.7396 215.973 80.0176 216.634C80.3001 217.29 80.6829 217.885 81.166 218.418C81.6491 218.947 82.1823 219.348 82.7656 219.621L82.1504 220.469C81.4714 220.141 80.8584 219.639 80.3115 218.965C79.7692 218.29 79.359 217.538 79.0811 216.709C78.8988 217.301 78.6481 217.864 78.3291 218.397C78.0101 218.931 77.6455 219.402 77.2354 219.812C76.8252 220.218 76.3945 220.537 75.9434 220.77L75.2871 219.922C75.8659 219.644 76.4036 219.222 76.9004 218.657C77.4017 218.092 77.8005 217.459 78.0967 216.757C78.3975 216.055 78.5501 215.365 78.5547 214.686V213.1H75.7246V212.211H82.3418V213.1H79.6074V214.686ZM84.8984 215.875H86.9355V216.791H84.8984V223.107H83.832V210.953H84.8984V215.875ZM96.998 215.738H99.0352V216.668H96.998V223.107H95.9316V210.953H96.998V215.738ZM89.1641 215.205H92.7188V211.992H93.7852V220.195H88.0977V211.992H89.1641V215.205ZM92.7188 219.293V216.066H89.1641V219.293H92.7188ZM105.748 212.744C105.748 213.405 105.969 214.045 106.411 214.665C106.858 215.28 107.43 215.804 108.127 216.237C108.824 216.666 109.531 216.946 110.246 217.078L109.754 217.98C109.134 217.835 108.523 217.598 107.922 217.27C107.32 216.941 106.78 216.536 106.302 216.053C105.823 215.57 105.456 215.039 105.201 214.46C104.946 215.034 104.579 215.563 104.101 216.046C103.622 216.529 103.082 216.937 102.48 217.27C101.883 217.598 101.273 217.835 100.648 217.98L100.156 217.078C100.872 216.937 101.576 216.654 102.269 216.23C102.961 215.802 103.526 215.28 103.964 214.665C104.406 214.05 104.627 213.41 104.627 212.744V211.814H105.748V212.744ZM110.82 221.453H99.6914V220.564H110.82V221.453ZM121.484 213.701C121.484 214.485 121.475 215.144 121.457 215.677C121.443 216.21 121.4 216.807 121.327 217.468C121.254 218.124 121.138 218.837 120.979 219.607L119.898 219.512C120.14 218.459 120.297 217.418 120.37 216.388L112.953 216.791L112.803 215.902L120.411 215.588C120.42 215.383 120.427 215.13 120.432 214.829C120.436 214.524 120.441 214.271 120.445 214.07V213.701V213.1H113.131V212.197H121.484V213.701ZM122.865 221.398H111.791V220.496H122.865V221.398ZM133.926 217.639H132.859V210.967H133.926V217.639ZM130.057 214.836H125.572V216.49C126.83 216.481 127.878 216.454 128.717 216.408C129.56 216.358 130.435 216.258 131.342 216.107L131.465 216.996C130.517 217.146 129.603 217.249 128.724 217.304C127.844 217.354 126.775 217.383 125.518 217.393H124.533V213.988H128.99V212.443H124.506V211.555H130.057V214.836ZM127.104 219.703H132.859V218.254H133.926V222.943H126.023V218.254H127.104V219.703ZM132.859 222.068V220.564H127.104V222.068H132.859ZM145.834 218.404H137.426V212.006H145.697V212.908H138.52V214.713H145.438V215.574H138.52V217.529H145.834V218.404ZM147.119 221.521H135.99V220.633H147.119V221.521ZM161.652 223.107H160.572V210.953H161.652V223.107ZM158.057 212.279C158.048 214.116 157.583 215.766 156.662 217.229C155.742 218.687 154.301 219.885 152.342 220.824L151.754 219.949C153.376 219.179 154.618 218.222 155.479 217.078C156.345 215.934 156.84 214.626 156.963 213.154H152.314V212.279H158.057ZM174.832 221.576H163.703V220.674H168.721V217.885H169.773V220.674H174.832V221.576ZM173.766 213.783H169.801C169.801 214.398 169.999 214.964 170.396 215.479C170.792 215.993 171.321 216.424 171.981 216.771C172.647 217.112 173.374 217.347 174.162 217.475L173.752 218.322C172.736 218.14 171.824 217.805 171.018 217.317C170.211 216.825 169.621 216.212 169.247 215.479C168.878 216.212 168.29 216.825 167.483 217.317C166.677 217.805 165.763 218.14 164.742 218.322L164.318 217.475C165.111 217.347 165.84 217.112 166.506 216.771C167.176 216.424 167.709 215.993 168.105 215.479C168.507 214.964 168.707 214.398 168.707 213.783H164.742V212.895H168.721V211.213H169.773V212.895H173.766V213.783ZM185.113 213.359H182.912C182.917 213.811 183.024 214.253 183.233 214.686C183.443 215.114 183.737 215.499 184.115 215.841C184.493 216.183 184.931 216.449 185.428 216.641L184.922 217.447C184.339 217.219 183.833 216.894 183.404 216.47C182.98 216.041 182.657 215.551 182.434 215C182.215 215.602 181.889 216.137 181.456 216.606C181.028 217.076 180.52 217.434 179.932 217.68L179.398 216.859C179.895 216.654 180.33 216.372 180.704 216.012C181.078 215.647 181.367 215.235 181.572 214.774C181.777 214.314 181.887 213.842 181.9 213.359H179.658V212.471H181.9V211.062H182.912V212.471H185.113V213.359ZM189.639 217.762H188.613V214.754H187.027V217.693H185.988V211.186H187.027V213.865H188.613V210.967H189.639V217.762ZM182.693 219.676H188.586V218.268H189.639V222.943H181.627V218.268H182.693V219.676ZM188.586 222.068V220.537H182.693V222.068H188.586ZM201.492 223.135H200.426V216.436H197.855V215.547H200.426V210.953H201.492V223.135ZM197.65 212.963H193.057V215.492H197.117V216.367H193.057V219.307C194.219 219.307 195.194 219.282 195.982 219.231C196.775 219.177 197.577 219.079 198.389 218.938L198.512 219.826C197.65 219.967 196.803 220.065 195.969 220.12C195.135 220.17 194.114 220.195 192.906 220.195H191.977V212.074H197.65V212.963ZM207.18 222.137C206.592 222.137 206.056 222.025 205.573 221.802C205.095 221.574 204.712 221.262 204.425 220.865C204.142 220.464 203.99 220.013 203.967 219.512H205.156C205.188 219.803 205.298 220.068 205.484 220.305C205.671 220.537 205.913 220.722 206.209 220.858C206.505 220.991 206.829 221.057 207.18 221.057C207.599 221.057 207.977 220.961 208.314 220.77C208.652 220.578 208.916 220.316 209.107 219.983C209.299 219.651 209.395 219.279 209.395 218.869C209.395 218.445 209.294 218.065 209.094 217.728C208.898 217.386 208.624 217.119 208.273 216.928C207.927 216.732 207.535 216.632 207.098 216.627C206.218 216.613 205.603 216.91 205.252 217.516H204.062L204.76 212.102H210.119V213.195H205.785L205.416 216.094H205.512C205.735 215.921 206.006 215.782 206.325 215.677C206.644 215.572 206.975 215.52 207.316 215.52C207.936 215.52 208.494 215.663 208.991 215.95C209.493 216.233 209.884 216.627 210.167 217.133C210.454 217.639 210.598 218.208 210.598 218.842C210.598 219.471 210.45 220.036 210.153 220.537C209.857 221.038 209.449 221.43 208.93 221.713C208.41 221.995 207.827 222.137 207.18 222.137ZM226.471 217.584H215.383V216.668H226.471V217.584ZM225.186 215.369H216.818V211.336H225.049V212.238H217.898V214.494H225.186V215.369ZM225.24 222.943H216.791V218.896H225.131V219.771H217.857V222.055H225.24V222.943ZM237.531 223.107H236.451V210.953H237.531V223.107ZM233.936 212.279C233.926 214.116 233.462 215.766 232.541 217.229C231.62 218.687 230.18 219.885 228.221 220.824L227.633 219.949C229.255 219.179 230.497 218.222 231.358 217.078C232.224 215.934 232.719 214.626 232.842 213.154H228.193V212.279H233.936Z" fill="#1E293B"/>
<circle cx="475" cy="217" r="12" fill="#F4F4FF"/>
<path d="M471.267 212.667C471.267 212.63 471.296 212.6 471.333 212.6H475H476.864C476.883 212.6 476.902 212.608 476.914 212.623L477.88 213.726L478.717 214.703C478.728 214.715 478.733 214.731 478.733 214.747V217V221.333C478.733 221.37 478.703 221.4 478.667 221.4H471.333C471.296 221.4 471.267 221.37 471.267 221.333V212.667Z" stroke="#64748B" stroke-width="1.2"/>
<circle cx="507" cy="217" r="12" fill="#F4F4FF"/>
<path d="M508.333 215.667L505.667 218.333" stroke="#7E73FF" stroke-width="1.33333" stroke-linecap="round" stroke-linejoin="round"/>
<path d="M509.667 217.667L511 216.333C511.921 215.413 511.921 213.92 511 213V213C510.08 212.079 508.587 212.079 507.667 213L506.333 214.333M504.333 216.333L503 217.667C502.08 218.587 502.08 220.079 503 221V221C503.921 221.92 505.413 221.92 506.333 221L507.667 219.667" stroke="#7E73FF" stroke-width="1.33333" stroke-linecap="round"/>
<circle cx="539" cy="217" r="12" fill="#F4F4FF"/>
<rect x="534.5" y="211.9" width="9" height="10.3846" rx="1.38462" fill="#7E73FF"/>
<path d="M536.577 215.015H541.423" stroke="white" stroke-width="0.969231" stroke-linecap="round"/>
<path d="M536.577 217.093H541.423" stroke="white" stroke-width="0.969231" stroke-linecap="round"/>
<path d="M536.577 219.169H541.423" stroke="white" stroke-width="0.969231" stroke-linecap="round"/>
<circle cx="571" cy="217" r="12" fill="#F4F4FF"/>
<circle cx="570.942" cy="217" r="0.525" transform="rotate(-90 570.942 217)" fill="#94A3B8" stroke="#94A3B8" stroke-width="1.16667" stroke-linecap="round"/>
<circle cx="570.942" cy="220.967" r="0.525" transform="rotate(-90 570.942 220.967)" fill="#94A3B8" stroke="#94A3B8" stroke-width="1.16667" stroke-linecap="round"/>
<circle cx="570.942" cy="213.033" r="0.525" transform="rotate(-90 570.942 213.033)" fill="#94A3B8" stroke="#94A3B8" stroke-width="1.16667" stroke-linecap="round"/>
</g>
<defs>
<filter id="filter0_d_912_16889" x="0.4" y="0.8" width="625.2" height="265.2" filterUnits="userSpaceOnUse" color-interpolation-filters="sRGB">
<feFlood flood-opacity="0" result="BackgroundImageFix"/>
<feColorMatrix in="SourceAlpha" type="matrix" values="0 0 0 0 0 0 0 0 0 0 0 0 0 0 0 0 0 0 127 0" result="hardAlpha"/>
<feOffset dy="2.4"/>
<feGaussianBlur stdDeviation="9.3"/>
<feComposite in2="hardAlpha" operator="out"/>
<feColorMatrix type="matrix" values="0 0 0 0 0.788032 0 0 0 0 0.820893 0 0 0 0 0.903044 0 0 0 0.5 0"/>
<feBlend mode="normal" in2="BackgroundImageFix" result="effect1_dropShadow_912_16889"/>
<feBlend mode="normal" in="SourceGraphic" in2="effect1_dropShadow_912_16889" result="shape"/>
</filter>
</defs>
</svg>
