<svg width="100%" height="100%" viewBox="0 0 440 220" fill="none" xmlns="http://www.w3.org/2000/svg">
<g filter="url(#filter0_d_912_16876)">
<rect x="41" y="37" width="340" height="120" rx="20" fill="white"/>
<path d="M125.68 70.9805C125.68 71.8652 125.829 72.7354 126.128 73.5908C126.433 74.4404 126.887 75.2051 127.49 75.8848C128.094 76.5645 128.826 77.0859 129.688 77.4492L128.475 79.207C127.555 78.8203 126.767 78.252 126.11 77.502C125.454 76.752 124.938 75.876 124.563 74.874C124.194 75.9639 123.676 76.9219 123.008 77.748C122.34 78.5684 121.549 79.1895 120.635 79.6113L119.352 77.8359C120.207 77.4551 120.937 76.9014 121.54 76.1748C122.149 75.4482 122.606 74.6338 122.911 73.7314C123.222 72.8232 123.377 71.9062 123.377 70.9805V69.9961H119.984V68.168H129.02V69.9961H125.68V70.9805ZM132.869 82.6172H130.602V66.6211H132.869V82.6172ZM147.934 68.625C147.934 69.4805 147.913 70.2363 147.872 70.8926C147.831 71.5488 147.726 72.2812 147.556 73.0898H149.674V74.9004H135.031V73.0898H145.297C145.455 72.3691 145.561 71.7041 145.613 71.0947C145.666 70.4795 145.695 69.8262 145.701 69.1348H136.824V67.3418H147.934V68.625ZM147.881 82.4414H136.771V76.5879H147.881V82.4414ZM138.969 80.6484H145.648V78.3457H138.969V80.6484ZM163.402 72.8965H165.529V74.7422H163.402V82.6172H161.152V66.6211H163.402V72.8965ZM155.369 68.2559C155.363 69.8906 155.275 71.3203 155.105 72.5449C154.936 73.7637 154.607 74.9297 154.121 76.043C153.641 77.1562 152.943 78.2168 152.029 79.2246L150.271 77.9766C150.98 77.209 151.543 76.4268 151.959 75.6299C152.375 74.8271 152.677 73.9834 152.864 73.0986C153.058 72.2139 153.178 71.209 153.225 70.084H150.975V68.2559H155.369ZM159.799 68.2559C159.799 69.9902 159.72 71.5254 159.562 72.8613C159.403 74.1914 159.087 75.4834 158.612 76.7373C158.144 77.9854 157.461 79.1602 156.564 80.2617L154.789 79.0137C155.492 78.1523 156.046 77.2617 156.45 76.3418C156.86 75.4219 157.156 74.4639 157.338 73.4678C157.52 72.4658 157.634 71.3379 157.681 70.084H155.896V68.2559H159.799ZM172.35 70.9805C172.35 71.8652 172.499 72.7354 172.798 73.5908C173.103 74.4404 173.557 75.2051 174.16 75.8848C174.764 76.5645 175.496 77.0859 176.357 77.4492L175.145 79.207C174.225 78.8203 173.437 78.252 172.78 77.502C172.124 76.752 171.608 75.876 171.233 74.874C170.864 75.9639 170.346 76.9219 169.678 77.748C169.01 78.5684 168.219 79.1895 167.305 79.6113L166.021 77.8359C166.877 77.4551 167.606 76.9014 168.21 76.1748C168.819 75.4482 169.276 74.6338 169.581 73.7314C169.892 72.8232 170.047 71.9062 170.047 70.9805V69.9961H166.654V68.168H175.689V69.9961H172.35V70.9805ZM179.539 82.6172H177.271V66.6211H179.539V82.6172ZM193.602 69.2227H188.645V72.457C190.068 72.4512 191.249 72.4102 192.187 72.334C193.13 72.2578 194.064 72.123 194.99 71.9297L195.219 73.6699C194.316 73.8809 193.379 74.0215 192.406 74.0918C191.434 74.1621 190.168 74.1973 188.609 74.1973H187.748H186.412V67.4473H193.602V69.2227ZM198.541 69.6445H200.703V71.4727H198.541V74.584H196.291V66.6211H198.541V69.6445ZM198.541 79.6465H190.156V80.6484H198.998V82.4414H187.959V77.959H196.309V77.0098H187.924V75.2344H198.541V79.6465ZM207.453 68.8008C207.447 69.5391 207.573 70.2305 207.831 70.875C208.095 71.5195 208.499 72.0879 209.044 72.5801C209.595 73.0723 210.283 73.4473 211.109 73.7051L209.932 75.4629C209.088 75.1699 208.367 74.7568 207.77 74.2236C207.178 73.6904 206.712 73.0547 206.372 72.3164C206.003 73.1777 205.49 73.9219 204.834 74.5488C204.178 75.1699 203.381 75.6387 202.443 75.9551L201.266 74.1621C202.145 73.8809 202.877 73.4736 203.463 72.9404C204.049 72.4014 204.479 71.7891 204.755 71.1035C205.036 70.4121 205.18 69.6797 205.186 68.9062V67.4473H207.453V68.8008ZM214.889 75.9902H212.656V71.3848H209.65V69.5566H212.656V66.6211H214.889V75.9902ZM209.422 76.4121C210.553 76.4121 211.531 76.5352 212.357 76.7812C213.184 77.0273 213.819 77.3848 214.265 77.8535C214.71 78.3164 214.936 78.873 214.941 79.5234C214.936 80.1738 214.71 80.7305 214.265 81.1934C213.819 81.6562 213.184 82.0078 212.357 82.248C211.537 82.4941 210.559 82.6172 209.422 82.6172C208.285 82.6172 207.304 82.4941 206.478 82.248C205.657 82.0078 205.024 81.6562 204.579 81.1934C204.14 80.7305 203.92 80.1738 203.92 79.5234C203.92 78.873 204.14 78.3164 204.579 77.8535C205.024 77.3848 205.66 77.0273 206.486 76.7812C207.312 76.5352 208.291 76.4121 209.422 76.4121ZM209.422 78.1523C208.35 78.1523 207.535 78.2666 206.979 78.4951C206.428 78.7236 206.152 79.0664 206.152 79.5234C206.152 79.9629 206.431 80.2998 206.987 80.5342C207.55 80.7627 208.361 80.877 209.422 80.877C210.488 80.877 211.303 80.7627 211.865 80.5342C212.428 80.2998 212.709 79.9629 212.709 79.5234C212.709 79.0723 212.428 78.7324 211.865 78.5039C211.309 78.2695 210.494 78.1523 209.422 78.1523ZM229.654 71.543H231.816V73.3711H229.654V78.5742H227.404V66.6387H229.654V71.543ZM226.455 70.084H216.963V68.3086H220.602V66.6035H222.834V68.3086H226.455V70.084ZM221.709 70.6465C222.477 70.6465 223.156 70.7754 223.748 71.0332C224.346 71.291 224.812 71.6543 225.146 72.123C225.479 72.5918 225.646 73.1309 225.646 73.7402C225.646 74.3496 225.479 74.8857 225.146 75.3486C224.817 75.8057 224.354 76.1631 223.757 76.4209C223.159 76.6729 222.477 76.7988 221.709 76.7988C220.936 76.7988 220.247 76.6729 219.644 76.4209C219.046 76.1631 218.577 75.8057 218.237 75.3486C217.903 74.8857 217.736 74.3496 217.736 73.7402C217.736 73.1309 217.903 72.5918 218.237 72.123C218.577 71.6543 219.046 71.291 219.644 71.0332C220.247 70.7754 220.936 70.6465 221.709 70.6465ZM221.709 72.3516C221.164 72.3633 220.73 72.4893 220.408 72.7295C220.086 72.9697 219.928 73.3066 219.934 73.7402C219.928 74.1738 220.083 74.5078 220.399 74.7422C220.722 74.9766 221.158 75.0938 221.709 75.0938C222.26 75.0938 222.699 74.9766 223.027 74.7422C223.355 74.502 223.52 74.168 223.52 73.7402C223.52 73.3066 223.355 72.9697 223.027 72.7295C222.699 72.4893 222.26 72.3633 221.709 72.3516ZM230.234 82.3359H219.283V77.6602H221.516V80.543H230.234V82.3359ZM249.412 72.8789H245.07V74.4082H251.258V76.2188H236.668V74.4082H242.82V72.8789H238.479V67.2539H249.412V72.8789ZM240.676 71.1211H247.215V68.9941H240.676V71.1211ZM249.482 82.6172H247.25V79.1543H238.285V77.3965H249.482V82.6172ZM266.867 80.8418H252.225V79.0488H255.863V76.0078H253.438V74.1973H255.582V69.6973H253.367V67.9043H265.637V69.6973H263.387V74.1973H265.566V76.0078H263.158V79.0488H266.867V80.8418ZM261.172 74.1973V69.6973H257.832V74.1973H261.172ZM260.908 79.0488V76.0078H258.113V79.0488H260.908ZM272.967 67.6934C273.799 67.6875 274.552 67.8545 275.226 68.1943C275.905 68.5283 276.436 68.9941 276.816 69.5918C277.203 70.1895 277.396 70.8633 277.396 71.6133C277.396 72.3691 277.203 73.0459 276.816 73.6436C276.436 74.2412 275.908 74.71 275.234 75.0498C274.561 75.3838 273.805 75.5508 272.967 75.5508C272.129 75.5508 271.37 75.3838 270.69 75.0498C270.017 74.71 269.486 74.2412 269.1 73.6436C268.713 73.0459 268.52 72.3691 268.52 71.6133C268.52 70.8633 268.713 70.1895 269.1 69.5918C269.486 68.9941 270.02 68.5283 270.699 68.1943C271.379 67.8545 272.135 67.6875 272.967 67.6934ZM272.967 69.627C272.545 69.627 272.164 69.7061 271.824 69.8643C271.484 70.0225 271.218 70.2539 271.024 70.5586C270.837 70.8574 270.746 71.209 270.752 71.6133C270.746 72.0234 270.837 72.3779 271.024 72.6768C271.218 72.9756 271.481 73.2041 271.815 73.3623C272.155 73.5205 272.539 73.5996 272.967 73.5996C273.395 73.5996 273.775 73.5205 274.109 73.3623C274.449 73.2041 274.716 72.9756 274.909 72.6768C275.108 72.3779 275.211 72.0234 275.217 71.6133C275.211 71.2031 275.111 70.8486 274.918 70.5498C274.725 70.251 274.458 70.0225 274.118 69.8643C273.778 69.7061 273.395 69.627 272.967 69.627ZM281.229 82.6523H278.996V66.6211H281.229V82.6523ZM268.73 77.5547C272.486 77.5547 275.604 77.3848 278.082 77.0449L278.258 78.6621C276.688 78.9668 275.085 79.1631 273.45 79.251C271.815 79.3389 270.037 79.3828 268.115 79.3828L267.852 77.5547H268.73ZM295.977 67.8691C295.977 68.5137 296.193 69.1494 296.627 69.7764C297.061 70.3975 297.699 70.9365 298.543 71.3936C299.387 71.8506 300.395 72.1523 301.566 72.2988L300.688 74.1094C299.316 73.9102 298.124 73.5117 297.11 72.9141C296.103 72.3105 295.329 71.5664 294.79 70.6816C294.257 71.5664 293.489 72.3105 292.487 72.9141C291.485 73.5117 290.305 73.9102 288.945 74.1094L288.049 72.2988C289.209 72.1523 290.211 71.8506 291.055 71.3936C291.898 70.9365 292.537 70.3975 292.971 69.7764C293.404 69.1494 293.621 68.5137 293.621 67.8691V67.0957H295.977V67.8691ZM302.076 77.1504H295.854V82.6172H293.639V77.1504H287.486V75.3223H302.076V77.1504Z" fill="#111111"/>
<path d="M187.094 124.312C185.406 124.312 183.875 123.953 182.5 123.234C181.125 122.505 180.016 121.318 179.172 119.672C178.328 118.016 177.906 115.865 177.906 113.219C177.906 110.708 178.286 108.542 179.047 106.719C179.807 104.885 180.891 103.484 182.297 102.516C183.703 101.547 185.344 101.062 187.219 101.062C188.698 101.062 190.026 101.349 191.203 101.922C192.38 102.495 193.323 103.281 194.031 104.281C194.75 105.281 195.188 106.406 195.344 107.656H190.719C190.531 106.854 190.125 106.229 189.5 105.781C188.885 105.323 188.125 105.094 187.219 105.094C185.708 105.094 184.547 105.734 183.734 107.016C182.932 108.286 182.521 110.052 182.5 112.312H182.719C183.229 111.323 184.005 110.547 185.047 109.984C186.089 109.411 187.24 109.125 188.5 109.125C189.844 109.125 191.052 109.443 192.125 110.078C193.208 110.703 194.057 111.573 194.672 112.688C195.286 113.792 195.594 115.042 195.594 116.438C195.594 117.948 195.234 119.302 194.516 120.5C193.807 121.688 192.807 122.62 191.516 123.297C190.224 123.974 188.75 124.312 187.094 124.312ZM187 120.594C187.76 120.594 188.448 120.417 189.062 120.062C189.677 119.708 190.156 119.224 190.5 118.609C190.854 117.995 191.031 117.312 191.031 116.562C191.031 115.823 190.859 115.146 190.516 114.531C190.182 113.917 189.714 113.432 189.109 113.078C188.505 112.714 187.823 112.531 187.062 112.531C186.302 112.531 185.609 112.714 184.984 113.078C184.37 113.432 183.88 113.922 183.516 114.547C183.161 115.161 182.979 115.833 182.969 116.562C182.979 117.302 183.156 117.979 183.5 118.594C183.854 119.208 184.339 119.698 184.953 120.062C185.568 120.417 186.25 120.594 187 120.594ZM207.225 124.312C205.34 124.312 203.715 123.859 202.35 122.953C200.996 122.036 199.954 120.708 199.225 118.969C198.496 117.229 198.131 115.135 198.131 112.688C198.131 110.24 198.496 108.146 199.225 106.406C199.954 104.667 200.996 103.344 202.35 102.438C203.715 101.521 205.34 101.062 207.225 101.062C209.1 101.062 210.72 101.521 212.084 102.438C213.449 103.344 214.496 104.672 215.225 106.422C215.954 108.161 216.319 110.25 216.319 112.688C216.319 115.146 215.954 117.245 215.225 118.984C214.496 120.724 213.449 122.047 212.084 122.953C210.73 123.859 209.11 124.312 207.225 124.312ZM207.225 120.438C208.1 120.438 208.855 120.156 209.491 119.594C210.136 119.031 210.631 118.182 210.975 117.047C211.329 115.911 211.506 114.51 211.506 112.844C211.506 110.25 211.131 108.281 210.381 106.938C209.631 105.583 208.579 104.906 207.225 104.906C205.871 104.906 204.819 105.583 204.069 106.938C203.319 108.281 202.944 110.25 202.944 112.844C202.944 114.51 203.116 115.911 203.459 117.047C203.814 118.182 204.308 119.031 204.944 119.594C205.59 120.156 206.35 120.438 207.225 120.438ZM242.763 126.875H238.919V112.406H236.325V125.625H232.606V99.1875H236.325V109.219H238.919V98.4375H242.763V126.875ZM230.606 101.938C230.596 104.729 230.268 107.271 229.622 109.562C228.976 111.844 227.888 113.953 226.356 115.891C224.835 117.818 222.783 119.531 220.2 121.031L217.888 118.281C220.721 116.615 222.83 114.724 224.216 112.609C225.601 110.484 226.434 107.99 226.716 105.125H219.325V101.938H230.606Z" fill="#EF4444"/>
</g>
<defs>
<filter id="filter0_d_912_16876" x="0" y="0" width="440" height="220" filterUnits="userSpaceOnUse" color-interpolation-filters="sRGB">
<feFlood flood-opacity="0" result="BackgroundImageFix"/>
<feColorMatrix in="SourceAlpha" type="matrix" values="0 0 0 0 0 0 0 0 0 0 0 0 0 0 0 0 0 0 127 0" result="hardAlpha"/>
<feOffset dx="9" dy="13"/>
<feGaussianBlur stdDeviation="25"/>
<feComposite in2="hardAlpha" operator="out"/>
<feColorMatrix type="matrix" values="0 0 0 0 0.0941176 0 0 0 0 0.164706 0 0 0 0 0.247059 0 0 0 0.2 0"/>
<feBlend mode="normal" in2="BackgroundImageFix" result="effect1_dropShadow_912_16876"/>
<feBlend mode="normal" in="SourceGraphic" in2="effect1_dropShadow_912_16876" result="shape"/>
</filter>
</defs>
</svg>
