<svg width="100%" height="100%" viewBox="0 0 623 197" fill="none" xmlns="http://www.w3.org/2000/svg">
<g filter="url(#filter0_d_912_16979)">
<rect x="19.5846" y="17.5846" width="583.39" height="157.831" rx="13.4449" fill="white" stroke="#F1F5F9" stroke-width="1.16912"/>
<circle cx="579.721" cy="59.0883" r="1.05221" transform="rotate(-90 579.721 59.0883)" fill="#94A3B8" stroke="#94A3B8" stroke-width="2.33824" stroke-linecap="round"/>
<circle cx="579.721" cy="67.0384" r="1.05221" transform="rotate(-90 579.721 67.0384)" fill="#94A3B8" stroke="#94A3B8" stroke-width="2.33824" stroke-linecap="round"/>
<circle cx="579.721" cy="51.1383" r="1.05221" transform="rotate(-90 579.721 51.1383)" fill="#94A3B8" stroke="#94A3B8" stroke-width="2.33824" stroke-linecap="round"/>
<path d="M54.6533 114.61H58.3799C59.1197 114.61 59.7522 114.75 60.2774 115.028C60.8026 115.307 61.1999 115.695 61.4693 116.193C61.7388 116.686 61.8735 117.255 61.8735 117.898C61.8735 118.538 61.7365 119.106 61.4625 119.604C61.193 120.097 60.7934 120.483 60.2637 120.762C59.7339 121.036 59.0969 121.173 58.3525 121.173H56.4344V124.53H54.6533V114.61ZM58.1058 119.707C58.7543 119.707 59.2407 119.545 59.565 119.221C59.8892 118.892 60.0513 118.451 60.0513 117.898C60.0513 117.341 59.8892 116.903 59.565 116.583C59.2407 116.264 58.7543 116.104 58.1058 116.104H56.4344V119.707H58.1058ZM63.2299 117.09H64.9287V118.323H65.0109C65.1388 117.903 65.3694 117.574 65.7028 117.337C66.0362 117.099 66.4175 116.981 66.8468 116.981C67.1026 116.981 67.3126 116.994 67.4771 117.022V118.638C67.3994 118.611 67.2807 118.586 67.1208 118.563C66.961 118.54 66.8103 118.529 66.6687 118.529C66.349 118.529 66.0613 118.597 65.8056 118.734C65.5498 118.871 65.3489 119.063 65.2028 119.31C65.0566 119.556 64.9835 119.835 64.9835 120.145V124.53H63.2299V117.09ZM71.5187 124.68C70.8063 124.68 70.1806 124.52 69.6417 124.201C69.1029 123.881 68.6873 123.433 68.395 122.858C68.1027 122.278 67.9566 121.607 67.9566 120.844C67.9566 120.077 68.1027 119.403 68.395 118.823C68.6873 118.243 69.1029 117.793 69.6417 117.474C70.1806 117.154 70.8063 116.994 71.5187 116.994C72.2357 116.994 72.8637 117.154 73.4026 117.474C73.9414 117.793 74.3548 118.243 74.6425 118.823C74.9347 119.403 75.0809 120.077 75.0809 120.844C75.0809 121.607 74.9347 122.278 74.6425 122.858C74.3502 123.438 73.9346 123.888 73.3957 124.208C72.8614 124.523 72.2357 124.68 71.5187 124.68ZM71.5324 123.283C71.916 123.283 72.2403 123.175 72.5052 122.961C72.7746 122.746 72.9756 122.454 73.108 122.084C73.245 121.714 73.3135 121.296 73.3135 120.83C73.3135 120.369 73.245 119.954 73.108 119.584C72.9756 119.209 72.7746 118.915 72.5052 118.7C72.2403 118.485 71.916 118.378 71.5324 118.378C71.1397 118.378 70.8063 118.485 70.5323 118.7C70.2628 118.915 70.0596 119.207 69.9226 119.577C69.7902 119.947 69.7239 120.365 69.7239 120.83C69.7239 121.296 69.7902 121.714 69.9226 122.084C70.0596 122.454 70.2628 122.746 70.5323 122.961C70.8063 123.175 71.1397 123.283 71.5324 123.283ZM79.6843 127.475C79.0312 127.475 78.4604 127.382 77.9717 127.194C77.4876 127.012 77.104 126.749 76.8209 126.407C76.5423 126.069 76.3824 125.667 76.3413 125.201H78.0813C78.1407 125.516 78.3119 125.753 78.5951 125.913C78.8828 126.078 79.255 126.16 79.7117 126.16C80.2551 126.16 80.6776 126.034 80.979 125.783C81.285 125.532 81.438 125.142 81.438 124.612V123.187H81.3558C81.1822 123.529 80.9242 123.822 80.5817 124.064C80.2437 124.301 79.7848 124.42 79.2048 124.42C78.6248 124.42 78.1019 124.281 77.636 124.002C77.1702 123.719 76.8026 123.303 76.5331 122.755C76.2683 122.203 76.1358 121.534 76.1358 120.748C76.1358 119.954 76.2706 119.275 76.54 118.714C76.8094 118.147 77.1771 117.72 77.6429 117.433C78.1087 117.14 78.6339 116.994 79.2185 116.994C79.7985 116.994 80.2529 117.122 80.5817 117.378C80.9105 117.634 81.1685 117.944 81.3558 118.309H81.438V117.09H83.1642V124.653C83.1642 125.269 83.0158 125.788 82.719 126.208C82.4267 126.633 82.018 126.95 81.4928 127.16C80.9721 127.37 80.3693 127.475 79.6843 127.475ZM79.6843 123.05C80.246 123.05 80.6799 122.851 80.9858 122.454C81.2964 122.052 81.4517 121.493 81.4517 120.776C81.4517 120.305 81.3832 119.892 81.2462 119.536C81.1091 119.179 80.9082 118.905 80.6433 118.714C80.3784 118.517 80.0588 118.419 79.6843 118.419C79.3052 118.419 78.9833 118.52 78.7184 118.72C78.4535 118.921 78.2526 119.2 78.1156 119.556C77.9831 119.912 77.9169 120.319 77.9169 120.776C77.9169 121.474 78.0699 122.029 78.3759 122.44C78.6819 122.847 79.118 123.05 79.6843 123.05ZM84.8357 117.09H86.5346V118.323H86.6168C86.7447 117.903 86.9753 117.574 87.3087 117.337C87.642 117.099 88.0234 116.981 88.4527 116.981C88.7084 116.981 88.9185 116.994 89.0829 117.022V118.638C89.0053 118.611 88.8865 118.586 88.7267 118.563C88.5668 118.54 88.4161 118.529 88.2746 118.529C87.9549 118.529 87.6672 118.597 87.4114 118.734C87.1557 118.871 86.9547 119.063 86.8086 119.31C86.6625 119.556 86.5894 119.835 86.5894 120.145V124.53H84.8357V117.09ZM93.1794 124.68C92.4395 124.68 91.7956 124.525 91.2476 124.214C90.7041 123.899 90.2863 123.454 89.994 122.879C89.7063 122.303 89.5624 121.63 89.5624 120.858C89.5624 120.095 89.7086 119.424 90.0008 118.844C90.2931 118.259 90.7041 117.805 91.2339 117.481C91.7682 117.156 92.3847 116.994 93.0835 116.994C93.7137 116.994 94.2846 117.129 94.796 117.398C95.3121 117.668 95.7208 118.086 96.0222 118.652C96.3282 119.214 96.4812 119.912 96.4812 120.748V121.296H91.2887C91.2933 121.712 91.3755 122.073 91.5353 122.379C91.6951 122.68 91.9166 122.911 92.1998 123.07C92.4829 123.23 92.814 123.31 93.1931 123.31C93.563 123.31 93.8781 123.239 94.1384 123.098C94.3987 122.956 94.586 122.771 94.7001 122.543H96.4127C96.3077 122.972 96.109 123.349 95.8167 123.673C95.5245 123.993 95.1523 124.242 94.7001 124.42C94.2526 124.593 93.7457 124.68 93.1794 124.68ZM94.8097 120.104C94.8052 119.766 94.7321 119.465 94.5905 119.2C94.449 118.935 94.2503 118.727 93.9946 118.577C93.7388 118.426 93.4443 118.351 93.1109 118.351C92.7684 118.351 92.4624 118.43 92.1929 118.59C91.9281 118.746 91.718 118.958 91.5627 119.227C91.4074 119.492 91.3184 119.785 91.2955 120.104H94.8097ZM102.057 119.214C102.003 118.931 101.861 118.707 101.633 118.542C101.404 118.378 101.107 118.296 100.742 118.296C100.495 118.296 100.272 118.335 100.071 118.412C99.8744 118.485 99.7214 118.59 99.6118 118.727C99.5022 118.86 99.4497 119.008 99.4542 119.173C99.4405 119.57 99.7922 119.853 100.509 120.022L101.77 120.282C102.478 120.442 103.003 120.687 103.345 121.015C103.688 121.344 103.861 121.776 103.866 122.31C103.861 122.776 103.729 123.189 103.469 123.55C103.208 123.906 102.838 124.185 102.359 124.386C101.884 124.582 101.327 124.68 100.687 124.68C99.7511 124.68 99.0067 124.482 98.4541 124.084C97.9061 123.682 97.5864 123.123 97.4951 122.406H99.2761C99.3309 122.721 99.4771 122.959 99.7146 123.118C99.9566 123.274 100.281 123.351 100.687 123.351C101.107 123.351 101.445 123.271 101.701 123.112C101.957 122.952 102.085 122.735 102.085 122.461C102.085 122.246 101.996 122.07 101.818 121.933C101.644 121.792 101.372 121.68 101.002 121.598L99.8105 121.337C99.1209 121.2 98.598 120.956 98.2417 120.604C97.8901 120.253 97.7143 119.807 97.7143 119.269C97.7143 118.816 97.8376 118.419 98.0842 118.077C98.3308 117.729 98.6802 117.462 99.1323 117.275C99.5844 117.088 100.112 116.994 100.715 116.994C101.299 116.994 101.808 117.086 102.242 117.268C102.681 117.446 103.026 117.702 103.277 118.035C103.528 118.369 103.674 118.762 103.715 119.214H102.057ZM109.415 119.214C109.36 118.931 109.218 118.707 108.99 118.542C108.762 118.378 108.465 118.296 108.099 118.296C107.853 118.296 107.629 118.335 107.428 118.412C107.232 118.485 107.079 118.59 106.969 118.727C106.859 118.86 106.807 119.008 106.811 119.173C106.798 119.57 107.149 119.853 107.866 120.022L109.127 120.282C109.835 120.442 110.36 120.687 110.702 121.015C111.045 121.344 111.218 121.776 111.223 122.31C111.218 122.776 111.086 123.189 110.826 123.55C110.565 123.906 110.196 124.185 109.716 124.386C109.241 124.582 108.684 124.68 108.045 124.68C107.108 124.68 106.364 124.482 105.811 124.084C105.263 123.682 104.944 123.123 104.852 122.406H106.633C106.688 122.721 106.834 122.959 107.072 123.118C107.314 123.274 107.638 123.351 108.045 123.351C108.465 123.351 108.803 123.271 109.058 123.112C109.314 122.952 109.442 122.735 109.442 122.461C109.442 122.246 109.353 122.07 109.175 121.933C109.001 121.792 108.73 121.68 108.36 121.598L107.168 121.337C106.478 121.2 105.955 120.956 105.599 120.604C105.247 120.253 105.071 119.807 105.071 119.269C105.071 118.816 105.195 118.419 105.441 118.077C105.688 117.729 106.037 117.462 106.49 117.275C106.942 117.088 107.469 116.994 108.072 116.994C108.656 116.994 109.166 117.086 109.6 117.268C110.038 117.446 110.383 117.702 110.634 118.035C110.885 118.369 111.031 118.762 111.072 119.214H109.415Z" fill="#0F172A"/>
<rect x="53.7354" y="146.044" width="486.353" height="4.67647" rx="2.33824" fill="#F8FAFC"/>
<rect x="53.7354" y="146.044" width="281.524" height="4.67647" rx="2.33824" fill="#0F172A"/>
<path d="M554.003 153.02C553.3 153.02 552.656 152.867 552.072 152.561C551.487 152.25 551.012 151.736 550.647 151.019C550.286 150.298 550.108 149.357 550.112 148.197C550.112 147.078 550.275 146.117 550.599 145.313C550.923 144.505 551.382 143.888 551.976 143.463C552.574 143.039 553.277 142.826 554.086 142.826C554.711 142.826 555.271 142.947 555.764 143.189C556.262 143.431 556.664 143.767 556.97 144.196C557.276 144.621 557.465 145.101 557.538 145.635H555.771C555.68 145.251 555.485 144.945 555.189 144.717C554.896 144.489 554.529 144.374 554.086 144.374C553.611 144.374 553.204 144.509 552.866 144.779C552.533 145.048 552.277 145.434 552.099 145.936C551.926 146.439 551.839 147.037 551.839 147.731H551.935C552.186 147.306 552.537 146.975 552.99 146.738C553.442 146.496 553.94 146.375 554.483 146.375C555.072 146.375 555.606 146.514 556.086 146.793C556.565 147.067 556.942 147.448 557.216 147.937C557.495 148.425 557.634 148.978 557.634 149.594C557.634 150.243 557.481 150.827 557.175 151.348C556.874 151.869 556.447 152.277 555.894 152.574C555.346 152.871 554.716 153.02 554.003 153.02ZM553.976 151.581C554.337 151.581 554.663 151.494 554.956 151.321C555.252 151.147 555.485 150.912 555.654 150.615C555.823 150.318 555.908 149.992 555.908 149.636C555.908 149.288 555.826 148.969 555.661 148.676C555.497 148.384 555.268 148.154 554.976 147.985C554.684 147.816 554.36 147.731 554.003 147.731C553.643 147.731 553.312 147.818 553.01 147.991C552.709 148.165 552.471 148.4 552.298 148.697C552.124 148.989 552.035 149.307 552.031 149.649C552.035 149.996 552.122 150.318 552.291 150.615C552.46 150.907 552.69 151.143 552.983 151.321C553.28 151.494 553.611 151.581 553.976 151.581ZM558.963 149.608L563.251 142.963H565.471V149.567H566.772V151.033H565.471V152.883H563.772V151.033H558.963V149.608ZM563.799 149.567V144.991H563.69L560.785 149.499V149.567H563.799ZM570.636 147.8C570.175 147.8 569.78 147.695 569.451 147.485C569.127 147.27 568.88 146.971 568.711 146.587C568.542 146.199 568.458 145.749 568.458 145.238C568.458 144.735 568.542 144.292 568.711 143.909C568.885 143.52 569.136 143.221 569.465 143.011C569.793 142.797 570.184 142.689 570.636 142.689C571.106 142.689 571.506 142.797 571.835 143.011C572.164 143.221 572.41 143.518 572.575 143.902C572.744 144.285 572.828 144.731 572.828 145.238C572.828 145.749 572.741 146.199 572.568 146.587C572.399 146.971 572.15 147.27 571.821 147.485C571.492 147.695 571.097 147.8 570.636 147.8ZM570.636 146.704C570.937 146.704 571.166 146.573 571.321 146.313C571.476 146.053 571.554 145.694 571.554 145.238C571.554 144.786 571.479 144.429 571.328 144.169C571.177 143.909 570.947 143.781 570.636 143.785C570.339 143.785 570.111 143.918 569.951 144.183C569.796 144.443 569.718 144.795 569.718 145.238C569.718 145.69 569.796 146.048 569.951 146.313C570.111 146.573 570.339 146.704 570.636 146.704ZM577.116 153.143C576.655 153.147 576.26 153.045 575.931 152.835C575.607 152.62 575.36 152.321 575.191 151.937C575.022 151.549 574.938 151.101 574.938 150.595C574.938 150.088 575.022 149.642 575.191 149.259C575.365 148.871 575.616 148.569 575.945 148.355C576.274 148.14 576.664 148.033 577.116 148.033C577.582 148.033 577.98 148.14 578.308 148.355C578.637 148.565 578.886 148.864 579.055 149.252C579.224 149.636 579.308 150.083 579.308 150.595C579.308 151.106 579.222 151.554 579.048 151.937C578.879 152.321 578.63 152.62 578.301 152.835C577.973 153.045 577.578 153.147 577.116 153.143ZM577.116 152.047C577.422 152.047 577.651 151.919 577.801 151.663C577.957 151.403 578.034 151.047 578.034 150.595C578.034 150.133 577.959 149.773 577.808 149.512C577.658 149.252 577.427 149.124 577.116 149.129C576.824 149.129 576.598 149.263 576.438 149.533C576.278 149.798 576.198 150.152 576.198 150.595C576.198 151.042 576.276 151.396 576.431 151.656C576.591 151.917 576.82 152.047 577.116 152.047ZM576.555 142.963H577.938L571.116 152.883H569.732L576.555 142.963Z" fill="#0F172A"/>
<rect x="53.7354" y="35.7059" width="46.7647" height="46.7647" rx="17.5368" fill="#1E293B"/>
<path d="M82.0324 54.4165H81.1985C80.3665 54.4634 79.6533 53.8282 79.6041 52.9962V52.9229C79.5805 52.5216 79.3982 52.1463 79.0973 51.8798C78.7964 51.6132 78.4017 51.4775 78.0005 51.5026H72.2643V51.2093C72.2643 50.8298 71.9566 50.5221 71.577 50.5221C71.1975 50.5221 70.8898 50.8298 70.8898 51.2093V66.787C70.8898 67.1666 71.1975 67.4743 71.577 67.4743C71.9566 67.4743 72.2643 67.1666 72.2643 66.787V59.1998H73.3364C74.1685 59.1529 74.8816 59.7882 74.9308 60.6201V60.6751C74.98 61.5071 75.6931 62.1423 76.5252 62.0954H82.0232C82.8553 62.1423 83.5685 61.5071 83.6177 60.6751V55.8185C83.5542 54.9999 82.8526 54.3794 82.0324 54.4165Z" fill="white"/>
<path d="M117.128 55.1209C117.128 56.0936 117.313 57.0732 117.683 58.0596C118.06 59.0461 118.597 59.9435 119.296 60.7518C120.002 61.5601 120.827 62.1835 121.773 62.6219L120.498 64.4304C119.478 63.9509 118.584 63.2487 117.817 62.3239C117.049 61.3923 116.45 60.3271 116.018 59.1283C115.587 60.4367 114.974 61.5978 114.179 62.6117C113.384 63.6255 112.463 64.3825 111.415 64.8825L110.079 63.0946C111.031 62.6425 111.867 61.9883 112.586 61.132C113.312 60.2757 113.867 59.3201 114.251 58.2651C114.641 57.2102 114.84 56.1621 114.847 55.1209V53.559H110.798V51.6683H121.012V53.559H117.128V55.1209ZM125.02 57.0732H127.876V58.9844H125.02V68.4173H122.738V49.8393H125.02V57.0732ZM143.207 56.9088H146.064V58.8406H143.207V68.4173H140.926V49.8393H143.207V56.9088ZM131.575 56.0045H135.953V51.36H138.234V64.0605H129.315V51.36H131.575V56.0045ZM135.953 62.1904V57.7925H131.575V62.1904H135.953ZM156.442 52.3876C156.442 53.3398 156.73 54.268 157.305 55.1722C157.887 56.0765 158.689 56.8574 159.71 57.515C160.73 58.1658 161.874 58.6008 163.142 58.82L162.114 60.7313C160.559 60.4024 159.175 59.7962 157.963 58.9125C156.757 58.022 155.853 56.9499 155.25 55.6963C154.633 56.943 153.719 58.0117 152.506 58.9022C151.294 59.7859 149.914 60.3956 148.365 60.7313L147.358 58.82C148.612 58.594 149.742 58.1555 150.749 57.5048C151.763 56.8471 152.558 56.0662 153.133 55.162C153.715 54.2577 154.01 53.3329 154.017 52.3876V51.0107H156.442V52.3876ZM163.82 66.0539H146.845V64.1633H163.82V66.0539ZM180.096 53.785C180.096 54.9701 180.082 55.9737 180.055 56.7958C180.027 57.6178 179.952 58.546 179.829 59.5804C179.712 60.6148 179.527 61.7451 179.274 62.9713L176.993 62.7658C177.342 61.2656 177.579 59.8099 177.702 58.3987L166.758 58.9639L166.45 57.1143L177.815 56.6827C177.842 56.0182 177.856 55.0524 177.856 53.785V53.4151H167.005V51.5656H180.096V53.785ZM181.966 66.0539H165.032V64.1838H181.966V66.0539ZM198.695 60.1558H196.393V49.8598H198.695V60.1558ZM192.735 56.0662H186.446V57.9363C188.275 57.9158 189.775 57.8747 190.947 57.813C192.118 57.7445 193.317 57.6075 194.543 57.402L194.831 59.2516C193.447 59.4708 192.084 59.6181 190.741 59.6934C189.406 59.7688 187.755 59.8065 185.789 59.8065H184.206V54.3194H190.474V52.552H184.165V50.7024H192.735V56.0662ZM188.666 62.7863H196.413V60.9779H198.695V68.1912H186.385V60.9779H188.666V62.7863ZM196.413 66.3416V64.5537H188.666V66.3416H196.413ZM216.512 61.3889H203.483V51.2984H216.348V53.148H205.805V55.388H215.916V57.1759H205.805V59.5804H216.512V61.3889ZM218.382 66.1567H201.407V64.2866H218.382V66.1567ZM236.57 66.2594H219.595V64.3688H226.911V61.3478H221.609V55.2647H232.295V52.963H221.568V51.1134H234.556V57.0732H223.89V59.4776H234.987V61.3478H229.172V64.3688H236.57V66.2594ZM258.806 61.2861H256.607V49.8393H258.806V61.2861ZM255.292 61.2656H253.134V60.4846H250.175V58.9228H253.134V50.1681H255.292V61.2656ZM242.653 56.8266C244.407 56.8266 246.112 56.7923 247.77 56.7238C249.428 56.6553 250.928 56.5183 252.271 56.3128L252.415 57.8541C251.346 58.087 250.133 58.2583 248.777 58.3679V61.2039H246.578V58.5015C245.921 58.5357 245.009 58.5529 243.845 58.5529H242.879L242.653 56.8266ZM248.037 63.3207H256.525V61.9027H258.806V68.1912H245.777V61.9027H248.037V63.3207ZM256.525 66.4033V65.0675H248.037V66.4033H256.525ZM247.585 50.4969C248.393 50.4969 249.102 50.6099 249.712 50.836C250.329 51.0552 250.805 51.3737 251.14 51.7916C251.483 52.2026 251.654 52.689 251.654 53.2507C251.654 53.8056 251.483 54.292 251.14 54.7098C250.805 55.1277 250.329 55.4531 249.712 55.686C249.096 55.9121 248.387 56.0251 247.585 56.0251C246.777 56.0251 246.061 55.9121 245.438 55.686C244.821 55.4531 244.342 55.1277 243.999 54.7098C243.663 54.292 243.496 53.8056 243.496 53.2507C243.496 52.689 243.663 52.2026 243.999 51.7916C244.342 51.3737 244.821 51.0552 245.438 50.836C246.054 50.6099 246.77 50.4969 247.585 50.4969ZM247.585 52.0793C246.955 52.0793 246.462 52.1821 246.105 52.3876C245.749 52.5862 245.571 52.874 245.571 53.2507C245.571 53.6343 245.746 53.9255 246.095 54.1241C246.451 54.3228 246.948 54.4221 247.585 54.4221C248.209 54.4221 248.702 54.3228 249.065 54.1241C249.428 53.9255 249.613 53.6343 249.62 53.2507C249.613 52.874 249.424 52.5862 249.055 52.3876C248.691 52.1821 248.202 52.0793 247.585 52.0793ZM272.822 54.2988C272.822 55.4634 273 56.5902 273.356 57.6794C273.719 58.7618 274.246 59.7208 274.938 60.5566C275.637 61.3923 276.466 62.0191 277.425 62.437L276.048 64.266C275.021 63.7659 274.133 63.0467 273.387 62.1082C272.647 61.1697 272.075 60.0805 271.671 58.8406C271.253 60.1558 270.664 61.3135 269.903 62.3137C269.15 63.3138 268.252 64.081 267.211 64.6154L265.773 62.7658C266.752 62.3068 267.595 61.6355 268.3 60.7518C269.013 59.8681 269.554 58.8645 269.924 57.7411C270.301 56.6176 270.493 55.4702 270.499 54.2988V51.3395H272.822V54.2988ZM281.535 68.4378H279.275V57.6897H275.37V55.8401H279.275V49.8393H281.535V68.4378ZM299.599 68.4378H297.298V49.8393H299.599V68.4378ZM287.413 56.0045H291.913V51.36H294.174V64.0605H285.132V51.36H287.413V56.0045ZM291.913 62.1904V57.7925H287.413V62.1904H291.913ZM311.93 52.3876C311.93 53.3398 312.218 54.268 312.793 55.1722C313.375 56.0765 314.177 56.8574 315.198 57.515C316.218 58.1658 317.362 58.6008 318.63 58.82L317.602 60.7313C316.047 60.4024 314.663 59.7962 313.451 58.9125C312.245 58.022 311.341 56.9499 310.738 55.6963C310.122 56.943 309.207 58.0117 307.995 58.9022C306.782 59.7859 305.402 60.3956 303.853 60.7313L302.847 58.82C304.1 58.594 305.23 58.1555 306.237 57.5048C307.251 56.8471 308.046 56.0662 308.621 55.162C309.204 54.2577 309.498 53.3329 309.505 52.3876V51.0107H311.93V52.3876ZM319.308 66.0539H302.333V64.1633H319.308V66.0539ZM334.947 60.2175H326.151V51.4422H334.947V60.2175ZM328.391 58.409H332.707V53.2713H328.391V58.409ZM340.167 55.2853H342.756V57.1965H340.167V63.4029H337.886V49.8393H340.167V55.2853ZM340.907 68.0474H328.268V62.0876H330.549V66.1978H340.907V68.0474ZM360.656 59.0872H343.702V57.2787H360.656V59.0872ZM358.642 56.0867H345.86V50.3119H358.478V52.141H348.141V54.2783H358.642V56.0867ZM358.519 65.0264H347.956V66.4444H359.033V68.2323H345.716V63.3823H356.279V62.0876H345.695V60.3613H358.519V65.0264ZM377.405 68.4173H375.103V49.8393H377.405V68.4173ZM371.856 51.8122C371.856 54.7646 371.189 57.3575 369.853 59.5907C368.517 61.817 366.301 63.6632 363.204 65.1291L362.013 63.3001C364.403 62.163 366.201 60.8032 367.407 59.2208C368.62 57.6315 369.329 55.7648 369.534 53.6206H362.958V51.8122H371.856Z" fill="#1E293B"/>
</g>
<defs>
<filter id="filter0_d_912_16979" x="0.4" y="0.8" width="625.2" height="196.2" filterUnits="userSpaceOnUse" color-interpolation-filters="sRGB">
<feFlood flood-opacity="0" result="BackgroundImageFix"/>
<feColorMatrix in="SourceAlpha" type="matrix" values="0 0 0 0 0 0 0 0 0 0 0 0 0 0 0 0 0 0 127 0" result="hardAlpha"/>
<feOffset dy="2.4"/>
<feGaussianBlur stdDeviation="9.3"/>
<feComposite in2="hardAlpha" operator="out"/>
<feColorMatrix type="matrix" values="0 0 0 0 0.788032 0 0 0 0 0.820893 0 0 0 0 0.903044 0 0 0 0.5 0"/>
<feBlend mode="normal" in2="BackgroundImageFix" result="effect1_dropShadow_912_16979"/>
<feBlend mode="normal" in="SourceGraphic" in2="effect1_dropShadow_912_16979" result="shape"/>
</filter>
</defs>
</svg>
