<svg width="100%" height="100%" viewBox="0 0 490 184" fill="none" xmlns="http://www.w3.org/2000/svg">
<g filter="url(#filter0_d_912_17246)">
<rect x="40" y="35" width="410" height="103.5" rx="25.75" fill="white"/>
<rect x="41.0729" y="36.0729" width="407.854" height="101.354" rx="24.6771" stroke="#6F63FF" stroke-width="2.14583"/>
<rect x="91.1771" y="68.5104" width="36.4792" height="36.4792" rx="11.8021" fill="white" stroke="#E2E8F0" stroke-width="2.14583"/>
<path d="M170.298 101.734H166.577V86.3109H160.173V83.2598H166.577V71.4242H170.298V101.734ZM160.307 74.6429C160.295 77.7946 159.86 80.6725 158.999 83.2765C158.15 85.8806 156.719 88.2835 154.707 90.4852C152.707 92.6757 150.025 94.6036 146.661 96.2689L144.716 93.3519C148.549 91.4743 151.399 89.2502 153.266 86.6797C155.132 84.1092 156.227 81.0804 156.551 77.5934H146.124V74.6429H160.307ZM202.217 88.9596H190.214V91.8766H198.831V101.734H195.109V94.8942H177.641V91.8766H186.526V88.9596H174.59V86.0091H202.217V88.9596ZM181.866 75.1794H194.942V72.1618H198.63V83.7627H178.177V72.1618H181.866V75.1794ZM194.942 80.7786V77.9622H181.866V80.7786H194.942ZM228.37 83.1927H219.921V86.3779H231.89V89.3955H204.263V86.3779H216.165V83.1927H207.75V72.6647H228.37V83.1927ZM211.371 80.2422H224.682V75.5817H211.371V80.2422ZM228.504 101.734H224.782V94.8942H207.314V91.9437H228.504V101.734ZM269.711 91.3402H257.674V101.701H253.986V91.3402H242.083V88.3226H269.711V91.3402ZM267.162 76.0846H258.059C258.138 77.1911 258.613 78.2584 259.484 79.2866C260.356 80.3037 261.552 81.1754 263.072 81.9019C264.592 82.6283 266.324 83.1145 268.269 83.3604L266.928 86.2773C264.357 85.9197 262.105 85.1821 260.172 84.0645C258.249 82.9468 256.824 81.561 255.897 79.9069C254.969 81.5498 253.544 82.9357 251.622 84.0645C249.7 85.1821 247.47 85.9197 244.933 86.2773L243.525 83.3604C245.458 83.1145 247.179 82.6283 248.688 81.9019C250.208 81.1754 251.404 80.3037 252.276 79.2866C253.159 78.2584 253.645 77.1911 253.734 76.0846H244.631V73.1341H267.162V76.0846ZM281.58 73.5365C283.156 73.5253 284.575 73.8326 285.838 74.4585C287.112 75.0732 288.107 75.9393 288.822 77.057C289.548 78.1746 289.917 79.4375 289.928 80.8457C289.917 82.2651 289.548 83.5336 288.822 84.6512C288.107 85.7688 287.118 86.6406 285.855 87.2664C284.592 87.8811 283.167 88.1885 281.58 88.1885C280.004 88.1885 278.585 87.8755 277.322 87.2497C276.059 86.6238 275.064 85.7576 274.338 84.6512C273.622 83.5336 273.265 82.2651 273.265 80.8457C273.265 79.4375 273.622 78.1746 274.338 77.057C275.064 75.9393 276.059 75.0732 277.322 74.4585C278.596 73.8326 280.015 73.5253 281.58 73.5365ZM281.58 76.7552C280.697 76.7552 279.903 76.9228 279.199 77.2581C278.495 77.5934 277.942 78.074 277.54 78.6999C277.148 79.3146 276.953 80.0298 276.953 80.8457C276.953 81.6727 277.148 82.3992 277.54 83.0251C277.942 83.6398 278.495 84.1147 279.199 84.45C279.903 84.7741 280.697 84.9362 281.58 84.9362C282.474 84.9362 283.273 84.7741 283.977 84.45C284.692 84.1147 285.251 83.6398 285.654 83.0251C286.067 82.3992 286.274 81.6727 286.274 80.8457C286.274 80.0298 286.067 79.3146 285.654 78.6999C285.251 78.074 284.692 77.5934 283.977 77.2581C283.273 76.9228 282.474 76.7552 281.58 76.7552ZM297.003 101.768H293.281V71.4242H297.003V101.768ZM271.89 92.3796C275.601 92.3796 279.065 92.3181 282.284 92.1951C285.514 92.061 288.576 91.7872 291.471 91.3737L291.772 94.0895C288.777 94.6707 285.732 95.0395 282.636 95.196C279.551 95.3524 276.126 95.4307 272.359 95.4307L271.89 92.3796ZM329.123 98.0794H301.429V95.0283H313.365V89.1273H304.48V73.4359H308.202V78.3981H322.25V73.4359H325.972V89.1273H317.053V95.0283H329.123V98.0794ZM322.25 86.1097V81.3822H308.202V86.1097H322.25ZM363.155 77.5264H367.38V80.611H363.155V86.6462H359.433V71.4242H363.155V77.5264ZM363.155 95.9001H347.061V98.4147H364.094V101.365H343.373V93.1842H359.433V90.8372H343.34V87.9538H363.155V95.9001ZM347.631 72.43C349.162 72.43 350.537 72.7206 351.755 73.3018C352.973 73.8717 353.929 74.6764 354.622 75.7158C355.315 76.744 355.667 77.9175 355.678 79.2363C355.667 80.5328 355.315 81.7007 354.622 82.7401C353.929 83.7683 352.968 84.573 351.738 85.1541C350.52 85.7241 349.151 86.0091 347.631 86.0091C346.1 86.0091 344.72 85.7185 343.49 85.1374C342.272 84.5562 341.311 83.7515 340.607 82.7233C339.914 81.6951 339.573 80.5328 339.584 79.2363C339.573 77.9175 339.914 76.744 340.607 75.7158C341.3 74.6764 342.261 73.8717 343.49 73.3018C344.72 72.7206 346.1 72.43 347.631 72.43ZM347.631 75.4476C346.782 75.4476 346.022 75.6041 345.351 75.917C344.681 76.2299 344.155 76.6714 343.775 77.2414C343.407 77.8114 343.228 78.4763 343.239 79.2363C343.228 79.9851 343.407 80.6501 343.775 81.2313C344.155 81.8124 344.681 82.2651 345.351 82.5892C346.022 82.9021 346.782 83.0586 347.631 83.0586C348.469 83.0586 349.224 82.9021 349.894 82.5892C350.576 82.2651 351.107 81.8124 351.487 81.2313C351.867 80.6501 352.057 79.9851 352.057 79.2363C352.057 78.4763 351.867 77.8114 351.487 77.2414C351.107 76.6714 350.582 76.2299 349.911 75.917C349.241 75.6041 348.481 75.4476 347.631 75.4476ZM394.169 89.429H390.414V71.4577H394.169V89.429ZM384.446 82.0192H374.186V85.1709C377.036 85.1597 379.439 85.0983 381.395 84.9865C383.362 84.8636 385.362 84.6344 387.396 84.2992L387.866 87.3167C385.608 87.6744 383.384 87.9147 381.193 88.0376C379.014 88.1605 376.321 88.222 373.113 88.222H370.531V79.1693H380.758V76.1852H370.464V73.2347H384.446V82.0192ZM394.169 101.365H374.052V90.8372H394.169V101.365ZM377.74 98.3477H390.514V93.8213H377.74V98.3477Z" fill="#6F63FF"/>
</g>
<defs>
<filter id="filter0_d_912_17246" x="0.0874977" y="0.237498" width="489.825" height="183.325" filterUnits="userSpaceOnUse" color-interpolation-filters="sRGB">
<feFlood flood-opacity="0" result="BackgroundImageFix"/>
<feColorMatrix in="SourceAlpha" type="matrix" values="0 0 0 0 0 0 0 0 0 0 0 0 0 0 0 0 0 0 127 0" result="hardAlpha"/>
<feOffset dy="5.15"/>
<feGaussianBlur stdDeviation="19.9563"/>
<feComposite in2="hardAlpha" operator="out"/>
<feColorMatrix type="matrix" values="0 0 0 0 0.788032 0 0 0 0 0.820893 0 0 0 0 0.903044 0 0 0 0.5 0"/>
<feBlend mode="normal" in2="BackgroundImageFix" result="effect1_dropShadow_912_17246"/>
<feBlend mode="normal" in="SourceGraphic" in2="effect1_dropShadow_912_17246" result="shape"/>
</filter>
</defs>
</svg>
