
  <svg
    width="100%"
    height="100%"
    viewBox="0 0 481 226"
    fill="none"
    xmlns="http://www.w3.org/2000/svg"
  >
    <g filter="url(#filter0_d_912_16700)">
      <rect
        x="19"
        y="17"
        width="442.682"
        height="188"
        rx="9.03432"
        fill="white"
      />
      <rect
        x="19.3764"
        y="17.3764"
        width="441.929"
        height="187.247"
        rx="8.65789"
        stroke="#F1F5F9"
        stroke-width="0.75286"
      />
    </g>
    <path
      d="M395.176 46.825H386.735V46.0118H390.451V43.8812H387.703V39.4963H394.167V43.8812H391.419V46.0118H395.176V46.825ZM388.65 43.1092H393.21V40.2786H388.65V43.1092ZM403.235 42.9239H396.977V39.2802H403.122V40.0727H397.965V42.1519H403.235V42.9239ZM404.275 44.8384H400.507V47.9572H399.55V44.8384H395.834V44.0459H404.275V44.8384ZM415.967 46.8353H407.527V46.0221H411.243V44.1282H408.495V39.3831H409.473V40.9682H414.001V39.3831H414.969V44.1282H412.211V46.0221H415.967V46.8353ZM414.001 43.3356V41.7608H409.473V43.3356H414.001ZM424.305 47.9778H423.317V38.7552H424.305V47.9778ZM421.557 39.7434C421.557 41.1707 421.215 42.4401 420.532 43.5518C419.853 44.66 418.757 45.5761 417.244 46.3L416.729 45.5075C417.94 44.931 418.858 44.2294 419.483 43.4025C420.11 42.5757 420.472 41.6167 420.568 40.5256H417.172V39.7434H421.557Z"
      fill="#475569"
    />
    <path
      d="M433.89 40.3042L437.654 44.0685L433.89 47.8328"
      stroke="#475569"
      stroke-width="1.35515"
      stroke-linecap="round"
      stroke-linejoin="round"
    />
    <rect
      x="37.0684"
      y="29.0459"
      width="30.1144"
      height="30.1144"
      rx="11.2929"
      fill="#6F63FF"
    />
    <rect
      x="46.0455"
      y="40.0879"
      width="10.0381"
      height="10.0381"
      rx="2.67684"
      fill="#EBE9FF"
    />
    <rect
      x="48.0531"
      y="38.0802"
      width="10.0381"
      height="10.0381"
      rx="2.67684"
      fill="white"
    />
    <path
      d="M78.314 46.1212C79.4609 46.0551 80.4843 45.9558 81.3842 45.8235L81.5033 46.9087C80.3167 47.1248 79.1036 47.266 77.864 47.3321C76.6288 47.3939 75.2878 47.4248 73.8409 47.4248L73.6556 46.2337C75.0452 46.2249 76.1083 46.2095 76.845 46.1874V44.1825H78.314V46.1212ZM80.8946 40.4373H78.3338C78.3603 40.8696 78.4882 41.2777 78.7176 41.6614C78.947 42.0408 79.2756 42.3761 79.7035 42.6672C80.1314 42.9539 80.6387 43.1723 81.2254 43.3223L80.5505 44.4736C79.8535 44.2839 79.2536 43.9928 78.7507 43.6002C78.2478 43.2076 77.8574 42.74 77.5795 42.1974C77.3148 42.7709 76.931 43.2627 76.4281 43.673C75.9297 44.0788 75.3319 44.3766 74.6349 44.5663L73.9336 43.4546C74.5247 43.2914 75.0298 43.0598 75.4488 42.7598C75.8723 42.4599 76.1987 42.1114 76.4281 41.7144C76.6575 41.3174 76.7855 40.8917 76.8119 40.4373H74.2909V39.2463H76.845V37.8832H78.314V39.2463H80.8946V40.4373ZM83.5678 49.7539H82.0988V37.7773H83.5678V49.7539ZM94.9092 39.458C94.9092 40.155 94.8938 40.7748 94.8629 41.3174C94.832 41.8599 94.757 42.4665 94.6379 43.137H96.2459V44.3413H85.3147V43.137H93.1425C93.266 42.4885 93.3454 41.8996 93.3807 41.3703C93.4204 40.8409 93.4403 40.2697 93.4403 39.6565H86.6645V38.4655H94.9092V39.458ZM95.2533 49.4893H86.7307V45.4794H88.1864V48.2982H95.2533V49.4893ZM111.16 44.5266H100.242V43.3223H111.16V44.5266ZM109.903 42.3827H101.579V38.1611H109.837V39.3521H103.048V41.2049H109.903V42.3827ZM105.682 45.3603C106.537 45.3559 107.274 45.4397 107.892 45.6117C108.514 45.7794 108.99 46.0264 109.321 46.3528C109.652 46.6793 109.819 47.0719 109.824 47.5307C109.819 47.9938 109.652 48.3887 109.321 48.7151C108.99 49.0459 108.516 49.2974 107.898 49.4694C107.281 49.6415 106.542 49.7275 105.682 49.7275C104.813 49.7275 104.065 49.6415 103.438 49.4694C102.816 49.2974 102.34 49.0459 102.009 48.7151C101.678 48.3887 101.513 47.9938 101.513 47.5307C101.513 47.0719 101.678 46.6793 102.009 46.3528C102.34 46.0264 102.819 45.7794 103.445 45.6117C104.071 45.4397 104.817 45.3559 105.682 45.3603ZM105.682 46.4852C104.808 46.4852 104.142 46.5756 103.683 46.7565C103.225 46.9329 103 47.191 103.008 47.5307C103.004 47.8791 103.229 48.1438 103.683 48.3247C104.138 48.5011 104.804 48.5894 105.682 48.5894C106.542 48.5894 107.201 48.5011 107.66 48.3247C108.119 48.1438 108.35 47.8791 108.355 47.5307C108.35 47.1954 108.117 46.9373 107.653 46.7565C107.195 46.5756 106.537 46.4852 105.682 46.4852ZM122.872 45.4397H111.941V44.2487H116.679V43.2561H113.331V40.08H120.054V39.1933H113.291V38.042H121.523V41.1519H114.787V42.1048H121.761V43.2561H118.135V44.2487H122.872V45.4397ZM121.589 49.6613H120.107V47.3586H113.159V46.194H121.589V49.6613ZM133.102 41.5489H134.77V42.7665H133.102V46.7234H131.633V37.7905H133.102V41.5489ZM130.773 40.2917H123.68V39.1139H126.498V37.7773H127.967V39.1139H130.773V40.2917ZM127.226 40.7814C127.795 40.7814 128.301 40.8762 128.742 41.0659C129.183 41.2556 129.527 41.5247 129.774 41.8732C130.021 42.2173 130.147 42.6165 130.151 43.0708C130.147 43.5208 130.021 43.9178 129.774 44.2619C129.527 44.6016 129.183 44.8662 128.742 45.0559C128.301 45.2412 127.795 45.3338 127.226 45.3338C126.653 45.3338 126.143 45.2412 125.698 45.0559C125.252 44.8662 124.906 44.6016 124.659 44.2619C124.412 43.9178 124.288 43.5208 124.288 43.0708C124.288 42.6165 124.412 42.2173 124.659 41.8732C124.906 41.5247 125.252 41.2556 125.698 41.0659C126.143 40.8762 126.653 40.7814 127.226 40.7814ZM127.226 41.9195C126.763 41.9195 126.395 42.021 126.121 42.2239C125.852 42.4268 125.718 42.7091 125.718 43.0708C125.718 43.4237 125.854 43.7017 126.128 43.9046C126.401 44.1075 126.768 44.2045 127.226 44.1957C127.685 44.2045 128.053 44.1075 128.331 43.9046C128.609 43.7017 128.748 43.4237 128.748 43.0708C128.748 42.7091 128.609 42.4268 128.331 42.2239C128.058 42.021 127.69 41.9195 127.226 41.9195ZM133.579 49.5025H125.44V46.022H126.909V48.3115H133.579V49.5025ZM148.03 40.4505H149.711V41.6416H148.03V44.2751H146.561V37.7508H148.03V40.4505ZM148.03 47.6895H141.678V48.5364H148.401V49.6348H140.222V46.6705H146.561V45.8764H140.209V44.8045H148.03V47.6895ZM145.701 39.8682H138.607V38.7434H141.426V37.6847H142.895V38.7434H145.701V39.8682ZM142.154 40.2388C142.741 40.2432 143.253 40.327 143.689 40.4902C144.13 40.649 144.47 40.8762 144.708 41.1718C144.951 41.4629 145.074 41.8048 145.079 42.1974C145.074 42.6032 144.951 42.9539 144.708 43.2495C144.47 43.5406 144.133 43.7656 143.696 43.9244C143.259 44.0788 142.745 44.156 142.154 44.156C141.563 44.156 141.047 44.0788 140.606 43.9244C140.165 43.7656 139.823 43.5406 139.58 43.2495C139.338 42.9539 139.216 42.6032 139.216 42.1974C139.216 41.8048 139.338 41.4629 139.58 41.1718C139.823 40.8762 140.165 40.649 140.606 40.4902C141.051 40.327 141.567 40.2432 142.154 40.2388ZM142.154 41.2975C141.687 41.2975 141.318 41.3769 141.049 41.5357C140.78 41.6945 140.645 41.9151 140.645 42.1974C140.645 42.4841 140.78 42.7069 141.049 42.8657C141.318 43.0201 141.687 43.0973 142.154 43.0973C142.626 43.0973 142.997 43.0201 143.266 42.8657C143.539 42.7069 143.676 42.4841 143.676 42.1974C143.676 41.9151 143.539 41.6945 143.266 41.5357C142.992 41.3769 142.622 41.2975 142.154 41.2975ZM156.91 38.1611C157.51 38.1611 158.05 38.278 158.531 38.5118C159.012 38.7412 159.389 39.061 159.663 39.4712C159.94 39.8815 160.082 40.3447 160.086 40.8608C160.082 41.3813 159.94 41.8467 159.663 42.257C159.389 42.6672 159.012 42.987 158.531 43.2164C158.05 43.4458 157.51 43.5605 156.91 43.5605C156.306 43.5605 155.761 43.4458 155.276 43.2164C154.795 42.987 154.418 42.6672 154.144 42.257C153.871 41.8467 153.734 41.3813 153.734 40.8608C153.734 40.3447 153.871 39.8815 154.144 39.4712C154.418 39.061 154.797 38.7412 155.282 38.5118C155.767 38.278 156.31 38.1611 156.91 38.1611ZM156.91 39.3786C156.575 39.3786 156.275 39.4403 156.01 39.5639C155.745 39.683 155.538 39.855 155.388 40.08C155.238 40.3005 155.163 40.5608 155.163 40.8608C155.163 41.1652 155.238 41.432 155.388 41.6614C155.538 41.8864 155.745 42.0607 156.01 42.1842C156.275 42.3077 156.575 42.3694 156.91 42.3694C157.245 42.3694 157.545 42.3077 157.81 42.1842C158.075 42.0607 158.282 41.8864 158.432 41.6614C158.582 41.432 158.657 41.1652 158.657 40.8608C158.657 40.5608 158.582 40.3005 158.432 40.08C158.282 39.855 158.075 39.683 157.81 39.5639C157.545 39.4403 157.245 39.3786 156.91 39.3786ZM163.487 43.8252H162.005V37.7773H163.487V43.8252ZM163.487 47.4645H157.016V48.4306H163.844V49.5951H155.573V46.3793H162.018V45.4926H155.547V44.3413H163.487V47.4645Z"
      fill="#1E293B"
    />
    <g clip-path="url(#clip0_912_16700)">
      <rect
        width="406.544"
        height="115.94"
        transform="translate(37.0684 71.2061)"
        fill="white"
      />
      <rect
        x="39.7034"
        y="73.8411"
        width="12.7986"
        height="12.7986"
        rx="4.14073"
        fill="white"
        stroke="#E2E8F0"
        stroke-width="0.75286"
      />
      <path
        d="M64.6291 78.2052C64.6257 78.6855 64.7286 79.1744 64.9379 79.6719C65.1507 80.166 65.4389 80.6137 65.8025 81.0152C66.1662 81.4132 66.5677 81.7151 67.0068 81.921L66.5436 82.5591C66.0324 82.3121 65.571 81.9347 65.1592 81.4269C64.7509 80.9191 64.4422 80.353 64.2329 79.7285C64.0956 80.1746 63.9069 80.5983 63.6667 80.9997C63.4266 81.4012 63.1521 81.7563 62.8433 82.0651C62.5345 82.3704 62.2103 82.6106 61.8706 82.7856L61.3766 82.1474C61.8123 81.9381 62.2171 81.6207 62.5911 81.1953C62.9685 80.7699 63.2688 80.2929 63.4918 79.7646C63.7182 79.2362 63.8332 78.7164 63.8366 78.2052V77.0112H61.7059V76.3421H66.6877V77.0112H64.6291V78.2052ZM68.6125 79.1007H70.1462V79.7903H68.6125V84.5457H67.8097V75.3952H68.6125V79.1007ZM77.7219 78.9977H79.2555V79.6977H77.7219V84.5457H76.919V75.3952H77.7219V78.9977ZM71.824 78.5963H74.5001V76.1775H75.303V82.3533H71.0211V76.1775H71.824V78.5963ZM74.5001 81.6739V79.2448H71.824V81.6739H74.5001ZM84.3094 76.7436C84.3094 77.2411 84.4758 77.7231 84.8086 78.1897C85.1448 78.6529 85.5754 79.0475 86.1004 79.3734C86.6253 79.696 87.1571 79.907 87.6958 80.0065L87.3252 80.6858C86.8586 80.576 86.3989 80.3976 85.946 80.1506C85.4931 79.9035 85.0865 79.5982 84.7262 79.2345C84.366 78.8708 84.0898 78.4711 83.8977 78.0353C83.7055 78.4677 83.4293 78.8657 83.0691 79.2293C82.7088 79.593 82.3022 79.9001 81.8494 80.1506C81.3999 80.3976 80.9401 80.576 80.4701 80.6858L80.0995 80.0065C80.6382 79.9001 81.1683 79.6874 81.6898 79.3683C82.2113 79.0458 82.6368 78.6529 82.9661 78.1897C83.2989 77.7266 83.4654 77.2445 83.4654 76.7436V76.0437H84.3094V76.7436ZM88.1281 83.3002H79.7496V82.6312H88.1281V83.3002ZM96.1566 77.4641C96.1566 78.0542 96.1498 78.55 96.136 78.9514C96.1258 79.3529 96.0932 79.8023 96.0383 80.2998C95.9834 80.7939 95.8959 81.3308 95.7758 81.9107L94.9626 81.8386C95.1445 81.0461 95.2629 80.2621 95.3178 79.4867L89.7338 79.7903L89.6206 79.1213L95.3486 78.8845C95.3555 78.6924 95.3606 78.502 95.3641 78.3133C95.3675 78.1211 95.3709 77.9307 95.3744 77.742V77.4641V77.0112H89.8676V76.3319H96.1566V77.4641ZM97.1962 83.2591H88.8589V82.5797H97.1962V83.2591ZM105.523 80.4285H104.72V75.4055H105.523V80.4285ZM102.61 78.3184H99.2342V79.5639C100.181 79.557 100.97 79.5364 101.602 79.5021C102.236 79.4644 102.895 79.3889 103.578 79.2757L103.671 79.9447C102.957 80.0579 102.269 80.1351 101.607 80.1763C100.945 80.214 100.14 80.2363 99.1931 80.2432H98.452V77.6802H101.807V76.5171H98.4314V75.8481H102.61V78.3184ZM100.387 81.9827H104.72V80.8917H105.523V84.4222H99.5739V80.8917H100.387V81.9827ZM104.72 83.7634V82.6312H100.387V83.7634H104.72ZM114.488 81.0049H108.158V76.1878H114.386V76.8671H108.982V78.2258H114.19V78.8742H108.982V80.3461H114.488V81.0049ZM115.456 83.3517H107.078V82.6826H115.456V83.3517ZM126.397 84.5457H125.584V75.3952H126.397V84.5457ZM123.69 76.3936C123.684 77.7763 123.334 79.0183 122.641 80.1197C121.947 81.2176 120.863 82.12 119.388 82.8267L118.945 82.168C120.167 81.5882 121.102 80.8676 121.75 80.0065C122.402 79.1453 122.774 78.1606 122.867 77.0524H119.367V76.3936H123.69ZM136.32 83.3929H127.941V82.7135H131.719V80.6137H132.512V82.7135H136.32V83.3929ZM135.517 77.5258H132.532C132.532 77.989 132.681 78.4145 132.98 78.8022C133.278 79.1899 133.676 79.5141 134.174 79.7749C134.675 80.0322 135.222 80.2089 135.816 80.305L135.507 80.9431C134.742 80.8059 134.055 80.5537 133.448 80.1866C132.841 79.816 132.397 79.3546 132.115 78.8022C131.837 79.3546 131.395 79.816 130.787 80.1866C130.18 80.5537 129.492 80.8059 128.724 80.9431L128.405 80.305C129.002 80.2089 129.551 80.0322 130.052 79.7749C130.556 79.5141 130.957 79.1899 131.256 78.8022C131.558 78.4145 131.709 77.989 131.709 77.5258H128.724V76.8568H131.719V75.5908H132.512V76.8568H135.517V77.5258ZM144.06 77.2068H142.403C142.407 77.5464 142.487 77.8792 142.645 78.2052C142.803 78.5277 143.024 78.8176 143.309 79.0749C143.594 79.3323 143.923 79.533 144.297 79.6771L143.916 80.2844C143.477 80.1128 143.096 79.8675 142.774 79.5484C142.455 79.2259 142.211 78.8571 142.043 78.4419C141.878 78.8948 141.633 79.298 141.307 79.6514C140.984 80.0047 140.602 80.2741 140.159 80.4594L139.758 79.8418C140.132 79.6874 140.459 79.4747 140.741 79.2036C141.022 78.9291 141.24 78.6186 141.394 78.2721C141.549 77.9256 141.631 77.5704 141.641 77.2068H139.953V76.5377H141.641V75.4775H142.403V76.5377H144.06V77.2068ZM147.467 80.5211H146.695V78.2566H145.501V80.4696H144.719V75.5702H145.501V77.5876H146.695V75.4055H147.467V80.5211ZM142.238 81.9621H146.675V80.902H147.467V84.4222H141.436V80.902H142.238V81.9621ZM146.675 83.7634V82.6106H142.238V83.7634H146.675ZM156.391 84.5663H155.588V79.5227H153.653V78.8536H155.588V75.3952H156.391V84.5663ZM153.499 76.9083H150.041V78.8125H153.098V79.4712H150.041V81.6842C150.915 81.6842 151.65 81.6654 152.243 81.6276C152.84 81.5864 153.444 81.5127 154.055 81.4063L154.147 82.0754C153.499 82.1817 152.861 82.2555 152.233 82.2967C151.605 82.3344 150.837 82.3533 149.927 82.3533H149.227V76.2392H153.499V76.9083ZM158.059 81.4269L161.414 76.2598H162.557V81.3754H163.596V82.1886H162.557V83.7119H161.672V82.1886H158.059V81.4269ZM161.672 81.3754V77.4332H161.579L159.057 81.3137V81.3754H161.672ZM175.485 80.3873H167.137V79.6977H175.485V80.3873ZM174.517 78.7198H168.218V75.6834H174.414V76.3627H169.031V78.0611H174.517V78.7198ZM174.558 84.4222H168.197V81.3754H174.476V82.0342H169V83.7531H174.558V84.4222ZM183.812 84.5457H182.999V75.3952H183.812V84.5457ZM181.105 76.3936C181.098 77.7763 180.748 79.0183 180.055 80.1197C179.362 81.2176 178.278 82.12 176.802 82.8267L176.36 82.168C177.581 81.5882 178.516 80.8676 179.165 80.0065C179.817 79.1453 180.189 78.1606 180.281 77.0524H176.782V76.3936H181.105Z"
        fill="#1E293B"
      />
      <circle cx="386.396" cy="80.2406" r="9.03432" fill="#F8FAFC" />
      <path
        d="M383.585 76.9782C383.585 76.9505 383.608 76.928 383.635 76.928H386.396H387.799C387.814 76.928 387.828 76.9343 387.837 76.9452L388.177 76.6477L387.837 76.9452L388.564 77.7759L389.195 78.5115C389.202 78.5206 389.207 78.5322 389.207 78.5441V80.2406V83.503C389.207 83.5307 389.184 83.5532 389.156 83.5532H383.635C383.608 83.5532 383.585 83.5307 383.585 83.503V76.9782Z"
        stroke="#64748B"
        stroke-width="0.903432"
      />
      <circle cx="410.488" cy="80.2406" r="9.03432" fill="#F4F4FF" />
      <path
        d="M411.491 79.2368L409.484 81.2444"
        stroke="#7E73FF"
        stroke-width="1.00381"
        stroke-linecap="round"
        stroke-linejoin="round"
      />
      <path
        d="M412.495 80.7425L413.499 79.7387C414.192 79.0457 414.192 77.9222 413.499 77.2292V77.2292C412.806 76.5362 411.683 76.5362 410.99 77.2292L409.986 78.233M408.48 79.7387L407.476 80.7425C406.783 81.4355 406.783 82.5591 407.476 83.2521V83.2521C408.169 83.9451 409.293 83.9451 409.986 83.2521L410.99 82.2483"
        stroke="#7E73FF"
        stroke-width="1.00381"
        stroke-linecap="round"
      />
      <circle cx="434.579" cy="80.2406" r="9.03432" fill="#F8FAFC" />
      <rect
        x="431.157"
        y="76.3667"
        width="6.77574"
        height="7.81816"
        rx="1.04242"
        fill="#7E73FF"
      />
      <path
        d="M432.721 78.7122H436.369"
        stroke="white"
        stroke-width="0.729695"
        stroke-linecap="round"
      />
      <path
        d="M432.72 80.2759H436.369"
        stroke="white"
        stroke-width="0.729695"
        stroke-linecap="round"
      />
      <path
        d="M432.72 81.8395H436.369"
        stroke="white"
        stroke-width="0.729695"
        stroke-linecap="round"
      />
      <rect
        x="39.7036"
        y="97.9325"
        width="12.7986"
        height="12.7986"
        rx="4.14073"
        fill="white"
        stroke="#E2E8F0"
        stroke-width="0.75286"
      />
      <path
        d="M64.6288 101.825C64.6254 102.305 64.7283 102.794 64.9376 103.292C65.1504 103.786 65.4386 104.234 65.8022 104.635C66.1659 105.033 66.5674 105.335 67.0065 105.541L66.5433 106.179C66.0321 105.932 65.5707 105.555 65.1589 105.047C64.7506 104.539 64.4419 103.973 64.2326 103.348C64.0953 103.794 63.9066 104.218 63.6664 104.62C63.4263 105.021 63.1518 105.376 62.843 105.685C62.5342 105.99 62.21 106.23 61.8703 106.405L61.3762 105.767C61.812 105.558 62.2168 105.241 62.5908 104.815C62.9682 104.39 63.2684 103.913 63.4915 103.384C63.7179 102.856 63.8328 102.336 63.8363 101.825V100.631H61.7056V99.962H66.6874V100.631H64.6288V101.825ZM68.6122 102.721H70.1459V103.41H68.6122V108.166H67.8094V99.0151H68.6122V102.721ZM77.7215 102.618H79.2552V103.318H77.7215V108.166H76.9187V99.0151H77.7215V102.618ZM71.8237 102.216H74.4998V99.7973H75.3027V105.973H71.0208V99.7973H71.8237V102.216ZM74.4998 105.294V102.865H71.8237V105.294H74.4998ZM84.3091 100.363C84.3091 100.861 84.4755 101.343 84.8083 101.81C85.1445 102.273 85.5751 102.667 86.1001 102.993C86.625 103.316 87.1568 103.527 87.6955 103.626L87.3249 104.306C86.8583 104.196 86.3986 104.017 85.9457 103.77C85.4928 103.523 85.0862 103.218 84.7259 102.854C84.3657 102.491 84.0895 102.091 83.8974 101.655C83.7052 102.088 83.429 102.486 83.0688 102.849C82.7085 103.213 82.3019 103.52 81.849 103.77C81.3996 104.017 80.9398 104.196 80.4698 104.306L80.0992 103.626C80.6379 103.52 81.168 103.307 81.6895 102.988C82.211 102.666 82.6365 102.273 82.9658 101.81C83.2986 101.346 83.465 100.864 83.465 100.363V99.6635H84.3091V100.363ZM88.1278 106.92H79.7493V106.251H88.1278V106.92ZM96.1563 101.084C96.1563 101.674 96.1495 102.17 96.1357 102.571C96.1255 102.973 96.0929 103.422 96.038 103.92C95.9831 104.414 95.8956 104.951 95.7755 105.531L94.9623 105.458C95.1442 104.666 95.2626 103.882 95.3174 103.107L89.7335 103.41L89.6203 102.741L95.3483 102.504C95.3552 102.312 95.3603 102.122 95.3638 101.933C95.3672 101.741 95.3706 101.551 95.3741 101.362V101.084V100.631H89.8673V99.9517H96.1563V101.084ZM97.1959 106.879H88.8586V106.2H97.1959V106.879ZM105.523 104.048H104.72V99.0254H105.523V104.048ZM102.61 101.938H99.2339V103.184C100.181 103.177 100.97 103.156 101.601 103.122C102.236 103.084 102.895 103.009 103.578 102.896L103.67 103.565C102.957 103.678 102.269 103.755 101.606 103.796C100.944 103.834 100.14 103.856 99.1928 103.863H98.4517V101.3H101.807V100.137H98.4311V99.468H102.61V101.938ZM100.387 105.603H104.72V104.512H105.523V108.042H99.5736V104.512H100.387V105.603ZM104.72 107.383V106.251H100.387V107.383H104.72ZM114.488 104.625H108.158V99.8076H114.385V100.487H108.981V101.846H114.19V102.494H108.981V103.966H114.488V104.625ZM115.456 106.972H107.077V106.303H115.456V106.972ZM126.397 108.166H125.584V99.0151H126.397V108.166ZM123.69 100.013C123.683 101.396 123.333 102.638 122.64 103.74C121.947 104.837 120.863 105.74 119.388 106.447L118.945 105.788C120.166 105.208 121.101 104.488 121.75 103.626C122.402 102.765 122.774 101.78 122.867 100.672H119.367V100.013H123.69ZM136.32 107.013H127.941V106.333H131.719V104.234H132.511V106.333H136.32V107.013ZM135.517 101.146H132.532C132.532 101.609 132.681 102.034 132.98 102.422C133.278 102.81 133.676 103.134 134.174 103.395C134.674 103.652 135.222 103.829 135.815 103.925L135.507 104.563C134.741 104.426 134.055 104.174 133.448 103.806C132.841 103.436 132.396 102.974 132.115 102.422C131.837 102.974 131.394 103.436 130.787 103.806C130.18 104.174 129.492 104.426 128.723 104.563L128.404 103.925C129.001 103.829 129.55 103.652 130.051 103.395C130.556 103.134 130.957 102.81 131.255 102.422C131.557 102.034 131.708 101.609 131.708 101.146H128.723V100.477H131.719V99.2106H132.511V100.477H135.517V101.146ZM144.06 100.827H142.403C142.406 101.166 142.487 101.499 142.645 101.825C142.803 102.148 143.024 102.437 143.309 102.695C143.593 102.952 143.923 103.153 144.297 103.297L143.916 103.904C143.477 103.733 143.096 103.487 142.773 103.168C142.454 102.846 142.211 102.477 142.043 102.062C141.878 102.515 141.633 102.918 141.307 103.271C140.984 103.625 140.602 103.894 140.159 104.079L139.758 103.462C140.131 103.307 140.459 103.095 140.74 102.823C141.022 102.549 141.24 102.238 141.394 101.892C141.549 101.545 141.631 101.19 141.641 100.827H139.953V100.158H141.641V99.0974H142.403V100.158H144.06V100.827ZM147.467 104.141H146.695V101.877H145.501V104.09H144.719V99.19H145.501V101.207H146.695V99.0254H147.467V104.141ZM142.238 105.582H146.674V104.522H147.467V108.042H141.435V104.522H142.238V105.582ZM146.674 107.383V106.23H142.238V107.383H146.674ZM156.391 108.186H155.588V103.143H153.653V102.474H155.588V99.0151H156.391V108.186ZM153.499 100.528H150.04V102.432H153.097V103.091H150.04V105.304C150.915 105.304 151.649 105.285 152.243 105.247C152.84 105.206 153.444 105.133 154.055 105.026L154.147 105.695C153.499 105.802 152.861 105.875 152.233 105.917C151.605 105.954 150.836 105.973 149.927 105.973H149.227V99.8591H153.499V100.528ZM158.058 105.047L161.414 99.8797H162.557V104.995H163.596V105.808H162.557V107.332H161.671V105.808H158.058V105.047ZM161.671 104.995V101.053H161.579L159.057 104.934V104.995H161.671ZM175.485 104.007H167.137V103.318H175.485V104.007ZM174.517 102.34H168.218V99.3033H174.414V99.9826H169.031V101.681H174.517V102.34ZM174.558 108.042H168.197V104.995H174.476V105.654H169V107.373H174.558V108.042ZM183.812 108.166H182.998V99.0151H183.812V108.166ZM181.105 100.013C181.098 101.396 180.748 102.638 180.055 103.74C179.362 104.837 178.277 105.74 176.802 106.447L176.359 105.788C177.581 105.208 178.516 104.488 179.164 103.626C179.816 102.765 180.188 101.78 180.281 100.672H176.781V100.013H181.105Z"
        fill="#1E293B"
      />
      <circle cx="410.487" cy="104.332" r="9.03432" fill="#F8FAFC" />
      <path
        d="M407.676 101.069C407.676 101.042 407.699 101.019 407.727 101.019H410.487H411.891C411.905 101.019 411.919 101.025 411.928 101.036L412.268 100.739L411.928 101.036L412.655 101.867L413.286 102.603C413.294 102.612 413.298 102.623 413.298 102.635V104.332V107.594C413.298 107.622 413.275 107.644 413.248 107.644H407.727C407.699 107.644 407.676 107.622 407.676 107.594V101.069Z"
        stroke="#64748B"
        stroke-width="0.903432"
      />
      <circle cx="434.579" cy="104.332" r="9.03432" fill="#F4F4FF" />
      <path
        d="M435.583 103.328L433.575 105.336"
        stroke="#7E73FF"
        stroke-width="1.00381"
        stroke-linecap="round"
        stroke-linejoin="round"
      />
      <path
        d="M436.586 104.834L437.59 103.83C438.283 103.137 438.283 102.013 437.59 101.32V101.32C436.897 100.627 435.774 100.627 435.081 101.32L434.077 102.324M432.571 103.83L431.567 104.834C430.874 105.527 430.874 106.65 431.567 107.343V107.343C432.26 108.036 433.384 108.036 434.077 107.343L435.081 106.339"
        stroke="#7E73FF"
        stroke-width="1.00381"
        stroke-linecap="round"
      />
      <circle cx="70.1945" cy="123.906" r="7.5286" fill="#F1F5F9" />
      <path
        d="M69.1237 122.37C69.1294 122.36 69.1348 122.356 69.1391 122.354C69.1444 122.351 69.1519 122.348 69.1609 122.348C69.1698 122.348 69.1774 122.351 69.1827 122.354C69.187 122.356 69.1924 122.36 69.198 122.37L71.7981 126.873C71.8037 126.883 71.8046 126.89 71.8045 126.895C71.8044 126.901 71.8026 126.908 71.7981 126.916C71.7936 126.924 71.7879 126.929 71.7827 126.932C71.7785 126.935 71.7722 126.938 71.761 126.938H66.5608C66.5496 126.938 66.5433 126.935 66.5391 126.932C66.5339 126.929 66.5281 126.924 66.5237 126.916C66.5192 126.908 66.5174 126.901 66.5173 126.895C66.5172 126.89 66.518 126.883 66.5237 126.873L69.1237 122.37Z"
        stroke="#94A3B8"
        stroke-width="0.772021"
      />
      <path
        d="M69.1606 122.177V120.89M69.1606 120.89V119.528C69.1606 119.464 69.2278 119.423 69.2848 119.451L70.7003 120.159C70.7673 120.192 70.7622 120.29 70.6921 120.316L69.1606 120.89Z"
        stroke="#94A3B8"
        stroke-width="0.772021"
      />
      <mask id="path-31-inside-1_912_16700" fill="white">
        <path
          fill-rule="evenodd"
          clip-rule="evenodd"
          d="M70.4656 124.534L71.3065 123.078L73.3123 126.552H71.6305L71.7048 126.68C71.8699 126.966 71.6635 127.324 71.3333 127.324H73.9066C74.2368 127.324 74.4431 126.966 74.278 126.68L71.678 122.177C71.5129 121.891 71.1002 121.891 70.9351 122.177L70.0199 123.762L70.4656 124.534Z"
        />
      </mask>
      <path
        fill-rule="evenodd"
        clip-rule="evenodd"
        d="M70.4656 124.534L71.3065 123.078L73.3123 126.552H71.6305L71.7048 126.68C71.8699 126.966 71.6635 127.324 71.3333 127.324H73.9066C74.2368 127.324 74.4431 126.966 74.278 126.68L71.678 122.177C71.5129 121.891 71.1002 121.891 70.9351 122.177L70.0199 123.762L70.4656 124.534Z"
        fill="#94A3B8"
      />
      <path
        d="M71.3065 123.078L71.9751 122.692L71.3065 121.534L70.6379 122.692L71.3065 123.078ZM70.4656 124.534L69.797 124.92L70.4656 126.078L71.1342 124.92L70.4656 124.534ZM73.3123 126.552V127.324H74.6495L73.9809 126.166L73.3123 126.552ZM71.6305 126.552V125.78H70.2933L70.9619 126.938L71.6305 126.552ZM71.7048 126.68L72.3734 126.294L71.7048 126.68ZM74.278 126.68L74.9466 126.294V126.294L74.278 126.68ZM71.678 122.177L71.0094 122.563L71.0094 122.563L71.678 122.177ZM70.9351 122.177L70.2665 121.791L70.9351 122.177ZM70.0199 123.762L69.3513 123.376L69.1284 123.762L69.3513 124.148L70.0199 123.762ZM70.6379 122.692L69.797 124.148L71.1342 124.92L71.9751 123.464L70.6379 122.692ZM73.9809 126.166L71.9751 122.692L70.6379 123.464L72.6437 126.938L73.9809 126.166ZM71.6305 127.324H73.3123V125.78H71.6305V127.324ZM70.9619 126.938L71.0362 127.066L72.3734 126.294L72.2991 126.166L70.9619 126.938ZM71.0362 127.066C70.9041 126.838 71.0692 126.552 71.3333 126.552V128.096C72.2578 128.096 72.8356 127.095 72.3734 126.294L71.0362 127.066ZM71.3333 128.096H73.9066V126.552H71.3333V128.096ZM73.9066 128.096C74.8311 128.096 75.4089 127.095 74.9466 126.294L73.6094 127.066C73.4774 126.838 73.6425 126.552 73.9066 126.552V128.096ZM74.9466 126.294L72.3466 121.791L71.0094 122.563L73.6094 127.066L74.9466 126.294ZM72.3466 121.791C71.8843 120.99 70.7287 120.99 70.2665 121.791L71.6037 122.563C71.4716 122.792 71.1414 122.792 71.0094 122.563L72.3466 121.791ZM70.2665 121.791L69.3513 123.376L70.6885 124.148L71.6037 122.563L70.2665 121.791ZM69.3513 124.148L69.797 124.92L71.1342 124.148L70.6885 123.376L69.3513 124.148Z"
        fill="#94A3B8"
        mask="url(#path-31-inside-1_912_16700)"
      />
      <path
        d="M87.2146 121.399C87.2112 121.88 87.3141 122.369 87.5234 122.866C87.7361 123.36 88.0243 123.808 88.388 124.209C88.7517 124.607 89.1531 124.909 89.5923 125.115L89.1291 125.753C88.6179 125.506 88.1564 125.129 87.7447 124.621C87.3364 124.113 87.0276 123.547 86.8183 122.923C86.6811 123.369 86.4924 123.793 86.2522 124.194C86.012 124.595 85.7375 124.951 85.4288 125.259C85.12 125.565 84.7957 125.805 84.4561 125.98L83.962 125.342C84.3977 125.132 84.8026 124.815 85.1766 124.39C85.554 123.964 85.8542 123.487 86.0772 122.959C86.3037 122.43 86.4186 121.911 86.422 121.399V120.205H84.2914V119.536H89.2732V120.205H87.2146V121.399ZM91.198 122.295H92.7316V122.985H91.198V127.74H90.3951V118.589H91.198V122.295ZM100.307 122.192H101.841V122.892H100.307V127.74H99.5044V118.589H100.307V122.192ZM94.4094 121.791H97.0856V119.372H97.8884V125.548H93.6066V119.372H94.4094V121.791ZM97.0856 124.868V122.439H94.4094V124.868H97.0856ZM106.895 119.938C106.895 120.435 107.061 120.917 107.394 121.384C107.73 121.847 108.161 122.242 108.686 122.568C109.211 122.89 109.743 123.101 110.281 123.201L109.911 123.88C109.444 123.77 108.984 123.592 108.531 123.345C108.079 123.098 107.672 122.792 107.312 122.429C106.951 122.065 106.675 121.665 106.483 121.23C106.291 121.662 106.015 122.06 105.655 122.424C105.294 122.787 104.888 123.094 104.435 123.345C103.985 123.592 103.526 123.77 103.056 123.88L102.685 123.201C103.224 123.094 103.754 122.882 104.275 122.563C104.797 122.24 105.222 121.847 105.552 121.384C105.884 120.921 106.051 120.439 106.051 119.938V119.238H106.895V119.938ZM110.714 126.494H102.335V125.825H110.714V126.494ZM118.742 120.658C118.742 121.248 118.735 121.744 118.721 122.146C118.711 122.547 118.679 122.997 118.624 123.494C118.569 123.988 118.481 124.525 118.361 125.105L117.548 125.033C117.73 124.24 117.848 123.456 117.903 122.681L112.319 122.985L112.206 122.316L117.934 122.079C117.941 121.887 117.946 121.696 117.95 121.508C117.953 121.315 117.956 121.125 117.96 120.936V120.658V120.205H112.453V119.526H118.742V120.658ZM119.782 126.453H111.444V125.774H119.782V126.453ZM128.109 123.623H127.306V118.6H128.109V123.623ZM125.196 121.513H121.82V122.758C122.767 122.751 123.556 122.731 124.187 122.696C124.822 122.659 125.481 122.583 126.163 122.47L126.256 123.139C125.542 123.252 124.854 123.329 124.192 123.371C123.53 123.408 122.725 123.431 121.779 123.437H121.037V120.874H124.393V119.711H121.017V119.042H125.196V121.513ZM122.973 125.177H127.306V124.086H128.109V127.616H122.159V124.086H122.973V125.177ZM127.306 126.958V125.825H122.973V126.958H127.306ZM137.074 124.199H130.744V119.382H136.971V120.061H131.567V121.42H136.775V122.068H131.567V123.54H137.074V124.199ZM138.041 126.546H129.663V125.877H138.041V126.546ZM147.151 126.608H138.772V125.928H142.54V124.199H139.822V121.379H145.298V119.938H139.802V119.269H146.091V122.038H140.625V123.53H146.307V124.199H143.332V125.928H147.151V126.608ZM158.278 124.261H157.506V118.589H158.278V124.261ZM156.62 124.23H155.848V123.705H154.222V123.118H155.848V118.754H156.62V124.23ZM150.475 122.151C151.367 122.151 152.232 122.134 153.069 122.099C153.91 122.065 154.668 121.996 155.344 121.893L155.406 122.439C154.836 122.559 154.16 122.648 153.378 122.707V124.23H152.596V122.753C152.013 122.777 151.337 122.789 150.568 122.789L150.475 122.151ZM152.905 125.455H157.475V124.59H158.278V127.616H152.112V124.59H152.905V125.455ZM157.475 126.968V126.103H152.905V126.968H157.475ZM152.956 118.919C153.354 118.919 153.704 118.974 154.006 119.084C154.308 119.193 154.543 119.351 154.711 119.557C154.879 119.759 154.963 120 154.963 120.277C154.963 120.549 154.879 120.787 154.711 120.993C154.543 121.195 154.306 121.351 154.001 121.461C153.699 121.571 153.351 121.626 152.956 121.626C152.561 121.626 152.213 121.571 151.911 121.461C151.609 121.351 151.374 121.195 151.206 120.993C151.042 120.787 150.959 120.549 150.959 120.277C150.959 120 151.042 119.759 151.206 119.557C151.374 119.351 151.608 119.193 151.906 119.084C152.208 118.974 152.558 118.919 152.956 118.919ZM152.956 119.506C152.572 119.502 152.266 119.569 152.04 119.706C151.814 119.843 151.7 120.034 151.7 120.277C151.7 120.514 151.812 120.701 152.035 120.838C152.261 120.972 152.568 121.039 152.956 121.039C153.344 121.039 153.653 120.972 153.882 120.838C154.112 120.701 154.229 120.514 154.232 120.277C154.229 120.037 154.112 119.847 153.882 119.706C153.653 119.566 153.344 119.499 152.956 119.506ZM165.503 121.049C165.503 121.592 165.61 122.127 165.822 122.655C166.035 123.184 166.323 123.654 166.687 124.065C167.051 124.474 167.452 124.779 167.891 124.981L167.407 125.64C166.889 125.373 166.426 124.98 166.018 124.462C165.61 123.944 165.304 123.359 165.102 122.707C164.896 123.396 164.589 124.016 164.181 124.565C163.776 125.113 163.314 125.527 162.796 125.805L162.271 125.156C162.714 124.94 163.119 124.616 163.486 124.184C163.853 123.748 164.143 123.256 164.356 122.707C164.572 122.154 164.68 121.602 164.68 121.049V119.382H165.503V121.049ZM169.867 127.761H169.065V122.377H166.893V121.719H169.065V118.589H169.867V127.761ZM178.936 127.761H178.122V118.589H178.936V127.761ZM172.729 121.791H175.457V119.372H176.249V125.548H171.926V119.372H172.729V121.791ZM175.457 124.868V122.439H172.729V124.868H175.457ZM185.06 119.938C185.06 120.435 185.226 120.917 185.559 121.384C185.895 121.847 186.326 122.242 186.851 122.568C187.376 122.89 187.908 123.101 188.446 123.201L188.076 123.88C187.609 123.77 187.149 123.592 186.697 123.345C186.244 123.098 185.837 122.792 185.477 122.429C185.117 122.065 184.84 121.665 184.648 121.23C184.456 121.662 184.18 122.06 183.82 122.424C183.459 122.787 183.053 123.094 182.6 123.345C182.15 123.592 181.691 123.77 181.221 123.88L180.85 123.201C181.389 123.094 181.919 122.882 182.44 122.563C182.962 122.24 183.387 121.847 183.717 121.384C184.05 120.921 184.216 120.439 184.216 119.938V119.238H185.06V119.938ZM188.879 126.494H180.5V125.825H188.879V126.494ZM196.876 123.633H192.646V119.423H196.876V123.633ZM193.438 122.985H196.094V120.082H193.438V122.985ZM199.408 121.379H200.788V122.058H199.408V125.3H198.606V118.589H199.408V121.379ZM199.83 127.544H193.685V124.662H194.478V126.865H199.83V127.544ZM209.712 123.087H201.364V122.439H209.712V123.087ZM208.713 121.688H202.476V118.909H208.621V119.557H203.289V121.029H208.713V121.688ZM208.631 126.031H203.196V126.978H208.909V127.637H202.393V125.424H207.838V124.539H202.373V123.911H208.631V126.031ZM218.039 127.74H217.226V118.589H218.039V127.74ZM215.332 119.588C215.325 120.971 214.975 122.213 214.282 123.314C213.589 124.412 212.505 125.314 211.029 126.021L210.587 125.362C211.808 124.782 212.743 124.062 213.391 123.201C214.043 122.34 214.416 121.355 214.508 120.247H211.009V119.588H215.332Z"
        fill="#334155"
      />
      <rect
        x="39.7038"
        y="138.587"
        width="12.7986"
        height="12.7986"
        rx="4.14073"
        fill="white"
        stroke="#E2E8F0"
        stroke-width="0.75286"
      />
      <path
        d="M64.6293 142.951C64.6259 143.431 64.7288 143.92 64.9381 144.418C65.1508 144.912 65.439 145.36 65.8027 145.761C66.1664 146.159 66.5678 146.461 67.007 146.667L66.5438 147.305C66.0326 147.058 65.5711 146.681 65.1594 146.173C64.7511 145.665 64.4423 145.099 64.233 144.475C64.0958 144.921 63.9071 145.344 63.6669 145.746C63.4268 146.147 63.1523 146.502 62.8435 146.811C62.5347 147.116 62.2105 147.357 61.8708 147.532L61.3767 146.893C61.8125 146.684 62.2173 146.367 62.5913 145.941C62.9687 145.516 63.2689 145.039 63.492 144.511C63.7184 143.982 63.8333 143.462 63.8368 142.951V141.757H61.7061V141.088H66.6879V141.757H64.6293V142.951ZM68.6127 143.847H70.1464V144.536H68.6127V149.292H67.8099V140.141H68.6127V143.847ZM77.722 143.744H79.2557V144.444H77.722V149.292H76.9192V140.141H77.722V143.744ZM71.8241 143.342H74.5003V140.923H75.3032V147.099H71.0213V140.923H71.8241V143.342ZM74.5003 146.42V143.991H71.8241V146.42H74.5003ZM84.3096 141.49C84.3096 141.987 84.476 142.469 84.8088 142.936C85.145 143.399 85.5756 143.793 86.1005 144.119C86.6255 144.442 87.1573 144.653 87.696 144.752L87.3254 145.432C86.8588 145.322 86.399 145.144 85.9462 144.897C85.4933 144.65 85.0867 144.344 84.7264 143.98C84.3662 143.617 84.09 143.217 83.8978 142.781C83.7057 143.214 83.4295 143.612 83.0693 143.975C82.709 144.339 82.3024 144.646 81.8495 144.897C81.4001 145.144 80.9403 145.322 80.4703 145.432L80.0997 144.752C80.6384 144.646 81.1685 144.433 81.69 144.114C82.2115 143.792 82.6369 143.399 82.9663 142.936C83.2991 142.473 83.4655 141.99 83.4655 141.49V140.79H84.3096V141.49ZM88.1283 148.046H79.7498V147.377H88.1283V148.046ZM96.1568 142.21C96.1568 142.8 96.15 143.296 96.1362 143.697C96.1259 144.099 96.0933 144.548 96.0384 145.046C95.9836 145.54 95.8961 146.077 95.776 146.657L94.9628 146.585C95.1447 145.792 95.263 145.008 95.3179 144.233L89.734 144.536L89.6208 143.867L95.3488 143.63C95.3557 143.438 95.3608 143.248 95.3643 143.059C95.3677 142.867 95.3711 142.677 95.3745 142.488V142.21V141.757H89.8678V141.078H96.1568V142.21ZM97.1964 148.005H88.8591V147.326H97.1964V148.005ZM105.523 145.174H104.721V140.151H105.523V145.174ZM102.611 143.064H99.2344V144.31C100.181 144.303 100.971 144.282 101.602 144.248C102.237 144.21 102.895 144.135 103.578 144.022L103.671 144.691C102.957 144.804 102.269 144.881 101.607 144.922C100.945 144.96 100.14 144.982 99.1933 144.989H98.4522V142.426H101.808V141.263H98.4316V140.594H102.611V143.064ZM100.387 146.729H104.721V145.638H105.523V149.168H99.5741V145.638H100.387V146.729ZM104.721 148.509V147.377H100.387V148.509H104.721ZM114.489 145.751H108.158V140.934H114.386V141.613H108.982V142.972H114.19V143.62H108.982V145.092H114.489V145.751ZM115.456 148.098H107.078V147.429H115.456V148.098ZM126.398 149.292H125.585V140.141H126.398V149.292ZM123.691 141.14C123.684 142.522 123.334 143.764 122.641 144.866C121.948 145.964 120.863 146.866 119.388 147.573L118.946 146.914C120.167 146.334 121.102 145.614 121.75 144.752C122.402 143.891 122.775 142.907 122.867 141.798H119.368V141.14H123.691ZM136.32 148.139H127.942V147.459H131.719V145.36H132.512V147.459H136.32V148.139ZM135.517 142.272H132.532C132.532 142.735 132.682 143.16 132.98 143.548C133.279 143.936 133.677 144.26 134.174 144.521C134.675 144.778 135.222 144.955 135.816 145.051L135.507 145.689C134.742 145.552 134.056 145.3 133.448 144.933C132.841 144.562 132.397 144.101 132.115 143.548C131.838 144.101 131.395 144.562 130.788 144.933C130.18 145.3 129.492 145.552 128.724 145.689L128.405 145.051C129.002 144.955 129.551 144.778 130.052 144.521C130.556 144.26 130.957 143.936 131.256 143.548C131.558 143.16 131.709 142.735 131.709 142.272H128.724V141.603H131.719V140.337H132.512V141.603H135.517V142.272ZM144.06 141.953H142.403C142.407 142.292 142.487 142.625 142.645 142.951C142.803 143.274 143.024 143.564 143.309 143.821C143.594 144.078 143.923 144.279 144.297 144.423L143.916 145.03C143.477 144.859 143.096 144.613 142.774 144.294C142.455 143.972 142.211 143.603 142.043 143.188C141.878 143.641 141.633 144.044 141.307 144.397C140.985 144.751 140.602 145.02 140.159 145.205L139.758 144.588C140.132 144.433 140.46 144.221 140.741 143.95C141.022 143.675 141.24 143.365 141.395 143.018C141.549 142.672 141.631 142.316 141.642 141.953H139.954V141.284H141.642V140.224H142.403V141.284H144.06V141.953ZM147.467 145.267H146.695V143.003H145.502V145.216H144.719V140.316H145.502V142.334H146.695V140.151H147.467V145.267ZM142.239 146.708H146.675V145.648H147.467V149.168H141.436V145.648H142.239V146.708ZM146.675 148.509V147.357H142.239V148.509H146.675ZM156.392 149.312H155.589V144.269H153.654V143.6H155.589V140.141H156.392V149.312ZM153.499 141.654H150.041V143.558H153.098V144.217H150.041V146.43C150.916 146.43 151.65 146.411 152.243 146.374C152.84 146.332 153.444 146.259 154.055 146.152L154.148 146.821C153.499 146.928 152.861 147.001 152.233 147.043C151.605 147.08 150.837 147.099 149.927 147.099H149.228V140.985H153.499V141.654ZM158.059 146.173L161.414 141.006H162.557V146.121H163.597V146.935H162.557V148.458H161.672V146.935H158.059V146.173ZM161.672 146.121V142.179H161.579L159.057 146.06V146.121H161.672ZM175.485 145.133H167.137V144.444H175.485V145.133ZM174.518 143.466H168.218V140.429H174.415V141.109H169.031V142.807H174.518V143.466ZM174.559 149.168H168.198V146.121H174.476V146.78H169V148.499H174.559V149.168ZM183.812 149.292H182.999V140.141H183.812V149.292ZM181.105 141.14C181.098 142.522 180.748 143.764 180.055 144.866C179.362 145.964 178.278 146.866 176.803 147.573L176.36 146.914C177.581 146.334 178.516 145.614 179.165 144.752C179.817 143.891 180.189 142.907 180.282 141.798H176.782V141.14H181.105Z"
        fill="#1E293B"
      />
      <circle cx="410.487" cy="144.987" r="9.03432" fill="#F8FAFC" />
      <path
        d="M407.677 141.724C407.677 141.696 407.699 141.674 407.727 141.674H410.487H411.891C411.905 141.674 411.919 141.68 411.928 141.691L412.268 141.394L411.928 141.691L412.655 142.522L413.286 143.257C413.294 143.267 413.298 143.278 413.298 143.29V144.987V148.249C413.298 148.277 413.275 148.299 413.248 148.299H407.727C407.699 148.299 407.677 148.277 407.677 148.249V141.724Z"
        stroke="#64748B"
        stroke-width="0.903432"
      />
      <circle cx="434.579" cy="144.987" r="9.03432" fill="#F4F4FF" />
      <path
        d="M435.583 143.983L433.575 145.99"
        stroke="#7E73FF"
        stroke-width="1.00381"
        stroke-linecap="round"
        stroke-linejoin="round"
      />
      <path
        d="M436.587 145.489L437.59 144.485C438.283 143.792 438.283 142.668 437.59 141.975V141.975C436.897 141.282 435.774 141.282 435.081 141.975L434.077 142.979M432.571 144.485L431.568 145.489C430.875 146.182 430.875 147.305 431.568 147.998V147.998C432.261 148.691 433.384 148.691 434.077 147.998L435.081 146.994"
        stroke="#7E73FF"
        stroke-width="1.00381"
        stroke-linecap="round"
      />
      <rect
        x="39.7036"
        y="162.678"
        width="12.7986"
        height="12.7986"
        rx="4.14073"
        fill="white"
        stroke="#E2E8F0"
        stroke-width="0.75286"
      />
      <path
        d="M64.6293 167.042C64.6259 167.523 64.7288 168.012 64.9381 168.509C65.1508 169.003 65.439 169.451 65.8027 169.852C66.1664 170.25 66.5678 170.552 67.007 170.758L66.5438 171.396C66.0326 171.149 65.5711 170.772 65.1594 170.264C64.7511 169.756 64.4423 169.19 64.233 168.566C64.0958 169.012 63.9071 169.435 63.6669 169.837C63.4268 170.238 63.1523 170.593 62.8435 170.902C62.5347 171.207 62.2105 171.448 61.8708 171.623L61.3767 170.984C61.8125 170.775 62.2173 170.458 62.5913 170.032C62.9687 169.607 63.2689 169.13 63.492 168.602C63.7184 168.073 63.8333 167.553 63.8368 167.042V165.848H61.7061V165.179H66.6879V165.848H64.6293V167.042ZM68.6127 167.938H70.1464V168.627H68.6127V173.383H67.8099V164.232H68.6127V167.938ZM77.722 167.835H79.2557V168.535H77.722V173.383H76.9192V164.232H77.722V167.835ZM71.8241 167.433H74.5003V165.015H75.3032V171.19H71.0213V165.015H71.8241V167.433ZM74.5003 170.511V168.082H71.8241V170.511H74.5003ZM84.3096 165.581C84.3096 166.078 84.476 166.56 84.8088 167.027C85.145 167.49 85.5756 167.885 86.1005 168.211C86.6255 168.533 87.1573 168.744 87.696 168.844L87.3254 169.523C86.8588 169.413 86.399 169.235 85.9462 168.988C85.4933 168.741 85.0867 168.435 84.7264 168.072C84.3662 167.708 84.09 167.308 83.8978 166.872C83.7057 167.305 83.4295 167.703 83.0693 168.066C82.709 168.43 82.3024 168.737 81.8495 168.988C81.4001 169.235 80.9403 169.413 80.4703 169.523L80.0997 168.844C80.6384 168.737 81.1685 168.524 81.69 168.205C82.2115 167.883 82.6369 167.49 82.9663 167.027C83.2991 166.564 83.4655 166.082 83.4655 165.581V164.881H84.3096V165.581ZM88.1283 172.137H79.7498V171.468H88.1283V172.137ZM96.1568 166.301C96.1568 166.891 96.15 167.387 96.1362 167.788C96.1259 168.19 96.0933 168.639 96.0384 169.137C95.9836 169.631 95.8961 170.168 95.776 170.748L94.9628 170.676C95.1447 169.883 95.263 169.099 95.3179 168.324L89.734 168.627L89.6208 167.958L95.3488 167.722C95.3557 167.529 95.3608 167.339 95.3643 167.15C95.3677 166.958 95.3711 166.768 95.3745 166.579V166.301V165.848H89.8678V165.169H96.1568V166.301ZM97.1964 172.096H88.8591V171.417H97.1964V172.096ZM105.523 169.266H104.721V164.243H105.523V169.266ZM102.611 167.155H99.2344V168.401C100.181 168.394 100.971 168.373 101.602 168.339C102.237 168.301 102.895 168.226 103.578 168.113L103.671 168.782C102.957 168.895 102.269 168.972 101.607 169.013C100.945 169.051 100.14 169.073 99.1933 169.08H98.4522V166.517H101.808V165.354H98.4316V164.685H102.611V167.155ZM100.387 170.82H104.721V169.729H105.523V173.259H99.5741V169.729H100.387V170.82ZM104.721 172.6V171.468H100.387V172.6H104.721ZM114.489 169.842H108.158V165.025H114.386V165.704H108.982V167.063H114.19V167.711H108.982V169.183H114.489V169.842ZM115.456 172.189H107.078V171.52H115.456V172.189ZM126.398 173.383H125.585V164.232H126.398V173.383ZM123.691 165.231C123.684 166.613 123.334 167.855 122.641 168.957C121.948 170.055 120.863 170.957 119.388 171.664L118.946 171.005C120.167 170.425 121.102 169.705 121.75 168.844C122.402 167.982 122.775 166.998 122.867 165.889H119.368V165.231H123.691ZM136.32 172.23H127.942V171.551H131.719V169.451H132.512V171.551H136.32V172.23ZM135.517 166.363H132.532C132.532 166.826 132.682 167.252 132.98 167.639C133.279 168.027 133.677 168.351 134.174 168.612C134.675 168.869 135.222 169.046 135.816 169.142L135.507 169.78C134.742 169.643 134.056 169.391 133.448 169.024C132.841 168.653 132.397 168.192 132.115 167.639C131.838 168.192 131.395 168.653 130.788 169.024C130.18 169.391 129.492 169.643 128.724 169.78L128.405 169.142C129.002 169.046 129.551 168.869 130.052 168.612C130.556 168.351 130.957 168.027 131.256 167.639C131.558 167.252 131.709 166.826 131.709 166.363H128.724V165.694H131.719V164.428H132.512V165.694H135.517V166.363ZM144.06 166.044H142.403C142.407 166.383 142.487 166.716 142.645 167.042C142.803 167.365 143.024 167.655 143.309 167.912C143.594 168.169 143.923 168.37 144.297 168.514L143.916 169.121C143.477 168.95 143.096 168.705 142.774 168.385C142.455 168.063 142.211 167.694 142.043 167.279C141.878 167.732 141.633 168.135 141.307 168.488C140.985 168.842 140.602 169.111 140.159 169.296L139.758 168.679C140.132 168.524 140.46 168.312 140.741 168.041C141.022 167.766 141.24 167.456 141.395 167.109C141.549 166.763 141.631 166.408 141.642 166.044H139.954V165.375H141.642V164.315H142.403V165.375H144.06V166.044ZM147.467 169.358H146.695V167.094H145.502V169.307H144.719V164.407H145.502V166.425H146.695V164.243H147.467V169.358ZM142.239 170.799H146.675V169.739H147.467V173.259H141.436V169.739H142.239V170.799ZM146.675 172.6V171.448H142.239V172.6H146.675ZM156.392 173.403H155.589V168.36H153.654V167.691H155.589V164.232H156.392V173.403ZM153.499 165.745H150.041V167.65H153.098V168.308H150.041V170.521C150.916 170.521 151.65 170.502 152.243 170.465C152.84 170.424 153.444 170.35 154.055 170.243L154.148 170.912C153.499 171.019 152.861 171.093 152.233 171.134C151.605 171.171 150.837 171.19 149.927 171.19H149.228V165.076H153.499V165.745ZM158.059 170.264L161.414 165.097H162.557V170.212H163.597V171.026H162.557V172.549H161.672V171.026H158.059V170.264ZM161.672 170.212V166.27H161.579L159.057 170.151V170.212H161.672ZM175.485 169.224H167.137V168.535H175.485V169.224ZM174.518 167.557H168.218V164.52H174.415V165.2H169.031V166.898H174.518V167.557ZM174.559 173.259H168.198V170.212H174.476V170.871H169V172.59H174.559V173.259ZM183.812 173.383H182.999V164.232H183.812V173.383ZM181.105 165.231C181.098 166.613 180.748 167.855 180.055 168.957C179.362 170.055 178.278 170.957 176.803 171.664L176.36 171.005C177.581 170.425 178.516 169.705 179.165 168.844C179.817 167.982 180.189 166.998 180.282 165.889H176.782V165.231H181.105Z"
        fill="#1E293B"
      />
      <circle cx="410.487" cy="169.078" r="9.03432" fill="#F8FAFC" />
      <path
        d="M407.677 165.815C407.677 165.788 407.699 165.765 407.727 165.765H410.487H411.891C411.905 165.765 411.919 165.771 411.928 165.782L412.268 165.485L411.928 165.782L412.655 166.613L413.286 167.349C413.294 167.358 413.298 167.369 413.298 167.381V169.078V172.34C413.298 172.368 413.275 172.39 413.248 172.39H407.727C407.699 172.39 407.677 172.368 407.677 172.34V165.815Z"
        stroke="#64748B"
        stroke-width="0.903432"
      />
      <circle cx="434.579" cy="169.078" r="9.03432" fill="#F4F4FF" />
      <path
        d="M435.583 168.074L433.575 170.081"
        stroke="#7E73FF"
        stroke-width="1.00381"
        stroke-linecap="round"
        stroke-linejoin="round"
      />
      <path
        d="M436.587 169.58L437.59 168.576C438.283 167.883 438.283 166.759 437.59 166.066V166.066C436.897 165.373 435.774 165.373 435.081 166.066L434.077 167.07M432.571 168.576L431.568 169.58C430.875 170.273 430.875 171.396 431.568 172.089V172.089C432.261 172.782 433.384 172.782 434.077 172.089L435.081 171.085"
        stroke="#7E73FF"
        stroke-width="1.00381"
        stroke-linecap="round"
      />
    </g>
    <defs>
      <filter
        id="filter0_d_912_16700"
        x="0.4"
        y="0.8"
        width="479.882"
        height="225.2"
        filterUnits="userSpaceOnUse"
        color-interpolation-filters="sRGB"
      >
        <feFlood flood-opacity="0" result="BackgroundImageFix" />
        <feColorMatrix
          in="SourceAlpha"
          type="matrix"
          values="0 0 0 0 0 0 0 0 0 0 0 0 0 0 0 0 0 0 127 0"
          result="hardAlpha"
        />
        <feOffset dy="2.4" />
        <feGaussianBlur stdDeviation="9.3" />
        <feComposite in2="hardAlpha" operator="out" />
        <feColorMatrix
          type="matrix"
          values="0 0 0 0 0.788032 0 0 0 0 0.820893 0 0 0 0 0.903044 0 0 0 0.5 0"
        />
        <feBlend
          mode="normal"
          in2="BackgroundImageFix"
          result="effect1_dropShadow_912_16700"
        />
        <feBlend
          mode="normal"
          in="SourceGraphic"
          in2="effect1_dropShadow_912_16700"
          result="shape"
        />
      </filter>
      <clipPath id="clip0_912_16700">
        <rect
          width="406.544"
          height="115.94"
          fill="white"
          transform="translate(37.0684 71.2061)"
        />
      </clipPath>
    </defs>
  </svg>
