
  <svg
    width="481"
    height="159"
    viewBox="0 0 481 159"
    fill="none"
    xmlns="http://www.w3.org/2000/svg"
  >
    <g filter="url(#filter0_d_912_16863)">
      <rect
        x="19.3706"
        y="16.8325"
        width="442.259"
        height="120.346"
        rx="8.52321"
        fill="white"
      />
      <rect
        x="19.3706"
        y="16.8325"
        width="442.259"
        height="120.346"
        rx="8.52321"
        stroke="#F1F5F9"
        stroke-width="0.741149"
      />
      <circle cx="435.309" cy="44.6256" r="8.89379" fill="#F8FAFC" />
      <circle
        cx="435.265"
        cy="44.6255"
        r="0.389103"
        transform="rotate(-90 435.265 44.6255)"
        fill="#94A3B8"
        stroke="#94A3B8"
        stroke-width="0.864674"
        stroke-linecap="round"
      />
      <circle
        cx="435.265"
        cy="47.5655"
        r="0.389103"
        transform="rotate(-90 435.265 47.5655)"
        fill="#94A3B8"
        stroke="#94A3B8"
        stroke-width="0.864674"
        stroke-linecap="round"
      />
      <circle
        cx="435.265"
        cy="41.6857"
        r="0.389103"
        transform="rotate(-90 435.265 41.6857)"
        fill="#94A3B8"
        stroke="#94A3B8"
        stroke-width="0.864674"
        stroke-linecap="round"
      />
      <path
        d="M47.9005 81.5083H37.2175V80.466H47.9005V81.5083ZM46.9234 73.4309H45.1386V77.3263H46.8843V78.3164H38.1555V77.3263H39.9013V73.4309H38.1295V72.4147H46.9234V73.4309ZM43.9269 77.3263V73.4309H41.1259V77.3263H43.9269ZM59.4303 81.5734H48.7473V80.5312H53.4504V78.4858H50.0501V74.7728H56.9028V73.1313H50.0241V72.1151H58.1275V75.7629H51.2747V77.4696H58.4011V78.4858H54.6751V80.5312H59.4303V81.5734ZM69.527 73.7306C69.527 74.4124 69.5183 75.003 69.5009 75.5024C69.4879 76.0018 69.451 76.5794 69.3902 77.2351C69.3294 77.8865 69.2317 78.5987 69.0971 79.3717L67.8333 79.2544C67.9767 78.5336 68.0831 77.8518 68.1525 77.209C68.222 76.5663 68.2633 75.9953 68.2763 75.4959C68.2937 74.9921 68.3024 74.4037 68.3024 73.7306V73.4961H61.4236V72.4799H69.527V73.7306ZM70.921 81.3129H60.2771V80.2837H70.921V81.3129ZM76.5751 76.74H73.3703V79.2023C74.0651 79.198 74.7187 79.1763 75.331 79.1372C75.9476 79.0938 76.5838 79.0199 77.2396 78.9157L77.3438 79.9058C76.6012 80.0361 75.902 80.123 75.2463 80.1664C74.5905 80.2098 73.8306 80.2359 72.9664 80.2446H72.1717V75.7239H75.3766V73.5351H72.1586V72.519H76.5751V76.74ZM81.8254 82.9674H80.6399V76.8443H79.1286V82.3681H77.9952V71.5288H79.1286V75.8411H80.6399V71.2943H81.8254V82.9674ZM89.4989 77.2742H83.949V72.1412H89.4989V77.2742ZM85.1606 76.271H88.2743V73.1313H85.1606V76.271ZM93.0165 78.2513H91.7788V71.3074H93.0165V78.2513ZM89.1211 78.4467C89.9289 78.4467 90.628 78.5357 91.2186 78.7138C91.8136 78.8918 92.2696 79.1502 92.5866 79.4889C92.9079 79.8233 93.0686 80.2272 93.0686 80.7006C93.0686 81.1696 92.9079 81.5734 92.5866 81.9122C92.2696 82.2509 91.8136 82.5071 91.2186 82.6808C90.6237 82.8589 89.9245 82.9457 89.1211 82.9414C88.3047 82.9457 87.5968 82.8589 86.9976 82.6808C86.3983 82.5071 85.9379 82.2509 85.6166 81.9122C85.2952 81.5734 85.1345 81.1696 85.1345 80.7006C85.1345 80.2272 85.2952 79.8212 85.6166 79.4824C85.9379 79.1437 86.3961 78.8875 86.991 78.7138C87.5903 78.5357 88.3004 78.4467 89.1211 78.4467ZM89.1211 79.4238C88.2439 79.4151 87.5664 79.5215 87.0887 79.743C86.6111 79.9645 86.3722 80.2837 86.3722 80.7006C86.3722 81.1044 86.6111 81.4171 87.0887 81.6386C87.5708 81.8557 88.2482 81.9643 89.1211 81.9643C89.9723 81.9643 90.6389 81.8535 91.1209 81.6321C91.603 81.4106 91.844 81.1001 91.844 80.7006C91.844 80.288 91.603 79.971 91.1209 79.7495C90.6432 79.5237 89.9766 79.4151 89.1211 79.4238ZM102.41 74.2647C102.405 74.9682 102.533 75.6609 102.794 76.3427C103.059 77.0201 103.426 77.6238 103.895 78.1536C104.368 78.6834 104.902 79.0807 105.497 79.3456L104.755 80.3227C104.09 80.0057 103.502 79.5389 102.989 78.9222C102.477 78.3012 102.082 77.589 101.804 76.7856C101.53 77.6498 101.131 78.4141 100.605 79.0786C100.084 79.743 99.4784 80.2446 98.7879 80.5833L98.0323 79.5411C98.6359 79.2718 99.1744 78.8636 99.6478 78.3164C100.125 77.7693 100.497 77.1417 100.762 76.4339C101.027 75.7217 101.159 74.9986 101.159 74.2647V72.2714H102.41V74.2647ZM107.79 82.9935H106.553V71.2943H107.79V82.9935ZM113.731 73.3918C113.731 73.8912 113.842 74.3711 114.063 74.8314C114.289 75.2918 114.613 75.7021 115.034 76.0626C115.459 76.423 115.963 76.701 116.545 76.8964L115.92 77.8604C115.268 77.6346 114.702 77.3046 114.22 76.8703C113.742 76.4361 113.375 75.9301 113.119 75.3526C112.863 75.9866 112.485 76.5403 111.985 77.0136C111.49 77.487 110.904 77.8431 110.226 78.0819L109.562 77.1179C110.161 76.9137 110.68 76.6206 111.119 76.2385C111.558 75.8563 111.894 75.4199 112.129 74.9291C112.367 74.4341 112.489 73.9173 112.493 73.3788V73.0661H109.927V72.063H116.245V73.0661H113.731V73.3918ZM118.825 74.2908H120.519V75.333H118.825V78.3295H117.587V71.2943H118.825V74.2908ZM118.825 82.9674H117.587V79.9058H111.112V78.9027H118.825V82.9674ZM130.277 76.0235H132.153V77.0527H130.277V82.9674H129.052V71.2943H130.277V76.0235ZM128.036 74.1344H121.118V73.1183H123.997V71.4507H125.235V73.1183H128.036V74.1344ZM124.622 74.9943C125.174 74.9943 125.669 75.1094 126.108 75.3395C126.546 75.5697 126.891 75.891 127.143 76.3036C127.395 76.7162 127.523 77.183 127.528 77.7041C127.523 78.2296 127.395 78.6986 127.143 79.1111C126.891 79.5237 126.546 79.845 126.108 80.0752C125.669 80.3054 125.174 80.4226 124.622 80.427C124.067 80.4226 123.567 80.3054 123.124 80.0752C122.686 79.845 122.34 79.5237 122.088 79.1111C121.841 78.6986 121.717 78.2296 121.717 77.7041C121.717 77.183 121.841 76.7162 122.088 76.3036C122.34 75.891 122.686 75.5697 123.124 75.3395C123.567 75.1094 124.067 74.9943 124.622 74.9943ZM124.622 76.0105C124.297 76.0105 124.001 76.0821 123.737 76.2254C123.472 76.3687 123.265 76.5685 123.118 76.8247C122.97 77.0809 122.898 77.3741 122.903 77.7041C122.898 78.0385 122.97 78.3338 123.118 78.59C123.265 78.8462 123.469 79.0438 123.73 79.1828C123.995 79.3218 124.292 79.3891 124.622 79.3847C124.948 79.3891 125.241 79.3218 125.502 79.1828C125.767 79.0438 125.973 78.8462 126.121 78.59C126.268 78.3338 126.342 78.0385 126.342 77.7041C126.342 77.3741 126.268 77.0809 126.121 76.8247C125.973 76.5685 125.767 76.3687 125.502 76.2254C125.241 76.0821 124.948 76.0105 124.622 76.0105ZM142.419 82.9674H141.168V71.2943H142.419V82.9674ZM138.94 72.545C138.94 74.3516 138.508 75.9584 137.644 77.3654C136.784 78.7681 135.397 79.9276 133.481 80.8439L132.83 79.8407C134.363 79.1111 135.525 78.2231 136.315 77.1765C137.11 76.1299 137.568 74.9161 137.69 73.5351H133.39V72.545H138.94ZM147.917 74.7858H149.311V81.86H147.917V74.7858ZM148.62 73.6915C148.464 73.6915 148.316 73.6546 148.177 73.5807C148.042 73.5069 147.934 73.407 147.851 73.2811C147.773 73.1552 147.734 73.0184 147.734 72.8707C147.734 72.7231 147.773 72.5863 147.851 72.4603C147.934 72.3344 148.042 72.2345 148.177 72.1607C148.316 72.0869 148.464 72.05 148.62 72.05C148.776 72.05 148.92 72.0869 149.05 72.1607C149.185 72.2345 149.291 72.3344 149.369 72.4603C149.452 72.5863 149.493 72.7231 149.493 72.8707C149.493 73.0184 149.452 73.1552 149.369 73.2811C149.291 73.407 149.185 73.5069 149.05 73.5807C148.92 73.6546 148.776 73.6915 148.62 73.6915ZM152.398 81.86H151.004V74.7858H152.346V75.9453H152.424C152.598 75.5545 152.861 75.2483 153.212 75.0269C153.564 74.8054 153.996 74.6946 154.509 74.6946C154.999 74.6946 155.425 74.7967 155.785 75.0008C156.146 75.2006 156.424 75.5002 156.619 75.8997C156.819 76.2993 156.919 76.7878 156.919 77.3654V81.86H155.538V77.5347C155.538 77.0223 155.405 76.6206 155.141 76.3297C154.876 76.0387 154.509 75.8932 154.04 75.8932C153.723 75.8932 153.438 75.9627 153.186 76.1017C152.939 76.2406 152.746 76.4447 152.607 76.714C152.468 76.9789 152.398 77.2959 152.398 77.665V81.86ZM167.081 72.4278V79.1111C167.081 79.7104 166.961 80.2272 166.722 80.6615C166.488 81.0914 166.154 81.4214 165.719 81.6516C165.285 81.8774 164.779 81.9903 164.202 81.9903C163.663 81.9903 163.181 81.8926 162.755 81.6972C162.334 81.5018 162.002 81.2152 161.759 80.8373C161.52 80.4595 161.401 80.0101 161.401 79.4889H162.821C162.825 79.8798 162.957 80.1903 163.218 80.4205C163.483 80.6506 163.824 80.7657 164.241 80.7657C164.692 80.7657 165.04 80.6246 165.283 80.3423C165.526 80.06 165.648 79.6496 165.648 79.1111V72.4278H167.081ZM168.553 79.8668C168.553 79.1328 168.8 78.6096 169.296 78.2969C169.791 77.9842 170.425 77.7996 171.198 77.7432C171.493 77.7215 171.814 77.7019 172.162 77.6846C172.513 77.6629 172.811 77.6477 173.054 77.639L173.048 77.0788C173.048 76.6749 172.926 76.3644 172.683 76.1473C172.44 75.9258 172.083 75.815 171.614 75.815C171.219 75.815 170.896 75.8976 170.644 76.0626C170.392 76.2233 170.229 76.4404 170.155 76.714H168.774C168.818 76.3231 168.963 75.9757 169.211 75.6717C169.458 75.3634 169.793 75.1246 170.214 74.9552C170.64 74.7815 171.124 74.6946 171.667 74.6946C172.114 74.6946 172.544 74.7641 172.956 74.9031C173.373 75.0421 173.725 75.2939 174.012 75.6587C174.298 76.0235 174.442 76.5229 174.442 77.1569V81.86H173.087V80.896H173.035C172.874 81.2086 172.618 81.4735 172.266 81.6907C171.918 81.9078 171.476 82.0164 170.937 82.0164C170.485 82.0164 170.079 81.9317 169.719 81.7623C169.358 81.593 169.074 81.3476 168.866 81.0263C168.657 80.7006 168.553 80.3141 168.553 79.8668ZM169.908 79.8798C169.908 80.2098 170.029 80.4639 170.273 80.6419C170.52 80.82 170.846 80.909 171.25 80.909C171.614 80.909 171.934 80.8373 172.207 80.694C172.481 80.5464 172.691 80.351 172.839 80.1078C172.987 79.8602 173.061 79.5932 173.061 79.3066L173.054 78.6617L171.393 78.7724C170.92 78.8071 170.553 78.9157 170.292 79.0981C170.036 79.2762 169.908 79.5367 169.908 79.8798ZM179.366 81.86H177.868L175.301 74.7858H176.8L178.584 80.2185H178.65L180.434 74.7858H181.933L179.366 81.86ZM182.519 79.8668C182.519 79.1328 182.766 78.6096 183.262 78.2969C183.757 77.9842 184.391 77.7996 185.164 77.7432C185.459 77.7215 185.78 77.7019 186.128 77.6846C186.479 77.6629 186.777 77.6477 187.02 77.639L187.014 77.0788C187.014 76.6749 186.892 76.3644 186.649 76.1473C186.406 75.9258 186.05 75.815 185.581 75.815C185.185 75.815 184.862 75.8976 184.61 76.0626C184.358 76.2233 184.195 76.4404 184.121 76.714H182.74C182.784 76.3231 182.929 75.9757 183.177 75.6717C183.424 75.3634 183.759 75.1246 184.18 74.9552C184.606 74.7815 185.09 74.6946 185.633 74.6946C186.08 74.6946 186.51 74.7641 186.922 74.9031C187.339 75.0421 187.691 75.2939 187.978 75.6587C188.264 76.0235 188.408 76.5229 188.408 77.1569V81.86H187.053V80.896H187.001C186.84 81.2086 186.584 81.4735 186.232 81.6907C185.884 81.9078 185.442 82.0164 184.903 82.0164C184.451 82.0164 184.045 81.9317 183.685 81.7623C183.324 81.593 183.04 81.3476 182.832 81.0263C182.623 80.7006 182.519 80.3141 182.519 79.8668ZM183.874 79.8798C183.874 80.2098 183.995 80.4639 184.239 80.6419C184.486 80.82 184.812 80.909 185.216 80.909C185.581 80.909 185.9 80.8373 186.173 80.694C186.447 80.5464 186.657 80.351 186.805 80.1078C186.953 79.8602 187.027 79.5932 187.027 79.3066L187.02 78.6617L185.359 78.7724C184.886 78.8071 184.519 78.9157 184.258 79.0981C184.002 79.2762 183.874 79.5367 183.874 79.8798ZM195.338 74.9161C195.295 74.4862 195.097 74.1496 194.746 73.9064C194.394 73.6589 193.944 73.5351 193.397 73.5351C193.02 73.5351 192.687 73.5959 192.401 73.7175C192.114 73.8348 191.893 73.9998 191.736 74.2126C191.584 74.4211 191.508 74.6599 191.508 74.9291C191.508 75.3287 191.671 75.6348 191.997 75.8476C192.323 76.0604 192.733 76.2276 193.228 76.3492L194.14 76.5967C194.9 76.7748 195.543 77.0701 196.068 77.4826C196.594 77.8952 196.858 78.4858 196.863 79.2544C196.858 79.7886 196.717 80.2641 196.439 80.681C196.161 81.0979 195.76 81.4258 195.234 81.6646C194.709 81.8991 194.083 82.0164 193.358 82.0164C192.659 82.0164 192.049 81.9056 191.528 81.6842C191.011 81.4583 190.605 81.137 190.31 80.7201C190.019 80.3032 189.858 79.8103 189.828 79.2414H191.261C191.304 79.7365 191.519 80.1143 191.906 80.3749C192.292 80.6354 192.776 80.7657 193.358 80.7657C193.753 80.7657 194.107 80.7027 194.42 80.5768C194.737 80.4465 194.985 80.2663 195.163 80.0361C195.345 79.8016 195.438 79.5324 195.443 79.2284C195.438 78.8506 195.284 78.5574 194.98 78.349C194.676 78.1362 194.235 77.956 193.658 77.8083L192.537 77.5087C190.896 77.0571 190.075 76.2233 190.075 75.0073C190.075 74.4775 190.221 74.0063 190.512 73.5938C190.807 73.1812 191.211 72.862 191.723 72.6362C192.236 72.4104 192.807 72.2975 193.436 72.2975C194.066 72.2975 194.628 72.4104 195.124 72.6362C195.619 72.8577 196.007 73.1682 196.29 73.5677C196.572 73.9629 196.719 74.4124 196.732 74.9161H195.338ZM201.279 82.0034C200.606 82.0034 200.02 81.8492 199.52 81.5409C199.021 81.2282 198.637 80.7961 198.368 80.2446C198.103 79.6931 197.97 79.0634 197.97 78.3555C197.97 77.639 198.105 77.0049 198.374 76.4534C198.648 75.8976 199.032 75.4655 199.527 75.1571C200.022 74.8488 200.597 74.6946 201.253 74.6946C201.787 74.6946 202.267 74.7945 202.693 74.9943C203.118 75.1897 203.461 75.4676 203.722 75.8281C203.983 76.1885 204.137 76.6054 204.185 77.0788H202.83C202.751 76.727 202.578 76.4361 202.308 76.2059C202.039 75.9714 201.696 75.8541 201.279 75.8541C200.897 75.8541 200.561 75.954 200.27 76.1538C199.983 76.3535 199.759 76.6402 199.599 77.0136C199.442 77.3828 199.364 77.817 199.364 78.3164C199.364 78.8289 199.442 79.274 199.599 79.6518C199.759 80.0253 199.983 80.3141 200.27 80.5182C200.556 80.7179 200.893 80.8178 201.279 80.8178C201.674 80.8178 202.011 80.7136 202.289 80.5051C202.567 80.2923 202.747 79.997 202.83 79.6192H204.185C204.132 80.0796 203.98 80.4899 203.729 80.8504C203.481 81.2108 203.147 81.4931 202.725 81.6972C202.304 81.9013 201.822 82.0034 201.279 82.0034ZM205.5 74.7858H206.842V75.9062H206.92C207.051 75.5284 207.279 75.231 207.604 75.0138C207.93 74.7924 208.301 74.6816 208.718 74.6816C208.918 74.6816 209.113 74.6903 209.305 74.7077V76.0365C209.226 76.0192 209.116 76.0018 208.972 75.9844C208.833 75.967 208.701 75.9584 208.575 75.9584C208.258 75.9584 207.971 76.0278 207.715 76.1668C207.459 76.3014 207.257 76.4903 207.109 76.7335C206.966 76.9724 206.894 77.2438 206.894 77.5478V81.86H205.5V74.7858ZM210.347 74.7858H211.741V81.86H210.347V74.7858ZM211.05 73.6915C210.894 73.6915 210.746 73.6546 210.607 73.5807C210.473 73.5069 210.364 73.407 210.282 73.2811C210.203 73.1552 210.164 73.0184 210.164 72.8707C210.164 72.7231 210.203 72.5863 210.282 72.4603C210.364 72.3344 210.473 72.2345 210.607 72.1607C210.746 72.0869 210.894 72.05 211.05 72.05C211.207 72.05 211.35 72.0869 211.48 72.1607C211.615 72.2345 211.721 72.3344 211.799 72.4603C211.882 72.5863 211.923 72.7231 211.923 72.8707C211.923 73.0184 211.882 73.1552 211.799 73.2811C211.721 73.407 211.615 73.5069 211.48 73.5807C211.35 73.6546 211.207 73.6915 211.05 73.6915ZM213.434 74.7858H214.789V75.9323H214.907C215.024 75.7195 215.156 75.5263 215.304 75.3526C215.452 75.1788 215.66 75.0269 215.929 74.8966C216.203 74.762 216.539 74.6946 216.939 74.6946C217.512 74.6946 218.022 74.8401 218.47 75.1311C218.921 75.422 219.273 75.8433 219.525 76.3948C219.781 76.942 219.909 77.5912 219.909 78.3425C219.909 79.0894 219.783 79.7387 219.532 80.2902C219.28 80.8417 218.93 81.2651 218.483 81.5604C218.035 81.8557 217.525 82.0034 216.952 82.0034C216.387 82.0034 215.951 81.8818 215.643 81.6386C215.334 81.391 215.089 81.0957 214.907 80.7527H214.828V84.5178H213.434V74.7858ZM214.802 78.3164C214.802 78.8158 214.874 79.2544 215.017 79.6323C215.161 80.0057 215.369 80.2967 215.643 80.5051C215.921 80.7136 216.253 80.8178 216.639 80.8178C217.034 80.8178 217.371 80.7114 217.649 80.4986C217.931 80.2815 218.144 79.984 218.287 79.6062C218.431 79.2284 218.502 78.7985 218.502 78.3164C218.502 77.8431 218.431 77.424 218.287 77.0592C218.148 76.6901 217.938 76.4013 217.655 76.1929C217.378 75.9844 217.039 75.8802 216.639 75.8802C216.049 75.8802 215.595 76.0995 215.278 76.5381C214.961 76.9724 214.802 77.5651 214.802 78.3164ZM224.599 75.8932H223.153V79.7756C223.153 80.136 223.227 80.3835 223.375 80.5182C223.527 80.6484 223.735 80.7179 224 80.7266C224.122 80.7266 224.313 80.7179 224.573 80.7006C224.599 80.6919 224.643 80.6875 224.704 80.6875V81.8991C224.443 81.9339 224.152 81.9512 223.831 81.9512C223.453 81.9512 223.108 81.8818 222.795 81.7428C222.482 81.6038 222.233 81.3932 222.046 81.1109C221.859 80.8243 221.768 80.4747 221.772 80.0622V75.8932H220.73V74.7858H221.772V73.0922H223.153V74.7858H224.599V75.8932Z"
        fill="#1E293B"
      />
      <path
        d="M36.7876 96.7538H444.212"
        stroke="#E2E8F0"
        stroke-width="0.741149"
      />
      <rect
        x="36.7876"
        y="105.648"
        width="52.4469"
        height="14.9646"
        rx="2.9646"
        fill="#F1F5F9"
      />
      <path
        d="M42.2073 114.445H40.7394L40.4615 116.13H39.7146L39.9925 114.445H39.0892L39.2021 113.707H40.1141L40.3486 112.265H39.454L39.5669 111.518H40.4745L40.7481 109.842H41.4951L41.2215 111.518H42.6893L42.9629 109.842H43.7011L43.4275 111.518H44.3438L44.2223 112.265H43.3059L43.0714 113.707H43.9791L43.8488 114.445H42.9498L42.6763 116.13H41.9293L42.2073 114.445ZM42.3288 113.707L42.5634 112.265H41.0955L40.861 113.707H42.3288ZM48.452 109.842V114.297C48.452 114.697 48.3724 115.041 48.2132 115.331C48.0568 115.618 47.8339 115.838 47.5444 115.991C47.2549 116.142 46.9176 116.217 46.5326 116.217C46.1736 116.217 45.8522 116.152 45.5685 116.021C45.2877 115.891 45.0662 115.7 44.9041 115.448C44.7448 115.196 44.6652 114.897 44.6652 114.549H45.6119C45.6148 114.81 45.7031 115.017 45.8768 115.17C46.0534 115.324 46.2807 115.4 46.5586 115.4C46.8597 115.4 47.0913 115.306 47.2534 115.118C47.4156 114.93 47.4966 114.656 47.4966 114.297V109.842H48.452ZM49.4335 114.801C49.4335 114.312 49.5985 113.963 49.9285 113.755C50.2586 113.546 50.6813 113.423 51.1966 113.385C51.3934 113.371 51.6077 113.358 51.8393 113.346C52.0738 113.332 52.2721 113.322 52.4342 113.316L52.4299 112.942C52.4299 112.673 52.3488 112.466 52.1867 112.321C52.0246 112.174 51.7872 112.1 51.4745 112.1C51.2111 112.1 50.9954 112.155 50.8275 112.265C50.6595 112.372 50.551 112.517 50.5018 112.699H49.5811C49.6101 112.439 49.707 112.207 49.8721 112.004C50.0371 111.799 50.26 111.64 50.5408 111.527C50.8246 111.411 51.1474 111.353 51.5093 111.353C51.8074 111.353 52.0941 111.399 52.3691 111.492C52.647 111.585 52.8815 111.753 53.0726 111.996C53.2637 112.239 53.3592 112.572 53.3592 112.995V116.13H52.456V115.487H52.4212C52.3141 115.696 52.1433 115.872 51.9088 116.017C51.6772 116.162 51.3819 116.234 51.0229 116.234C50.7218 116.234 50.4511 116.178 50.2108 116.065C49.9705 115.952 49.7809 115.788 49.6419 115.574C49.5029 115.357 49.4335 115.099 49.4335 114.801ZM50.3367 114.81C50.3367 115.03 50.4178 115.199 50.5799 115.318C50.7449 115.437 50.9621 115.496 51.2313 115.496C51.4745 115.496 51.6873 115.448 51.8697 115.353C52.0521 115.254 52.1925 115.124 52.2909 114.962C52.3894 114.797 52.4386 114.619 52.4386 114.428L52.4342 113.998L51.3269 114.072C51.0113 114.095 50.7667 114.167 50.5929 114.289C50.4221 114.407 50.3367 114.581 50.3367 114.81ZM56.6423 116.13H55.6435L53.9325 111.414H54.9313L56.1212 115.036H56.1646L57.3545 111.414H58.3533L56.6423 116.13ZM58.7441 114.801C58.7441 114.312 58.9092 113.963 59.2392 113.755C59.5692 113.546 59.9919 113.423 60.5073 113.385C60.7041 113.371 60.9184 113.358 61.15 113.346C61.3845 113.332 61.5828 113.322 61.7449 113.316L61.7406 112.942C61.7406 112.673 61.6595 112.466 61.4974 112.321C61.3353 112.174 61.0979 112.1 60.7852 112.1C60.5217 112.1 60.3061 112.155 60.1381 112.265C59.9702 112.372 59.8617 112.517 59.8124 112.699H58.8918C58.9207 112.439 59.0177 112.207 59.1828 112.004C59.3478 111.799 59.5707 111.64 59.8515 111.527C60.1352 111.411 60.458 111.353 60.8199 111.353C61.1181 111.353 61.4048 111.399 61.6798 111.492C61.9577 111.585 62.1922 111.753 62.3833 111.996C62.5744 112.239 62.6699 112.572 62.6699 112.995V116.13H61.7666V115.487H61.7319C61.6248 115.696 61.454 115.872 61.2195 116.017C60.9879 116.162 60.6926 116.234 60.3336 116.234C60.0325 116.234 59.7618 116.178 59.5215 116.065C59.2812 115.952 59.0916 115.788 58.9526 115.574C58.8136 115.357 58.7441 115.099 58.7441 114.801ZM59.6474 114.81C59.6474 115.03 59.7285 115.199 59.8906 115.318C60.0556 115.437 60.2728 115.496 60.542 115.496C60.7852 115.496 60.998 115.448 61.1804 115.353C61.3628 115.254 61.5032 115.124 61.6016 114.962C61.7001 114.797 61.7493 114.619 61.7493 114.428L61.7449 113.998L60.6375 114.072C60.322 114.095 60.0773 114.167 59.9036 114.289C59.7328 114.407 59.6474 114.581 59.6474 114.81ZM66.4394 112.699C66.3959 112.505 66.2975 112.355 66.1441 112.248C65.9935 112.138 65.7937 112.083 65.5448 112.083C65.3711 112.083 65.2147 112.112 65.0758 112.169C64.9368 112.224 64.8282 112.3 64.7501 112.395C64.6748 112.491 64.6386 112.598 64.6415 112.717C64.6357 112.858 64.6922 112.979 64.8109 113.077C64.9324 113.175 65.1221 113.255 65.3797 113.316L66.1267 113.49C66.5609 113.585 66.8838 113.739 67.0951 113.95C67.3064 114.158 67.415 114.431 67.4208 114.766C67.4179 115.05 67.3383 115.303 67.182 115.526C67.0285 115.746 66.807 115.919 66.5175 116.043C66.228 116.165 65.8864 116.225 65.4927 116.225C64.931 116.225 64.4852 116.105 64.1551 115.865C63.8251 115.625 63.6311 115.285 63.5732 114.845H64.5199C64.5981 115.267 64.9194 115.479 65.484 115.479C65.7851 115.479 66.0239 115.422 66.2005 115.309C66.38 115.193 66.4712 115.036 66.4741 114.836C66.4683 114.682 66.4061 114.555 66.2874 114.454C66.1716 114.352 65.9906 114.274 65.7445 114.219L65.0063 114.063C64.5807 113.967 64.2579 113.81 64.0379 113.589C63.8207 113.369 63.7122 113.096 63.7122 112.769C63.7122 112.491 63.7874 112.245 63.938 112.03C64.0914 111.816 64.3057 111.65 64.5807 111.531C64.8557 111.412 65.1742 111.353 65.5361 111.353C65.8806 111.353 66.1817 111.409 66.4394 111.522C66.6999 111.632 66.9055 111.789 67.056 111.991C67.2095 112.194 67.3021 112.43 67.3339 112.699H66.4394ZM70.3217 116.225C69.873 116.225 69.4821 116.123 69.1492 115.917C68.8162 115.709 68.56 115.421 68.3805 115.053C68.2039 114.685 68.1156 114.265 68.1156 113.794C68.1156 113.316 68.2054 112.893 68.3849 112.526C68.5673 112.155 68.8235 111.867 69.1535 111.661C69.4836 111.456 69.8672 111.353 70.3043 111.353C70.6604 111.353 70.9803 111.42 71.2641 111.553C71.5478 111.683 71.7765 111.868 71.9502 112.109C72.1239 112.349 72.2267 112.627 72.2585 112.942H71.3553C71.3031 112.708 71.1873 112.514 71.0078 112.361C70.8283 112.204 70.5996 112.126 70.3217 112.126C70.0669 112.126 69.8426 112.193 69.6486 112.326C69.4575 112.459 69.3084 112.65 69.2013 112.899C69.0971 113.145 69.045 113.435 69.045 113.768C69.045 114.109 69.0971 114.406 69.2013 114.658C69.3084 114.907 69.4575 115.099 69.6486 115.235C69.8397 115.369 70.064 115.435 70.3217 115.435C70.5852 115.435 70.8095 115.366 70.9948 115.227C71.1801 115.085 71.3003 114.888 71.3553 114.636H72.2585C72.2238 114.943 72.1225 115.217 71.9545 115.457C71.7895 115.697 71.5666 115.885 71.2858 116.021C71.0049 116.157 70.6836 116.225 70.3217 116.225ZM73.1358 111.414H74.0303V112.161H74.0825C74.1693 111.909 74.3213 111.711 74.5384 111.566C74.7556 111.418 75.0031 111.344 75.281 111.344C75.4142 111.344 75.5445 111.35 75.6719 111.362V112.248C75.6198 112.236 75.5459 112.224 75.4504 112.213C75.3578 112.201 75.2695 112.195 75.1855 112.195C74.9741 112.195 74.7831 112.242 74.6123 112.334C74.4414 112.424 74.3068 112.55 74.2084 112.712C74.1129 112.871 74.0651 113.052 74.0651 113.255V116.13H73.1358V111.414ZM76.3667 111.414H77.296V116.13H76.3667V111.414ZM76.8357 110.684C76.7315 110.684 76.633 110.66 76.5404 110.61C76.4507 110.561 76.3783 110.495 76.3233 110.411C76.2712 110.327 76.2451 110.235 76.2451 110.137C76.2451 110.039 76.2712 109.947 76.3233 109.863C76.3783 109.78 76.4507 109.713 76.5404 109.664C76.633 109.614 76.7315 109.59 76.8357 109.59C76.9399 109.59 77.0355 109.614 77.1223 109.664C77.2121 109.713 77.283 109.78 77.3351 109.863C77.3901 109.947 77.4176 110.039 77.4176 110.137C77.4176 110.235 77.3901 110.327 77.3351 110.411C77.283 110.495 77.2121 110.561 77.1223 110.61C77.0355 110.66 76.9399 110.684 76.8357 110.684ZM78.4251 111.414H79.3284V112.178H79.4066C79.4847 112.036 79.573 111.907 79.6715 111.792C79.7699 111.676 79.9089 111.574 80.0884 111.488C80.2708 111.398 80.4951 111.353 80.7615 111.353C81.1436 111.353 81.4838 111.45 81.782 111.644C82.0831 111.838 82.3176 112.119 82.4855 112.486C82.6563 112.851 82.7417 113.284 82.7417 113.785C82.7417 114.283 82.6578 114.716 82.4899 115.083C82.3219 115.451 82.0889 115.733 81.7907 115.93C81.4925 116.127 81.1523 116.225 80.7702 116.225C80.3938 116.225 80.1028 116.144 79.8973 115.982C79.6917 115.817 79.5282 115.62 79.4066 115.392H79.3545V117.902H78.4251V111.414ZM79.3371 113.768C79.3371 114.1 79.3849 114.393 79.4804 114.645C79.5759 114.894 79.7149 115.088 79.8973 115.227C80.0826 115.366 80.3041 115.435 80.5617 115.435C80.8252 115.435 81.0495 115.364 81.2348 115.222C81.423 115.078 81.5649 114.879 81.6604 114.627C81.756 114.376 81.8037 114.089 81.8037 113.768C81.8037 113.452 81.756 113.173 81.6604 112.929C81.5678 112.683 81.4274 112.491 81.2392 112.352C81.0539 112.213 80.8281 112.143 80.5617 112.143C80.168 112.143 79.8654 112.29 79.6541 112.582C79.4428 112.871 79.3371 113.267 79.3371 113.768ZM85.8685 112.152H84.9044V114.74C84.9044 114.981 84.9536 115.146 85.052 115.235C85.1534 115.322 85.2923 115.369 85.4689 115.374C85.55 115.374 85.6774 115.369 85.8511 115.357C85.8685 115.351 85.8974 115.348 85.9379 115.348V116.156C85.7642 116.179 85.5703 116.191 85.356 116.191C85.1042 116.191 84.874 116.144 84.6655 116.052C84.4571 115.959 84.2906 115.819 84.1661 115.631C84.0416 115.439 83.9808 115.206 83.9837 114.931V112.152H83.2889V111.414H83.9837V110.285H84.9044V111.414H85.8685V112.152Z"
        fill="#334155"
      />
      <rect
        x="95.1637"
        y="105.648"
        width="48.4469"
        height="14.9646"
        rx="2.9646"
        fill="#F1F5F9"
      />
      <path
        d="M100.583 114.445H99.1156L98.8377 116.13H98.0907L98.3687 114.445H97.4654L97.5783 113.707H98.4902L98.7247 112.265H97.8302L97.9431 111.518H98.8507L99.1243 109.842H99.8712L99.5976 111.518H101.065L101.339 109.842H102.077L101.804 111.518H102.72L102.598 112.265H101.682L101.448 113.707H102.355L102.225 114.445H101.326L101.052 116.13H100.305L100.583 114.445ZM100.705 113.707L100.94 112.265H99.4717L99.2372 113.707H100.705ZM104.118 111.666H105.604V109.807H106.368V114.949H103.337V109.807H104.118V111.666ZM105.604 114.28V112.317H104.118V114.28H105.604ZM109.773 116.868H108.982V112.812H108.018V116.486H107.236V109.234H108.018V112.135H108.982V109.086H109.773V116.868ZM117.876 114.193H114.697V116.868H113.889V114.193H110.754V113.507H117.876V114.193ZM114.298 109.381C114.842 109.381 115.322 109.452 115.739 109.594C116.159 109.733 116.485 109.934 116.716 110.198C116.951 110.458 117.068 110.762 117.068 111.11C117.068 111.454 116.951 111.757 116.716 112.017C116.485 112.275 116.159 112.473 115.739 112.612C115.322 112.751 114.842 112.821 114.298 112.821C113.75 112.821 113.267 112.751 112.847 112.612C112.43 112.473 112.106 112.275 111.874 112.017C111.643 111.757 111.527 111.454 111.527 111.11C111.527 110.762 111.643 110.458 111.874 110.198C112.106 109.934 112.43 109.733 112.847 109.594C113.267 109.452 113.75 109.381 114.298 109.381ZM114.298 110.042C113.913 110.044 113.575 110.089 113.286 110.176C112.996 110.263 112.772 110.386 112.613 110.545C112.453 110.705 112.375 110.893 112.378 111.11C112.375 111.324 112.453 111.511 112.613 111.67C112.772 111.826 112.996 111.948 113.286 112.035C113.575 112.119 113.913 112.161 114.298 112.161C114.683 112.161 115.02 112.119 115.309 112.035C115.599 111.948 115.823 111.826 115.983 111.67C116.145 111.511 116.226 111.324 116.226 111.11C116.226 110.893 116.146 110.705 115.987 110.545C115.828 110.386 115.602 110.263 115.309 110.176C115.02 110.089 114.683 110.044 114.298 110.042ZM124.746 110.597C124.746 111.035 124.74 111.415 124.729 111.74C124.72 112.061 124.694 112.433 124.65 112.856C124.61 113.278 124.543 113.736 124.451 114.228L123.617 114.141C123.71 113.675 123.778 113.236 123.821 112.825C123.867 112.411 123.895 112.043 123.904 111.722C123.915 111.401 123.921 111.026 123.921 110.597V110.502H119.196V109.833H124.746V110.597ZM125.545 115.817H118.449V115.131H121.15V112.387H121.967V115.131H125.545V115.817ZM128.837 114.228C128.837 114.578 128.924 114.915 129.097 115.24C129.274 115.561 129.532 115.823 129.87 116.026C130.099 115.878 130.293 115.703 130.452 115.5C130.614 115.298 130.736 115.086 130.817 114.866C130.898 114.646 130.939 114.433 130.939 114.228V113.854H131.746V114.228C131.746 114.5 131.806 114.763 131.924 115.018C132.043 115.27 132.218 115.494 132.45 115.691C132.682 115.888 132.962 116.04 133.292 116.147L132.884 116.755C132.508 116.625 132.188 116.437 131.924 116.191C131.664 115.948 131.463 115.662 131.321 115.335C131.191 115.665 131.005 115.961 130.765 116.221C130.528 116.482 130.238 116.683 129.896 116.825C129.537 116.689 129.235 116.493 128.989 116.239C128.746 115.984 128.56 115.69 128.433 115.357C128.288 115.673 128.087 115.952 127.829 116.195C127.572 116.438 127.265 116.625 126.909 116.755L126.492 116.147C126.813 116.032 127.09 115.872 127.321 115.67C127.556 115.467 127.732 115.241 127.851 114.992C127.973 114.74 128.035 114.486 128.038 114.228V113.854H128.837V114.228ZM132.589 113.524H131.764V109.095H132.589V113.524ZM128.368 109.52C128.762 109.52 129.115 109.599 129.427 109.755C129.743 109.911 129.989 110.13 130.166 110.411C130.345 110.689 130.435 111.006 130.435 111.362C130.435 111.715 130.345 112.03 130.166 112.308C129.989 112.583 129.743 112.799 129.427 112.955C129.115 113.109 128.762 113.186 128.368 113.186C127.974 113.186 127.619 113.109 127.304 112.955C126.988 112.799 126.741 112.583 126.561 112.308C126.382 112.03 126.292 111.715 126.292 111.362C126.292 111.006 126.382 110.689 126.561 110.411C126.741 110.13 126.988 109.911 127.304 109.755C127.619 109.599 127.974 109.52 128.368 109.52ZM128.368 110.224C128.125 110.221 127.906 110.267 127.712 110.363C127.521 110.456 127.37 110.589 127.26 110.762C127.153 110.936 127.1 111.136 127.1 111.362C127.1 111.585 127.153 111.783 127.26 111.957C127.37 112.127 127.521 112.261 127.712 112.356C127.906 112.452 128.125 112.499 128.368 112.499C128.608 112.499 128.824 112.452 129.015 112.356C129.206 112.261 129.355 112.127 129.462 111.957C129.572 111.783 129.627 111.585 129.627 111.362C129.627 111.136 129.572 110.936 129.462 110.762C129.355 110.589 129.206 110.456 129.015 110.363C128.824 110.267 128.608 110.221 128.368 110.224ZM140.119 112.022H134.76V109.364H135.577V111.362H140.119V112.022ZM140.936 113.663H133.814V113.003H140.936V113.663ZM140.171 116.686H134.699V114.402H135.525V116.008H140.171V116.686Z"
        fill="#334155"
      />
      <rect
        x="149.54"
        y="105.648"
        width="25.4469"
        height="14.9646"
        rx="2.9646"
        fill="#F1F5F9"
      />
      <path
        d="M154.959 114.445H153.492L153.214 116.13H152.467L152.745 114.445H151.841L151.954 113.707H152.866L153.101 112.265H152.206L152.319 111.518H153.227L153.5 109.842H154.247L153.974 111.518H155.441L155.715 109.842H156.453L156.18 111.518H157.096L156.974 112.265H156.058L155.824 113.707H156.731L156.601 114.445H155.702L155.428 116.13H154.681L154.959 114.445ZM155.081 113.707L155.315 112.265H153.848L153.613 113.707H155.081ZM162.099 110.537H157.461V109.876H159.372V109.051H160.197V109.876H162.099V110.537ZM159.78 110.884C160.15 110.887 160.477 110.948 160.761 111.066C161.048 111.182 161.269 111.347 161.426 111.561C161.585 111.773 161.664 112.019 161.664 112.3C161.664 112.581 161.585 112.828 161.426 113.042C161.269 113.257 161.048 113.423 160.761 113.542C160.477 113.658 160.15 113.715 159.78 113.715C159.406 113.715 159.076 113.658 158.79 113.542C158.503 113.423 158.28 113.257 158.121 113.042C157.965 112.828 157.886 112.581 157.886 112.3C157.886 112.019 157.965 111.773 158.121 111.561C158.28 111.347 158.503 111.182 158.79 111.066C159.076 110.948 159.406 110.887 159.78 110.884ZM159.78 111.518C159.56 111.518 159.367 111.55 159.202 111.614C159.037 111.677 158.908 111.768 158.816 111.887C158.726 112.006 158.683 112.143 158.685 112.3C158.683 112.54 158.779 112.73 158.976 112.869C159.176 113.005 159.444 113.073 159.78 113.073C160.113 113.073 160.38 113.005 160.583 112.869C160.786 112.73 160.889 112.54 160.891 112.3C160.889 112.143 160.841 112.006 160.748 111.887C160.656 111.768 160.525 111.677 160.357 111.614C160.189 111.55 159.997 111.518 159.78 111.518ZM163.567 111.197H164.696V111.883H163.567V113.95H162.741V109.086H163.567V111.197ZM163.567 116.868H162.741V115.018H158.425V114.349H163.567V116.868ZM167.518 110.58C167.518 110.867 167.578 111.147 167.696 111.422C167.818 111.695 167.996 111.941 168.231 112.161C168.465 112.378 168.746 112.549 169.073 112.673L168.639 113.307C168.286 113.171 167.98 112.979 167.722 112.73C167.468 112.481 167.268 112.191 167.123 111.861C166.976 112.235 166.769 112.568 166.502 112.86C166.236 113.152 165.92 113.377 165.556 113.533L165.104 112.89C165.443 112.743 165.734 112.544 165.977 112.295C166.22 112.043 166.404 111.768 166.528 111.47C166.656 111.172 166.719 110.875 166.719 110.58V109.573H167.518V110.58ZM171.774 113.88H170.993V111.796H170.081V113.637H169.316V109.234H170.081V111.119H170.993V109.095H171.774V113.88ZM169.169 114.028C169.707 114.028 170.175 114.085 170.571 114.197C170.968 114.31 171.273 114.474 171.488 114.688C171.705 114.9 171.815 115.151 171.818 115.444C171.815 115.736 171.705 115.988 171.488 116.199C171.273 116.414 170.968 116.576 170.571 116.686C170.175 116.799 169.707 116.854 169.169 116.851C168.63 116.854 168.163 116.799 167.766 116.686C167.369 116.576 167.064 116.414 166.85 116.199C166.638 115.988 166.534 115.736 166.537 115.444C166.534 115.151 166.638 114.9 166.85 114.688C167.064 114.474 167.369 114.31 167.766 114.197C168.163 114.085 168.63 114.028 169.169 114.028ZM169.169 114.662C168.792 114.662 168.467 114.694 168.192 114.758C167.919 114.818 167.711 114.908 167.566 115.027C167.421 115.143 167.35 115.282 167.353 115.444C167.35 115.606 167.421 115.746 167.566 115.865C167.711 115.981 167.921 116.069 168.196 116.13C168.471 116.191 168.795 116.22 169.169 116.217C169.542 116.22 169.865 116.191 170.137 116.13C170.412 116.069 170.622 115.981 170.767 115.865C170.914 115.749 170.99 115.609 170.993 115.444C170.99 115.198 170.826 115.007 170.502 114.871C170.18 114.732 169.736 114.662 169.169 114.662Z"
        fill="#334155"
      />
      <path
        d="M183.843 111.483C183.84 111.889 183.927 112.301 184.103 112.721C184.283 113.138 184.526 113.516 184.833 113.854C185.14 114.19 185.479 114.445 185.849 114.619L185.458 115.157C185.027 114.949 184.638 114.63 184.29 114.202C183.946 113.773 183.685 113.296 183.508 112.769C183.393 113.145 183.233 113.503 183.031 113.841C182.828 114.18 182.597 114.48 182.336 114.74C182.075 114.998 181.802 115.201 181.515 115.348L181.098 114.81C181.466 114.633 181.808 114.365 182.123 114.006C182.442 113.647 182.695 113.245 182.883 112.799C183.074 112.353 183.171 111.915 183.174 111.483V110.476H181.376V109.911H185.58V110.476H183.843V111.483ZM187.204 112.239H188.498V112.821H187.204V116.833H186.527V109.112H187.204V112.239ZM194.891 112.152H196.185V112.743H194.891V116.833H194.213V109.112H194.891V112.152ZM189.914 111.813H192.172V109.772H192.85V114.983H189.236V109.772H189.914V111.813ZM192.172 114.41V112.361H189.914V114.41H192.172ZM200.449 110.25C200.449 110.67 200.59 111.077 200.87 111.47C201.154 111.861 201.518 112.194 201.96 112.469C202.403 112.741 202.852 112.919 203.307 113.003L202.994 113.576C202.6 113.484 202.212 113.333 201.83 113.125C201.448 112.916 201.105 112.659 200.801 112.352C200.497 112.045 200.264 111.708 200.102 111.34C199.94 111.705 199.707 112.041 199.403 112.347C199.099 112.654 198.756 112.913 198.373 113.125C197.994 113.333 197.606 113.484 197.21 113.576L196.897 113.003C197.351 112.913 197.799 112.734 198.239 112.465C198.679 112.193 199.038 111.861 199.316 111.47C199.597 111.079 199.737 110.673 199.737 110.25V109.659H200.449V110.25ZM203.671 115.783H196.602V115.218H203.671V115.783ZM210.446 110.858C210.446 111.356 210.44 111.774 210.429 112.113C210.42 112.452 210.392 112.831 210.346 113.251C210.3 113.668 210.226 114.121 210.125 114.61L209.439 114.549C209.592 113.88 209.692 113.219 209.738 112.565L205.026 112.821L204.931 112.256L209.764 112.057C209.77 111.894 209.774 111.734 209.777 111.574C209.78 111.412 209.783 111.252 209.786 111.092V110.858V110.476H205.139V109.903H210.446V110.858ZM211.323 115.748H204.288V115.175H211.323V115.748ZM218.35 113.359H217.672V109.121H218.35V113.359ZM215.892 111.579H213.043V112.63C213.842 112.624 214.508 112.607 215.041 112.578C215.576 112.546 216.132 112.482 216.708 112.387L216.786 112.951C216.184 113.047 215.604 113.112 215.045 113.147C214.486 113.178 213.807 113.197 213.008 113.203H212.383V111.04H215.214V110.059H212.366V109.494H215.892V111.579ZM214.016 114.671H217.672V113.75H218.35V116.729H213.33V113.75H214.016V114.671ZM217.672 116.173V115.218H214.016V116.173H217.672ZM225.915 113.846H220.573V109.781H225.828V110.354H221.268V111.501H225.663V112.048H221.268V113.29H225.915V113.846ZM226.731 115.826H219.661V115.261H226.731V115.826ZM235.964 116.833H235.277V109.112H235.964V116.833ZM233.679 109.955C233.674 111.121 233.378 112.169 232.793 113.099C232.209 114.025 231.294 114.787 230.049 115.383L229.675 114.827C230.706 114.338 231.495 113.73 232.042 113.003C232.592 112.277 232.906 111.446 232.985 110.511H230.031V109.955H233.679ZM244.336 115.861H237.266V115.287H240.454V113.516H241.123V115.287H244.336V115.861ZM243.659 110.91H241.14C241.14 111.301 241.266 111.66 241.518 111.987C241.77 112.314 242.106 112.588 242.525 112.808C242.948 113.025 243.41 113.174 243.911 113.255L243.65 113.794C243.005 113.678 242.425 113.465 241.913 113.155C241.401 112.843 241.026 112.453 240.788 111.987C240.554 112.453 240.18 112.843 239.668 113.155C239.155 113.465 238.575 113.678 237.926 113.794L237.657 113.255C238.161 113.174 238.624 113.025 239.047 112.808C239.472 112.588 239.811 112.314 240.063 111.987C240.318 111.66 240.445 111.301 240.445 110.91H237.926V110.346H240.454V109.277H241.123V110.346H243.659V110.91ZM250.868 110.641H249.469C249.472 110.927 249.54 111.208 249.673 111.483C249.807 111.755 249.993 112 250.234 112.217C250.474 112.434 250.752 112.604 251.067 112.725L250.746 113.238C250.375 113.093 250.054 112.886 249.782 112.617C249.513 112.345 249.307 112.033 249.165 111.683C249.026 112.065 248.819 112.405 248.544 112.704C248.272 113.002 247.949 113.229 247.576 113.385L247.237 112.864C247.553 112.734 247.829 112.554 248.067 112.326C248.304 112.094 248.488 111.832 248.618 111.54C248.748 111.247 248.818 110.948 248.827 110.641H247.402V110.076H248.827V109.182H249.469V110.076H250.868V110.641ZM253.742 113.437H253.091V111.527H252.084V113.394H251.423V109.26H252.084V110.962H253.091V109.121H253.742V113.437ZM249.33 114.653H253.074V113.759H253.742V116.729H248.653V113.759H249.33V114.653ZM253.074 116.173V115.201H249.33V116.173H253.074ZM261.273 116.851H260.595V112.595H258.962V112.03H260.595V109.112H261.273V116.851ZM258.832 110.389H255.914V111.996H258.493V112.552H255.914V114.419C256.652 114.419 257.272 114.403 257.772 114.371C258.276 114.336 258.786 114.274 259.301 114.184L259.379 114.749C258.832 114.839 258.294 114.901 257.764 114.936C257.234 114.968 256.585 114.983 255.818 114.983H255.228V109.824H258.832V110.389ZM265.059 116.13H264.269V110.658H264.234L262.706 111.674V110.884L264.269 109.842H265.059V116.13ZM275.734 113.325H268.69V112.743H275.734V113.325ZM274.917 111.918H269.602V109.355H274.83V109.929H270.288V111.362H274.917V111.918ZM274.952 116.729H269.585V114.158H274.883V114.714H270.262V116.165H274.952V116.729ZM282.76 116.833H282.074V109.112H282.76V116.833ZM280.476 109.955C280.47 111.121 280.175 112.169 279.59 113.099C279.005 114.025 278.09 114.787 276.845 115.383L276.472 114.827C277.503 114.338 278.292 113.73 278.839 113.003C279.389 112.277 279.703 111.446 279.781 110.511H276.828V109.955H280.476Z"
        fill="#334155"
      />
      <rect
        x="32.9316"
        y="34.0908"
        width="33.9153"
        height="16.9788"
        rx="8.48942"
        fill="#F4F4FF"
      />
      <rect
        x="32.9316"
        y="34.0908"
        width="33.9153"
        height="16.9788"
        rx="8.48942"
        stroke="#DDDAFF"
        stroke-width="0.741149"
      />
      <path
        d="M38.7193 39.292H43.5918V40.1171H41.6376V45.5802H40.6822V40.1171H38.7193V39.292ZM45.7979 45.6757C45.3578 45.6757 44.9713 45.5744 44.6384 45.3718C44.3054 45.1691 44.0478 44.8854 43.8654 44.5206C43.683 44.1529 43.5918 43.7273 43.5918 43.2438C43.5918 42.7575 43.683 42.3304 43.8654 41.9628C44.0478 41.5951 44.3054 41.3099 44.6384 41.1073C44.9713 40.9046 45.3578 40.8033 45.7979 40.8033C46.235 40.8033 46.6201 40.9046 46.953 41.1073C47.286 41.3099 47.5422 41.5965 47.7217 41.9671C47.9041 42.3348 47.9953 42.7604 47.9953 43.2438C47.9953 43.7273 47.9041 44.1529 47.7217 44.5206C47.5422 44.8854 47.286 45.1691 46.953 45.3718C46.6201 45.5744 46.235 45.6757 45.7979 45.6757ZM45.7979 44.9027C46.0729 44.9027 46.3045 44.8289 46.4927 44.6813C46.6809 44.5336 46.8213 44.3353 46.9139 44.0863C47.0095 43.8344 47.0573 43.5536 47.0573 43.2438C47.0573 42.9341 47.0095 42.6532 46.9139 42.4014C46.8213 42.1466 46.6794 41.9439 46.4884 41.7934C46.3002 41.6428 46.07 41.5676 45.7979 41.5676C45.5199 41.5676 45.284 41.6428 45.09 41.7934C44.8989 41.9439 44.7556 42.1466 44.6601 42.4014C44.5675 42.6532 44.5211 42.9341 44.5211 43.2438C44.5211 43.5536 44.5675 43.8344 44.6601 44.0863C44.7556 44.3353 44.8989 44.5336 45.09 44.6813C45.284 44.8289 45.5199 44.9027 45.7979 44.9027ZM52.8417 45.6757C52.4624 45.6757 52.1237 45.5773 51.8255 45.3804C51.5273 45.1836 51.2928 44.9013 51.122 44.5336C50.9541 44.163 50.8701 43.7302 50.8701 43.2352C50.8701 42.7343 50.9541 42.3015 51.122 41.9367C51.2928 41.569 51.5273 41.2882 51.8255 41.0942C52.1266 40.9002 52.4682 40.8033 52.8504 40.8033C53.1196 40.8033 53.344 40.8481 53.5235 40.9379C53.7059 41.0247 53.8463 41.1261 53.9447 41.2419C54.0461 41.3577 54.1358 41.4865 54.214 41.6284H54.2574V39.292H55.1867V45.5802H54.2835V44.8419H54.214C54.0866 45.0736 53.9201 45.2704 53.7146 45.4325C53.509 45.5947 53.2181 45.6757 52.8417 45.6757ZM53.0501 44.8854C53.3078 44.8854 53.5293 44.8159 53.7146 44.6769C53.8999 44.538 54.0403 44.3425 54.1358 44.0907C54.2342 43.8388 54.2835 43.5478 54.2835 43.2178C54.2835 42.8877 54.2357 42.6011 54.1401 42.3579C54.0446 42.1147 53.9042 41.9266 53.7189 41.7934C53.5336 41.6602 53.3107 41.5936 53.0501 41.5936C52.7838 41.5936 52.558 41.6631 52.3727 41.8021C52.1874 41.941 52.0484 42.1336 51.9558 42.3797C51.8631 42.6228 51.8168 42.9022 51.8168 43.2178C51.8168 43.5391 51.8631 43.8258 51.9558 44.0776C52.0513 44.3295 52.1917 44.5278 52.377 44.6726C52.5652 44.8144 52.7896 44.8854 53.0501 44.8854ZM58.3916 45.6757C57.9516 45.6757 57.5651 45.5744 57.2321 45.3718C56.8992 45.1691 56.6415 44.8854 56.4591 44.5206C56.2767 44.1529 56.1855 43.7273 56.1855 43.2438C56.1855 42.7575 56.2767 42.3304 56.4591 41.9628C56.6415 41.5951 56.8992 41.3099 57.2321 41.1073C57.5651 40.9046 57.9516 40.8033 58.3916 40.8033C58.8288 40.8033 59.2138 40.9046 59.5468 41.1073C59.8797 41.3099 60.1359 41.5965 60.3154 41.9671C60.4978 42.3348 60.589 42.7604 60.589 43.2438C60.589 43.7273 60.4978 44.1529 60.3154 44.5206C60.1359 44.8854 59.8797 45.1691 59.5468 45.3718C59.2138 45.5744 58.8288 45.6757 58.3916 45.6757ZM58.3916 44.9027C58.6667 44.9027 58.8983 44.8289 59.0864 44.6813C59.2746 44.5336 59.415 44.3353 59.5077 44.0863C59.6032 43.8344 59.651 43.5536 59.651 43.2438C59.651 42.9341 59.6032 42.6532 59.5077 42.4014C59.415 42.1466 59.2732 41.9439 59.0821 41.7934C58.8939 41.6428 58.6638 41.5676 58.3916 41.5676C58.1137 41.5676 57.8777 41.6428 57.6838 41.7934C57.4927 41.9439 57.3494 42.1466 57.2538 42.4014C57.1612 42.6532 57.1149 42.9341 57.1149 43.2438C57.1149 43.5536 57.1612 43.8344 57.2538 44.0863C57.3494 44.3353 57.4927 44.5336 57.6838 44.6813C57.8777 44.8289 58.1137 44.9027 58.3916 44.9027Z"
        fill="#334155"
      />
    </g>
    <defs>
      <filter
        id="filter0_d_912_16863"
        x="0.4"
        y="-0.2"
        width="480.2"
        height="158.749"
        filterUnits="userSpaceOnUse"
        color-interpolation-filters="sRGB"
      >
        <feFlood flood-opacity="0" result="BackgroundImageFix" />
        <feColorMatrix
          in="SourceAlpha"
          type="matrix"
          values="0 0 0 0 0 0 0 0 0 0 0 0 0 0 0 0 0 0 127 0"
          result="hardAlpha"
        />
        <feOffset dy="2.4" />
        <feGaussianBlur stdDeviation="9.3" />
        <feComposite in2="hardAlpha" operator="out" />
        <feColorMatrix
          type="matrix"
          values="0 0 0 0 0.788032 0 0 0 0 0.820893 0 0 0 0 0.903044 0 0 0 0.5 0"
        />
        <feBlend
          mode="normal"
          in2="BackgroundImageFix"
          result="effect1_dropShadow_912_16863"
        />
        <feBlend
          mode="normal"
          in="SourceGraphic"
          in2="effect1_dropShadow_912_16863"
          result="shape"
        />
      </filter>
    </defs>
  </svg>
