<svg width="20" height="20" viewBox="0 0 20 20" fill="none" xmlns="http://www.w3.org/2000/svg">
<mask id="path-1-inside-1_1286_10613" fill="white">
<path d="M20 10C20 12.4351 19.1115 14.7865 17.5011 16.6131C15.8908 18.4397 13.6692 19.6159 11.2533 19.9211C8.83743 20.2263 6.39319 19.6395 4.37917 18.2708C2.36514 16.9021 0.919753 14.8455 0.314168 12.4869C-0.291416 10.1283 -0.0155771 7.62978 1.08993 5.4601C2.19545 3.29041 4.05466 1.59865 6.31875 0.702235C8.58285 -0.194185 11.0962 -0.233668 13.3874 0.591192C15.6785 1.41605 17.5899 3.04857 18.7631 5.18246L10 10L20 10Z"/>
</mask>
<path d="M20 10C20 12.4351 19.1115 14.7865 17.5011 16.6131C15.8908 18.4397 13.6692 19.6159 11.2533 19.9211C8.83743 20.2263 6.39319 19.6395 4.37917 18.2708C2.36514 16.9021 0.919753 14.8455 0.314168 12.4869C-0.291416 10.1283 -0.0155771 7.62978 1.08993 5.4601C2.19545 3.29041 4.05466 1.59865 6.31875 0.702235C8.58285 -0.194185 11.0962 -0.233668 13.3874 0.591192C15.6785 1.41605 17.5899 3.04857 18.7631 5.18246L10 10L20 10Z" stroke="#F5F5F5" stroke-width="1.77778" stroke-linejoin="round" mask="url(#path-1-inside-1_1286_10613)"/>
</svg>
