<svg width="24" height="24" viewBox="0 0 24 24" fill="none" xmlns="http://www.w3.org/2000/svg">
<path d="M17.1317 6.36486H16.149C15.1684 6.41744 14.3279 5.70543 14.27 4.77297V4.69081C14.2422 4.24107 14.0272 3.82037 13.6726 3.52167C13.318 3.22296 12.8529 3.07084 12.3801 3.09892H5.61987V2.77027C5.61987 2.34486 5.25725 2 4.80994 2C4.36262 2 4 2.34486 4 2.77027V20.2297C4 20.6551 4.36262 21 4.80994 21C5.25725 21 5.61987 20.6551 5.61987 20.2297V11.7259H6.88337C7.864 11.6734 8.70445 12.3854 8.76242 13.3178V13.3795C8.82039 14.3119 9.66084 15.0239 10.6415 14.9714H17.1209C18.1016 15.0239 18.942 14.3119 19 13.3795V7.93622C18.9252 7.01876 18.0984 6.32331 17.1317 6.36486Z" fill="white"/>
</svg>
