<svg viewBox="0 0 40 40" fill="none" xmlns="http://www.w3.org/2000/svg">
<path d="M14.3167 22.5166L25.7 29.15M25.6833 10.85L14.3167 17.4833M35 8.33331C35 11.0947 32.7614 13.3333 30 13.3333C27.2386 13.3333 25 11.0947 25 8.33331C25 5.57189 27.2386 3.33331 30 3.33331C32.7614 3.33331 35 5.57189 35 8.33331ZM15 20C15 22.7614 12.7614 25 10 25C7.23858 25 5 22.7614 5 20C5 17.2386 7.23858 15 10 15C12.7614 15 15 17.2386 15 20ZM35 31.6666C35 34.4281 32.7614 36.6666 30 36.6666C27.2386 36.6666 25 34.4281 25 31.6666C25 28.9052 27.2386 26.6666 30 26.6666C32.7614 26.6666 35 28.9052 35 31.6666Z" stroke="#6F63FF" stroke-width="2" stroke-linecap="round" stroke-linejoin="round"/>
</svg>
