<svg width="100" height="26" viewBox="0 0 100 26" fill="none" xmlns="http://www.w3.org/2000/svg">
<path d="M29.9653 15.6847C29.9653 16.2802 29.8515 16.8388 29.624 17.3607C29.3966 17.8825 29.0855 18.3408 28.6907 18.7355C28.3027 19.1236 27.8478 19.4313 27.3259 19.6588C26.8041 19.8863 26.2454 20 25.65 20H18.4545V5.60902H25.65C26.2454 5.60902 26.8041 5.72276 27.3259 5.95023C27.8478 6.17771 28.3027 6.48881 28.6907 6.88354C29.0855 7.27158 29.3966 7.72653 29.624 8.24837C29.8515 8.77022 29.9653 9.32887 29.9653 9.92431C29.9653 10.1919 29.9285 10.4662 29.8549 10.7472C29.7813 11.0282 29.6776 11.2992 29.5438 11.5601C29.41 11.821 29.2494 12.0585 29.0621 12.2726C28.8747 12.4867 28.6673 12.664 28.4398 12.8045C28.674 12.9316 28.8848 13.1056 29.0721 13.3264C29.2594 13.5405 29.42 13.778 29.5538 14.0389C29.6876 14.2998 29.788 14.5741 29.8549 14.8618C29.9285 15.1428 29.9653 15.4171 29.9653 15.6847ZM21.3347 17.1198H25.65C25.8507 17.1198 26.038 17.083 26.212 17.0094C26.3859 16.9358 26.5364 16.8355 26.6636 16.7083C26.7974 16.5745 26.9011 16.4207 26.9747 16.2467C27.0483 16.0728 27.085 15.8854 27.085 15.6847C27.085 15.484 27.0483 15.2967 26.9747 15.1227C26.9011 14.9488 26.7974 14.7982 26.6636 14.6711C26.5364 14.5373 26.3859 14.4336 26.212 14.36C26.038 14.2864 25.8507 14.2496 25.65 14.2496H21.3347V17.1198ZM21.3347 11.3694H25.65C25.8507 11.3694 26.038 11.3326 26.212 11.259C26.3859 11.1854 26.5364 11.0851 26.6636 10.958C26.7974 10.8242 26.9011 10.6703 26.9747 10.4963C27.0483 10.3157 27.085 10.125 27.085 9.92431C27.085 9.7236 27.0483 9.53627 26.9747 9.36232C26.9011 9.18837 26.7974 9.03784 26.6636 8.91072C26.5364 8.77691 26.3859 8.67321 26.212 8.59962C26.038 8.52602 25.8507 8.48923 25.65 8.48923H21.3347V11.3694ZM39.7499 18.7456C39.5291 18.9463 39.2916 19.1369 39.0374 19.3176C38.7898 19.4915 38.5289 19.6454 38.2546 19.7792C37.9803 19.9063 37.696 20.0067 37.4016 20.0803C37.1139 20.1606 36.8195 20.2007 36.5185 20.2007C35.8561 20.2007 35.2339 20.0836 34.6519 19.8495C34.0698 19.6153 33.558 19.2841 33.1164 18.8559C32.6815 18.4211 32.337 17.8959 32.0828 17.2804C31.8352 16.6582 31.7114 15.9624 31.7114 15.193V9.25193H34.4411V15.193C34.4411 15.5543 34.4946 15.8787 34.6017 16.1664C34.7154 16.4474 34.8659 16.6849 35.0533 16.8789C35.2406 17.073 35.458 17.2202 35.7056 17.3205C35.9598 17.4209 36.2308 17.471 36.5185 17.471C36.7995 17.471 37.0637 17.4075 37.3113 17.2804C37.5655 17.1466 37.7863 16.9726 37.9736 16.7585C38.1609 16.5444 38.3081 16.3036 38.4152 16.036C38.5222 15.7617 38.5758 15.4807 38.5758 15.193V9.25193H41.3155V20H40.6531L39.7499 18.7456ZM46.6443 6.33158C46.6443 6.58582 46.5942 6.82333 46.4938 7.04411C46.4001 7.26489 46.2697 7.45891 46.1024 7.62617C45.9352 7.78674 45.7378 7.9172 45.5103 8.01756C45.2895 8.11122 45.052 8.15805 44.7978 8.15805C44.5436 8.15805 44.3027 8.11122 44.0752 8.01756C43.8544 7.9172 43.6604 7.78674 43.4932 7.62617C43.3326 7.45891 43.2021 7.26489 43.1018 7.04411C43.0081 6.82333 42.9613 6.58582 42.9613 6.33158C42.9613 6.08404 43.0081 5.84988 43.1018 5.6291C43.2021 5.40162 43.3326 5.2076 43.4932 5.04703C43.6604 4.87978 43.8544 4.74931 44.0752 4.65565C44.3027 4.55529 44.5436 4.50511 44.7978 4.50511C45.052 4.50511 45.2895 4.55529 45.5103 4.65565C45.7378 4.74931 45.9352 4.87978 46.1024 5.04703C46.2697 5.2076 46.4001 5.40162 46.4938 5.6291C46.5942 5.84988 46.6443 6.08404 46.6443 6.33158ZM46.1727 20H43.4129V9.25193H46.1727V20ZM51.0299 20H48.2701V4.97679H51.0299V20ZM64.9492 12.8045C64.9492 13.4669 64.8622 14.1058 64.6882 14.7213C64.521 15.3301 64.2801 15.9022 63.9657 16.4374C63.6512 16.9659 63.2766 17.451 62.8417 17.8925C62.4068 18.3274 61.9218 18.7021 61.3866 19.0165C60.8513 19.331 60.276 19.5752 59.6604 19.7491C59.0516 19.9164 58.416 20 57.7537 20H53.4183V5.60902H57.7537C58.416 5.60902 59.0516 5.696 59.6604 5.86995C60.276 6.03721 60.8513 6.27806 61.3866 6.59251C61.9218 6.90696 62.4068 7.28496 62.8417 7.72653C63.2766 8.1614 63.6512 8.64645 63.9657 9.18168C64.2801 9.71022 64.521 10.2822 64.6882 10.8978C64.8622 11.5066 64.9492 12.1422 64.9492 12.8045ZM62.069 12.8045C62.069 12.2091 61.9552 11.6504 61.7278 11.1286C61.507 10.6067 61.1992 10.1518 60.8045 9.76374C60.4164 9.36901 59.9582 9.05791 59.4296 8.83044C58.9078 8.60296 58.3491 8.48923 57.7537 8.48923H56.3186V17.1198H57.7537C58.3491 17.1198 58.9078 17.0094 59.4296 16.7886C59.9582 16.5612 60.4164 16.2534 60.8045 15.8654C61.1992 15.4706 61.507 15.0123 61.7278 14.4905C61.9552 13.9619 62.069 13.4 62.069 12.8045ZM76.9617 14.5306C76.9617 15.3335 76.8179 16.0828 76.5302 16.7786C76.2425 17.4677 75.8511 18.0665 75.356 18.575C74.8609 19.0767 74.2789 19.4748 73.6098 19.7692C72.9475 20.0569 72.235 20.2007 71.4723 20.2007C70.7163 20.2007 70.0037 20.0569 69.3347 19.7692C68.6724 19.4748 68.0903 19.0767 67.5885 18.575C67.0934 18.0665 66.702 17.4677 66.4144 16.7786C66.1267 16.0828 65.9828 15.3335 65.9828 14.5306C65.9828 13.7144 66.1267 12.9584 66.4144 12.2626C66.702 11.5668 67.0934 10.968 67.5885 10.4662C68.0903 9.95776 68.6724 9.55969 69.3347 9.272C70.0037 8.98431 70.7163 8.84047 71.4723 8.84047C72.235 8.84047 72.9475 8.97762 73.6098 9.25193C74.2789 9.51954 74.8609 9.90424 75.356 10.406C75.8511 10.9011 76.2425 11.4999 76.5302 12.2024C76.8179 12.8982 76.9617 13.6743 76.9617 14.5306ZM74.2019 14.5306C74.2019 14.0891 74.1283 13.691 73.9812 13.3364C73.8407 12.9751 73.6466 12.6674 73.3991 12.4131C73.1516 12.1522 72.8605 11.9548 72.526 11.821C72.1982 11.6805 71.8469 11.6103 71.4723 11.6103C71.0976 11.6103 70.743 11.6805 70.4085 11.821C70.0807 11.9548 69.793 12.1522 69.5454 12.4131C69.3046 12.6674 69.1139 12.9751 68.9734 13.3364C68.8329 13.691 68.7627 14.0891 68.7627 14.5306C68.7627 14.9454 68.8329 15.3301 68.9734 15.6847C69.1139 16.0393 69.3046 16.3471 69.5454 16.608C69.793 16.8689 70.0807 17.0763 70.4085 17.2302C70.743 17.3774 71.0976 17.451 71.4723 17.451C71.8469 17.451 72.1982 17.3807 72.526 17.2402C72.8605 17.0997 73.1516 16.9024 73.3991 16.6481C73.6466 16.3939 73.8407 16.0861 73.9812 15.7249C74.1283 15.3636 74.2019 14.9655 74.2019 14.5306ZM81.2168 20H78.4771V9.25193H79.1394L80.0426 10.2956C80.4842 9.8942 80.9826 9.58645 81.5379 9.37236C82.0999 9.15157 82.6853 9.04118 83.2942 9.04118C83.9498 9.04118 84.5687 9.1683 85.1507 9.42253C85.7328 9.67008 86.2413 10.0146 86.6761 10.4562C87.111 10.8911 87.4522 11.4029 87.6998 11.9916C87.954 12.5737 88.0811 13.1959 88.0811 13.8582V20H85.3414V13.8582C85.3414 13.5772 85.2879 13.313 85.1808 13.0654C85.0738 12.8112 84.9266 12.5904 84.7393 12.4031C84.5519 12.2158 84.3345 12.0686 84.087 11.9615C83.8394 11.8545 83.5751 11.801 83.2942 11.801C83.0065 11.801 82.7355 11.8545 82.4813 11.9615C82.227 12.0686 82.0063 12.2158 81.8189 12.4031C81.6316 12.5904 81.4844 12.8112 81.3774 13.0654C81.2703 13.313 81.2168 13.5772 81.2168 13.8582V20ZM94.3132 17.3707C94.4202 17.4041 94.5273 17.4276 94.6343 17.4409C94.7414 17.4476 94.8484 17.451 94.9555 17.451C95.2231 17.451 95.4806 17.4142 95.7282 17.3406C95.9757 17.267 96.2066 17.1633 96.4206 17.0295C96.6414 16.889 96.8354 16.7217 97.0027 16.5277C97.1767 16.327 97.3172 16.1062 97.4242 15.8654L99.4313 17.8825C99.1771 18.2438 98.8827 18.5683 98.5482 18.8559C98.2204 19.1436 97.8624 19.3878 97.4744 19.5885C97.093 19.7893 96.6883 19.9398 96.2601 20.0401C95.8386 20.1472 95.4037 20.2007 94.9555 20.2007C94.1994 20.2007 93.4869 20.0602 92.8179 19.7792C92.1555 19.4982 91.5735 19.1068 91.0717 18.6051C90.5766 18.1033 90.1852 17.5078 89.8975 16.8187C89.6099 16.1229 89.466 15.3602 89.466 14.5306C89.466 13.681 89.6099 12.9049 89.8975 12.2024C90.1852 11.4999 90.5766 10.9011 91.0717 10.406C91.5735 9.91093 92.1555 9.52623 92.8179 9.25193C93.4869 8.97762 94.1994 8.84047 94.9555 8.84047C95.4037 8.84047 95.8419 8.89399 96.2701 9.00104C96.6983 9.10809 97.1031 9.26196 97.4844 9.46268C97.8725 9.66339 98.2337 9.91093 98.5683 10.2053C98.9028 10.493 99.1971 10.8175 99.4514 11.1788L94.3132 17.3707ZM95.7182 11.7207C95.591 11.6738 95.4639 11.6437 95.3368 11.6304C95.2164 11.617 95.0893 11.6103 94.9555 11.6103C94.5808 11.6103 94.2262 11.6805 93.8917 11.821C93.5639 11.9548 93.2762 12.1489 93.0286 12.4031C92.7878 12.6573 92.5971 12.9651 92.4566 13.3264C92.3161 13.681 92.2459 14.0824 92.2459 14.5306C92.2459 14.631 92.2492 14.7447 92.2559 14.8718C92.2693 14.999 92.286 15.1294 92.3061 15.2632C92.3328 15.3903 92.3629 15.5141 92.3964 15.6345C92.4298 15.755 92.4733 15.862 92.5269 15.9557L95.7182 11.7207Z" fill="#6F63FF"/>
<rect y="6.01807" width="6.47783" height="6.48149" rx="0.925927" fill="#EBE9FF"/>
<rect x="7.86584" y="6.01807" width="6.47783" height="6.48149" rx="0.925927" fill="#7E73FF"/>
<rect y="13.8884" width="6.47783" height="6.48149" rx="0.925927" fill="#5A4CFF"/>
<rect x="7.86584" y="13.8884" width="6.47783" height="6.48149" rx="0.925927" fill="#3C30C0"/>
</svg>
