<svg width="96" height="19" viewBox="0 0 96 19" fill="none" xmlns="http://www.w3.org/2000/svg">
<path d="M31.0857 5.42599H26.992C26.6174 5.42599 26.2829 5.55993 25.9886 5.82779C25.6943 6.09566 25.5271 6.41709 25.487 6.7921C25.4334 7.18051 25.5204 7.50864 25.7478 7.77651C25.9753 8.03098 26.2763 8.15821 26.6508 8.15821H26.7913C27.3532 8.15821 27.8682 8.26536 28.3365 8.47965C28.8047 8.69394 29.1994 8.98859 29.5204 9.3636C29.8549 9.72522 30.0957 10.1538 30.2428 10.6494C30.4034 11.1449 30.4502 11.6739 30.3833 12.2364C30.3164 12.799 30.1425 13.3347 29.8616 13.8436C29.594 14.3392 29.2529 14.7745 28.8381 15.1495C28.4234 15.5111 27.9552 15.799 27.4335 16.0133C26.9117 16.2276 26.3699 16.3348 25.808 16.3348H21.7144L22.0354 13.6026H26.1291C26.5037 13.6026 26.8381 13.4753 27.1325 13.2209C27.4401 12.953 27.6207 12.6249 27.6743 12.2364C27.7144 11.8614 27.6141 11.5467 27.3733 11.2922C27.1458 11.0244 26.8448 10.8904 26.4702 10.8904H26.3298C25.7679 10.8904 25.2528 10.7833 24.7846 10.569C24.3164 10.3547 23.9217 10.0667 23.6007 9.70513C23.2796 9.33012 23.0388 8.89484 22.8782 8.39929C22.7311 7.89035 22.691 7.35462 22.7578 6.7921C22.8247 6.22959 22.992 5.70056 23.2595 5.20501C23.5405 4.70946 23.8883 4.28087 24.303 3.91926C24.7177 3.54425 25.1859 3.2496 25.7077 3.0353C26.2294 2.82101 26.7712 2.71387 27.3331 2.71387H31.4268L31.0857 5.42599Z" fill="#1F2937"/>
<path d="M35.4203 2.71387L33.7547 16.3348H31.0256L32.6912 2.71387H35.4203Z" fill="#1F2937"/>
<path d="M39.1734 6.35013L37.9494 16.3348H35.2403L36.4644 6.35013H39.1734ZM39.6149 2.73396L39.2738 5.44608H36.5647L36.9059 2.73396H39.6149Z" fill="#1F2937"/>
<path d="M49.4068 2.71387L47.7413 16.3348H41.9419C41.5673 16.3348 41.2195 16.2678 40.8984 16.1339C40.5907 15.9866 40.3299 15.7923 40.1158 15.5513C39.9018 15.2968 39.7412 15.0088 39.6342 14.6874C39.5406 14.3526 39.5138 13.9977 39.5539 13.6226L39.9954 9.98639C40.0623 9.49084 40.2161 9.02208 40.4569 8.5801C40.6978 8.13812 40.9988 7.74972 41.36 7.41489C41.7346 7.08006 42.1493 6.81889 42.6041 6.63139C43.0724 6.44388 43.5606 6.35013 44.069 6.35013H46.2563L46.6978 2.71387H49.4068ZM45.3533 13.6226L45.9152 9.08235H43.7279C43.4737 9.08235 43.2463 9.1694 43.0456 9.34351C42.8449 9.51762 42.7312 9.73192 42.7045 9.98639L42.3834 12.6985L42.263 13.6226H45.3533Z" fill="#1F2937"/>
<path d="M60.3177 13.6226L59.9966 16.3348H58.7123C58.2173 16.3348 57.7625 16.241 57.3477 16.0535C56.933 15.866 56.5785 15.6048 56.2842 15.27C55.9899 14.9352 55.7758 14.5535 55.642 14.1249C55.5083 13.6829 55.4748 13.2075 55.5417 12.6985L55.9832 9.08235H55.3611L55.7022 6.35013H56.3243L56.4247 5.44608L56.7658 2.71387H59.4748L59.1337 5.44608L59.0334 6.35013H61.2207L60.8795 9.08235H58.6922L58.2507 12.6985C58.224 12.953 58.2842 13.174 58.4314 13.3615C58.5919 13.5356 58.7926 13.6226 59.0334 13.6226H60.3177Z" fill="#3B82F6"/>
<path d="M70.4741 9.98639L70.153 12.7186C70.0861 13.2142 69.9323 13.6829 69.6915 14.1249C69.4507 14.5669 69.143 14.9553 68.7684 15.2901C68.4072 15.6115 67.9925 15.866 67.5242 16.0535C67.0694 16.241 66.5944 16.3348 66.0995 16.3348H64.5744C64.0794 16.3348 63.6245 16.241 63.2098 16.0535C62.7951 15.866 62.4406 15.6115 62.1463 15.2901C61.8519 14.9553 61.6379 14.5669 61.5041 14.1249C61.3703 13.6829 61.3369 13.2142 61.4038 12.7186L61.7249 9.98639C61.7917 9.49084 61.9456 9.02208 62.1864 8.5801C62.4272 8.13812 62.7282 7.75642 63.0894 7.43498C63.464 7.10015 63.8787 6.83898 64.3336 6.65147C64.8018 6.46397 65.2834 6.37022 65.7784 6.37022H67.3035C67.7985 6.37022 68.2533 6.46397 68.668 6.65147C69.0961 6.83898 69.4507 7.10015 69.7316 7.43498C70.0259 7.75642 70.24 8.13812 70.3737 8.5801C70.5075 9.02208 70.541 9.49084 70.4741 9.98639ZM67.444 12.7186L67.765 9.98639C67.7918 9.73192 67.7249 9.51762 67.5644 9.34351C67.4172 9.1694 67.2232 9.08235 66.9824 9.08235H65.4573C65.2031 9.08235 64.9757 9.1694 64.775 9.34351C64.5744 9.51762 64.4607 9.73192 64.4339 9.98639L64.1128 12.7186C64.0861 12.9731 64.1463 13.1874 64.2934 13.3615C64.4406 13.5356 64.6413 13.6226 64.8954 13.6226H66.4205C66.6613 13.6226 66.8821 13.5356 67.0827 13.3615C67.2968 13.1874 67.4172 12.9731 67.444 12.7186Z" fill="#3B82F6"/>
<path d="M70.5871 11.7744L70.9483 10.1471H75.6841L75.3229 11.7744H72.955H70.5871Z" fill="#3B82F6"/>
<path d="M87.0717 2.71387L85.4061 16.3348H79.6068C79.2322 16.3348 78.8843 16.2678 78.5633 16.1339C78.2556 15.9866 77.9947 15.7923 77.7807 15.5513C77.5666 15.2968 77.4061 15.0088 77.2991 14.6874C77.2054 14.3526 77.1786 13.9977 77.2188 13.6226L77.6603 9.98639C77.7271 9.49084 77.881 9.02208 78.1218 8.5801C78.3626 8.13812 78.6636 7.74972 79.0248 7.41489C79.3994 7.08006 79.8141 6.81889 80.269 6.63139C80.7372 6.44388 81.2255 6.35013 81.7339 6.35013H83.9212L84.3626 2.71387H87.0717ZM83.0182 13.6226L83.58 9.08235H81.3927C81.1385 9.08235 80.9111 9.1694 80.7104 9.34351C80.5098 9.51762 80.3961 9.73192 80.3693 9.98639L80.0482 12.6985L79.9278 13.6226H83.0182Z" fill="#3B82F6"/>
<path d="M95.8714 9.98639L95.5503 12.7186C95.4834 13.2142 95.3296 13.6829 95.0888 14.1249C94.848 14.5669 94.5403 14.9553 94.1657 15.2901C93.8045 15.6115 93.3898 15.866 92.9215 16.0535C92.4667 16.241 91.9918 16.3348 91.4968 16.3348H89.9717C89.4767 16.3348 89.0218 16.241 88.6071 16.0535C88.1924 15.866 87.8379 15.6115 87.5436 15.2901C87.2493 14.9553 87.0352 14.5669 86.9014 14.1249C86.7677 13.6829 86.7342 13.2142 86.8011 12.7186L87.1222 9.98639C87.1891 9.49084 87.3429 9.02208 87.5837 8.5801C87.8245 8.13812 88.1255 7.75642 88.4867 7.43498C88.8613 7.10015 89.276 6.83898 89.7309 6.65147C90.1991 6.46397 90.6807 6.37022 91.1757 6.37022H92.7008C93.1958 6.37022 93.6506 6.46397 94.0654 6.65147C94.4935 6.83898 94.848 7.10015 95.1289 7.43498C95.4232 7.75642 95.6373 8.13812 95.7711 8.5801C95.9048 9.02208 95.9383 9.49084 95.8714 9.98639ZM92.8413 12.7186L93.1623 9.98639C93.1891 9.73192 93.1222 9.51762 92.9617 9.34351C92.8145 9.1694 92.6205 9.08235 92.3797 9.08235H90.8546C90.6005 9.08235 90.373 9.1694 90.1724 9.34351C89.9717 9.51762 89.858 9.73192 89.8312 9.98639L89.5101 12.7186C89.4834 12.9731 89.5436 13.1874 89.6907 13.3615C89.8379 13.5356 90.0386 13.6226 90.2928 13.6226H91.8178C92.0587 13.6226 92.2794 13.5356 92.4801 13.3615C92.6941 13.1874 92.8145 12.9731 92.8413 12.7186Z" fill="#3B82F6"/>
<rect x="12.3247" y="2.05432" width="3.59459" height="15.4054" rx="1.54054" fill="#1D4ED8"/>
<path d="M0 4.72879C0 3.76605 0.66866 2.93249 1.60847 2.72364L11.3652 0.555475C12.648 0.270412 13.8649 1.24654 13.8649 2.56062V16.5306C13.8649 17.8149 12.6996 18.7842 11.4368 18.5504L1.68003 16.7435C0.706415 16.5632 0 15.714 0 14.7238V4.72879Z" fill="#3B82F6"/>
<path d="M4.10864 8.98675L5.64918 10.784L8.73026 7.18945" stroke="#F8FAFC" stroke-width="1.23243" stroke-linecap="round" stroke-linejoin="round"/>
</svg>
