<svg width="216" height="55" viewBox="0 0 216 55" fill="none" xmlns="http://www.w3.org/2000/svg">
<path d="M64.7463 34.679C64.7463 35.9651 64.5006 37.1718 64.0093 38.299C63.5179 39.4262 62.8459 40.4161 61.9933 41.2687C61.1551 42.1069 60.1725 42.7716 59.0453 43.263C57.9181 43.7543 56.7114 44 55.4253 44H39.883V12.9155H55.4253C56.7114 12.9155 57.9181 13.1612 59.0453 13.6525C60.1725 14.1439 61.1551 14.8158 61.9933 15.6685C62.8459 16.5066 63.5179 17.4893 64.0093 18.6165C64.5006 19.7437 64.7463 20.9504 64.7463 22.2365C64.7463 22.8146 64.6668 23.4071 64.5078 24.014C64.3489 24.621 64.1249 25.2062 63.8358 25.7698C63.5468 26.3334 63.2 26.8465 62.7954 27.3089C62.3907 27.7713 61.9427 28.1543 61.4514 28.4578C61.9572 28.7323 62.4124 29.1081 62.817 29.585C63.2217 30.0474 63.5685 30.5604 63.8575 31.124C64.1465 31.6876 64.3633 32.2801 64.5078 32.9015C64.6668 33.5084 64.7463 34.1009 64.7463 34.679ZM46.1042 37.7788H55.4253C55.8588 37.7788 56.2634 37.6993 56.6391 37.5403C57.0149 37.3814 57.34 37.1646 57.6146 36.89C57.9036 36.601 58.1276 36.2686 58.2866 35.8929C58.4455 35.5172 58.525 35.1125 58.525 34.679C58.525 34.2455 58.4455 33.8408 58.2866 33.4651C58.1276 33.0894 57.9036 32.7642 57.6146 32.4896C57.34 32.2006 57.0149 31.9766 56.6391 31.8177C56.2634 31.6587 55.8588 31.5792 55.4253 31.5792H46.1042V37.7788ZM46.1042 25.358H55.4253C55.8588 25.358 56.2634 25.2785 56.6391 25.1195C57.0149 24.9606 57.34 24.7438 57.6146 24.4692C57.9036 24.1802 58.1276 23.8478 58.2866 23.4721C58.4455 23.0819 58.525 22.6701 58.525 22.2365C58.525 21.803 58.4455 21.3984 58.2866 21.0226C58.1276 20.6469 57.9036 20.3217 57.6146 20.0472C57.34 19.7582 57.0149 19.5342 56.6391 19.3752C56.2634 19.2162 55.8588 19.1367 55.4253 19.1367H46.1042V25.358ZM85.8811 41.2904C85.4042 41.7239 84.8912 42.1358 84.3421 42.526C83.8074 42.9017 83.2438 43.2341 82.6513 43.5231C82.0588 43.7977 81.4446 44.0145 80.8087 44.1734C80.1873 44.3468 79.5515 44.4335 78.9012 44.4335C77.4705 44.4335 76.1266 44.1806 74.8693 43.6748C73.6121 43.1691 72.5065 42.4537 71.5528 41.5288C70.6134 40.5895 69.8692 39.4551 69.3201 38.1256C68.7854 36.7816 68.518 35.2787 68.518 33.6168V20.7842H74.4141V33.6168C74.4141 34.3972 74.5297 35.0981 74.7609 35.7195C75.0066 36.3264 75.3317 36.8394 75.7364 37.2585C76.141 37.6776 76.6107 37.9955 77.1454 38.2123C77.6945 38.4291 78.2798 38.5375 78.9012 38.5375C79.5081 38.5375 80.079 38.4002 80.6137 38.1256C81.1628 37.8366 81.6397 37.4608 82.0443 36.9984C82.449 36.536 82.7669 36.0157 82.9981 35.4377C83.2293 34.8452 83.3449 34.2382 83.3449 33.6168V20.7842H89.2627V44H87.832L85.8811 41.2904ZM100.773 14.4762C100.773 15.0254 100.665 15.5384 100.448 16.0153C100.246 16.4922 99.9638 16.9113 99.6025 17.2725C99.2412 17.6194 98.8149 17.9012 98.3236 18.1179C97.8467 18.3203 97.3337 18.4214 96.7845 18.4214C96.2354 18.4214 95.7151 18.3203 95.2238 18.1179C94.7469 17.9012 94.3278 17.6194 93.9665 17.2725C93.6197 16.9113 93.3379 16.4922 93.1211 16.0153C92.9188 15.5384 92.8177 15.0254 92.8177 14.4762C92.8177 13.9416 92.9188 13.4358 93.1211 12.9589C93.3379 12.4675 93.6197 12.0484 93.9665 11.7016C94.3278 11.3403 94.7469 11.0585 95.2238 10.8562C95.7151 10.6395 96.2354 10.5311 96.7845 10.5311C97.3337 10.5311 97.8467 10.6395 98.3236 10.8562C98.8149 11.0585 99.2412 11.3403 99.6025 11.7016C99.9638 12.0484 100.246 12.4675 100.448 12.9589C100.665 13.4358 100.773 13.9416 100.773 14.4762ZM99.7542 44H93.7931V20.7842H99.7542V44ZM110.246 44H104.285V11.5499H110.246V44ZM140.311 28.4578C140.311 29.8884 140.124 31.2685 139.748 32.598C139.387 33.9131 138.866 35.1487 138.187 36.3047C137.508 37.4464 136.699 38.4941 135.759 39.4479C134.82 40.3872 133.772 41.1965 132.616 41.8757C131.46 42.5549 130.217 43.0824 128.888 43.4581C127.573 43.8194 126.2 44 124.769 44H115.405V12.9155H124.769C126.2 12.9155 127.573 13.1034 128.888 13.4791C130.217 13.8404 131.46 14.3606 132.616 15.0398C133.772 15.719 134.82 16.5355 135.759 17.4893C136.699 18.4286 137.508 19.4764 138.187 20.6324C138.866 21.7741 139.387 23.0097 139.748 24.3392C140.124 25.6542 140.311 27.0271 140.311 28.4578ZM134.09 28.4578C134.09 27.1716 133.845 25.9649 133.353 24.8377C132.876 23.7105 132.212 22.7279 131.359 21.8897C130.521 21.0371 129.531 20.3651 128.389 19.8738C127.262 19.3824 126.055 19.1367 124.769 19.1367H121.669V37.7788H124.769C126.055 37.7788 127.262 37.5403 128.389 37.0634C129.531 36.5721 130.521 35.9073 131.359 35.0692C132.212 34.2166 132.876 33.2266 133.353 32.0995C133.845 30.9578 134.09 29.7439 134.09 28.4578ZM166.259 32.1862C166.259 33.9203 165.948 35.5388 165.326 37.0418C164.705 38.5302 163.86 39.8236 162.79 40.9219C161.721 42.0057 160.464 42.8656 159.019 43.5014C157.588 44.1228 156.049 44.4335 154.401 44.4335C152.768 44.4335 151.229 44.1228 149.784 43.5014C148.354 42.8656 147.096 42.0057 146.012 40.9219C144.943 39.8236 144.098 38.5302 143.476 37.0418C142.855 35.5388 142.544 33.9203 142.544 32.1862C142.544 30.4231 142.855 28.7901 143.476 27.2872C144.098 25.7843 144.943 24.4909 146.012 23.4071C147.096 22.3088 148.354 21.4489 149.784 20.8275C151.229 20.2061 152.768 19.8954 154.401 19.8954C156.049 19.8954 157.588 20.1917 159.019 20.7842C160.464 21.3622 161.721 22.1932 162.79 23.277C163.86 24.3464 164.705 25.6398 165.326 27.1572C165.948 28.6601 166.259 30.3364 166.259 32.1862ZM160.297 32.1862C160.297 31.2324 160.138 30.3725 159.821 29.6066C159.517 28.8263 159.098 28.1615 158.563 27.6124C158.029 27.0488 157.4 26.6225 156.677 26.3334C155.969 26.03 155.211 25.8782 154.401 25.8782C153.592 25.8782 152.826 26.03 152.104 26.3334C151.396 26.6225 150.774 27.0488 150.239 27.6124C149.719 28.1615 149.307 28.8263 149.004 29.6066C148.7 30.3725 148.549 31.2324 148.549 32.1862C148.549 33.0821 148.7 33.9131 149.004 34.679C149.307 35.4449 149.719 36.1097 150.239 36.6733C150.774 37.2368 151.396 37.6848 152.104 38.0172C152.826 38.3351 153.592 38.4941 154.401 38.4941C155.211 38.4941 155.969 38.3424 156.677 38.0389C157.4 37.7354 158.029 37.3091 158.563 36.76C159.098 36.2108 159.517 35.5461 159.821 34.7657C160.138 33.9853 160.297 33.1255 160.297 32.1862ZM175.449 44H169.532V20.7842H170.962L172.913 23.0386C173.867 22.1715 174.944 21.5067 176.143 21.0443C177.357 20.5674 178.622 20.329 179.937 20.329C181.353 20.329 182.69 20.6035 183.947 21.1527C185.204 21.6874 186.302 22.4316 187.242 23.3854C188.181 24.3247 188.918 25.4302 189.453 26.7019C190.002 27.9592 190.276 29.3032 190.276 30.7338V44H184.359V30.7338C184.359 30.1269 184.243 29.556 184.012 29.0214C183.781 28.4722 183.463 27.9953 183.058 27.5907C182.653 27.1861 182.184 26.8681 181.649 26.6369C181.114 26.4057 180.544 26.2901 179.937 26.2901C179.315 26.2901 178.73 26.4057 178.181 26.6369C177.632 26.8681 177.155 27.1861 176.75 27.5907C176.345 27.9953 176.028 28.4722 175.796 29.0214C175.565 29.556 175.449 30.1269 175.449 30.7338V44ZM203.738 38.3207C203.969 38.3929 204.2 38.4435 204.431 38.4724C204.663 38.4869 204.894 38.4941 205.125 38.4941C205.703 38.4941 206.259 38.4146 206.794 38.2557C207.329 38.0967 207.827 37.8727 208.29 37.5837C208.767 37.2802 209.186 36.9189 209.547 36.4998C209.923 36.0663 210.226 35.5894 210.457 35.0692L214.793 39.4262C214.244 40.2066 213.608 40.9074 212.885 41.5288C212.177 42.1502 211.404 42.6777 210.566 43.1113C209.742 43.5448 208.868 43.8699 207.943 44.0867C207.033 44.3179 206.093 44.4335 205.125 44.4335C203.492 44.4335 201.953 44.1301 200.508 43.5231C199.077 42.9162 197.82 42.0708 196.736 40.9869C195.667 39.9031 194.821 38.6169 194.2 37.1285C193.579 35.6255 193.268 33.9781 193.268 32.1862C193.268 30.3509 193.579 28.6745 194.2 27.1572C194.821 25.6398 195.667 24.3464 196.736 23.277C197.82 22.2076 199.077 21.3767 200.508 20.7842C201.953 20.1917 203.492 19.8954 205.125 19.8954C206.093 19.8954 207.04 20.011 207.965 20.2423C208.89 20.4735 209.764 20.8059 210.588 21.2394C211.426 21.6729 212.206 22.2076 212.929 22.8435C213.651 23.4649 214.287 24.1658 214.836 24.9461L203.738 38.3207ZM206.772 26.1167C206.498 26.0155 206.223 25.9505 205.949 25.9216C205.689 25.8927 205.414 25.8782 205.125 25.8782C204.316 25.8782 203.55 26.03 202.827 26.3334C202.119 26.6225 201.498 27.0415 200.963 27.5907C200.443 28.1398 200.031 28.8046 199.727 29.585C199.424 30.3509 199.272 31.2179 199.272 32.1862C199.272 32.4029 199.279 32.6486 199.294 32.9232C199.323 33.1977 199.359 33.4795 199.402 33.7686C199.46 34.0431 199.525 34.3105 199.597 34.5706C199.67 34.8307 199.764 35.0619 199.879 35.2643L206.772 26.1167Z" fill="#AB5EF9"/>
<rect y="13" width="14" height="14" rx="2" fill="#E1C5FE"/>
<rect x="17" y="13" width="14" height="14" rx="2" fill="#D3AAFD"/>
<rect y="30" width="14" height="14" rx="2" fill="#C084FC"/>
<rect x="17" y="30" width="14" height="14" rx="2" fill="#B773FB"/>
</svg>
