<svg width="24" height="24" viewBox="0 0 24 24" fill="none" xmlns="http://www.w3.org/2000/svg">
<rect width="24" height="24" rx="8" fill="#1E293B"/>
<path d="M14.5193 9.59936H14.0913C13.6643 9.62343 13.2983 9.29741 13.2731 8.87044V8.83282C13.261 8.62688 13.1673 8.43425 13.0129 8.29747C12.8585 8.16069 12.656 8.09104 12.4501 8.1039H9.50619V7.95341C9.50619 7.75862 9.34828 7.60071 9.15348 7.60071C8.95869 7.60071 8.80078 7.75862 8.80078 7.95341V15.948C8.80078 16.1428 8.95869 16.3007 9.15348 16.3007C9.34828 16.3007 9.50619 16.1428 9.50619 15.948V12.0542H10.0564C10.4834 12.0301 10.8494 12.3561 10.8747 12.7831V12.8113C10.8999 13.2383 11.2659 13.5643 11.6929 13.5402H14.5146C14.9416 13.5643 15.3076 13.2383 15.3328 12.8113V10.3189C15.3003 9.89877 14.9402 9.58033 14.5193 9.59936Z" fill="white"/>
</svg>
