<svg class='w-full h-full' viewBox="0 0 64 64" fill="none" xmlns="http://www.w3.org/2000/svg">
<rect width="64" height="64" rx="12" fill="#FAF9FF"/>
<path fill-rule="evenodd" clip-rule="evenodd" d="M33.457 50.4854C42.4323 50.4854 49.7082 43.2095 49.7082 34.2342C49.7082 25.2589 42.4323 17.983 33.457 17.983C27.2734 17.983 21.8964 21.4367 19.1497 26.5204C18.9195 26.8531 18.6626 27.3164 18.3801 27.8259C17.5979 29.2368 16.6191 31.0023 15.4644 31.3322C14.3037 31.6639 13.5801 32.1532 14.1605 33.8944C14.6905 35.4848 19.1529 46.7412 27.8442 49.49C29.5935 50.1339 31.4842 50.4854 33.457 50.4854Z" fill="#F5C2D0"/>
<path fill-rule="evenodd" clip-rule="evenodd" d="M22.6788 22.0902C26.5161 22.6461 33.3986 24.1293 38.828 30.4118C44.1383 36.5566 44.3442 39.9958 44.6462 45.0384C44.6647 45.3474 44.6836 45.6625 44.704 45.9846C47.7952 43.0261 49.7202 38.8591 49.7202 34.2425C49.7202 25.2672 42.4443 17.9913 33.469 17.9913C29.328 17.9913 25.5487 19.5402 22.6788 22.0902Z" fill="#1E293B"/>
<path d="M49.6447 31.5728L13.4227 19.5035C12.951 19.3164 12.3557 18.0312 14.8376 17.5388C16.2524 17.2582 20.4973 18.0066 21.9122 18.9422C24.5534 15.7611 32.1563 10.4095 41.4382 14.4513C50.7201 18.4931 50.7767 27.5497 49.6447 31.5728Z" fill="#5A4CFF"/>
<ellipse cx="24.0272" cy="30.412" rx="1.1608" ry="1.7412" transform="rotate(-0.774191 24.0272 30.412)" fill="#334155"/>
<circle cx="42.6004" cy="35.0552" r="4.0628" fill="#F5C2D0"/>
</svg>
